SplineFontDB: 3.2
FontName: SpaceMono-Regular
FullName: Space Mono
FamilyName: Space Mono
Weight: Book
Copyright: Copyright 2016 Google Inc. All Rights Reserved.
Version: 1.000;PS 1.003;hotconv 1.0.81;makeotf.lib2.5.63406
ItalicAngle: 0
UnderlinePosition: -100
UnderlineWidth: 50
Ascent: 800
Descent: 200
InvalidEm: 0
sfntRevision: 0x00010000
LayerCount: 2
Layer: 0 1 "Back" 1
Layer: 1 1 "Fore" 0
XUID: [1021 226 -1497385041 14369326]
StyleMap: 0x0040
FSType: 0
OS2Version: 3
OS2_WeightWidthSlopeOnly: 0
OS2_UseTypoMetrics: 0
CreationTime: 1464282198
ModificationTime: 1620304142
PfmFamily: 17
TTFWeight: 400
TTFWidth: 5
LineGap: 0
VLineGap: 0
Panose: 2 0 5 9 4 0 0 2 0 4
OS2TypoAscent: 1120
OS2TypoAOffset: 0
OS2TypoDescent: -361
OS2TypoDOffset: 0
OS2TypoLinegap: 0
OS2WinAscent: 1120
OS2WinAOffset: 0
OS2WinDescent: 361
OS2WinDOffset: 0
HheadAscent: 1120
HheadAOffset: 0
HheadDescent: -361
HheadDOffset: 0
OS2SubXSize: 650
OS2SubYSize: 600
OS2SubXOff: 0
OS2SubYOff: 75
OS2SupXSize: 650
OS2SupYSize: 600
OS2SupXOff: 0
OS2SupYOff: 350
OS2StrikeYSize: 50
OS2StrikeYPos: 297
OS2CapHeight: 700
OS2XHeight: 496
OS2Vendor: 'CF  '
OS2CodePages: 20000193.00000000
OS2UnicodeRanges: 20000007.00000001.00000000.00000000
Lookup: 1 0 0 "'aalt' Access All Alternates in Latin lookup 0" { "'aalt' Access All Alternates in Latin lookup 0 subtable"  } ['aalt' ('DFLT' <'dflt' > 'latn' <'CAT ' 'MOL ' 'NLD ' 'ROM ' 'dflt' > ) ]
Lookup: 3 0 0 "'aalt' Access All Alternates in Latin lookup 1" { "'aalt' Access All Alternates in Latin lookup 1 subtable"  } ['aalt' ('DFLT' <'dflt' > 'latn' <'CAT ' 'MOL ' 'NLD ' 'ROM ' 'dflt' > ) ]
Lookup: 1 0 0 "'ss01' Style Set 1 in Latin lookup 2" { "'ss01' Style Set 1 in Latin lookup 2 subtable"  } ['ss01' ('DFLT' <'dflt' > 'latn' <'CAT ' 'MOL ' 'NLD ' 'ROM ' 'dflt' > ) ]
Lookup: 1 0 0 "'ss02' Style Set 2 in Latin lookup 3" { "'ss02' Style Set 2 in Latin lookup 3 subtable"  } ['ss02' ('DFLT' <'dflt' > 'latn' <'CAT ' 'MOL ' 'NLD ' 'ROM ' 'dflt' > ) ]

StartChar: exclam
Encoding: 33 33 5
Width: 612
GlyphClass: 2
Flags: W
LayerCount: 2
Fore
SplineSet
236 56 m 256,0,1
 236 85 236 85 256.5 105.5 c 128,-1,2
 277 126 277 126 306 126 c 256,3,4
 335 126 335 126 355.5 105.5 c 128,-1,5
 376 85 376 85 376 56 c 256,6,7
 376 27 376 27 355.5 6.5 c 128,-1,8
 335 -14 335 -14 306 -14 c 256,9,10
 277 -14 277 -14 256.5 6.5 c 128,-1,11
 236 27 236 27 236 56 c 256,0,1
346 700 m 1,12,-1
 346 186 l 1,13,-1
 266 186 l 1,14,-1
 266 700 l 1,15,-1
 346 700 l 1,12,-1
EndSplineSet
EndChar

StartChar: quotedbl
Encoding: 34 34 6
Width: 612
GlyphClass: 2
Flags: W
LayerCount: 2
Fore
SplineSet
327 644 m 0,0,1
 327 673 327 673 347.5 693.5 c 128,-1,2
 368 714 368 714 397 714 c 256,3,4
 426 714 426 714 446.5 693.5 c 128,-1,5
 467 673 467 673 467 644 c 0,6,7
 467 622 467 622 455 604.5 c 128,-1,8
 443 587 443 587 424 579 c 1,9,-1
 424 468 l 1,10,-1
 370 468 l 1,11,-1
 370 579 l 1,12,13
 351 587 351 587 339 604.5 c 128,-1,14
 327 622 327 622 327 644 c 0,0,1
145 644 m 0,15,16
 145 673 145 673 165.5 693.5 c 128,-1,17
 186 714 186 714 215 714 c 256,18,19
 244 714 244 714 264.5 693.5 c 128,-1,20
 285 673 285 673 285 644 c 0,21,22
 285 622 285 622 273 604.5 c 128,-1,23
 261 587 261 587 242 579 c 1,24,-1
 242 468 l 1,25,-1
 188 468 l 1,26,-1
 188 579 l 1,27,28
 169 587 169 587 157 604.5 c 128,-1,29
 145 622 145 622 145 644 c 0,15,16
EndSplineSet
EndChar

StartChar: numbersign
Encoding: 35 35 7
Width: 612
GlyphClass: 2
Flags: W
LayerCount: 2
Fore
SplineSet
360 102 m 1,0,-1
 360 224 l 1,1,-1
 252 224 l 1,2,-1
 252 102 l 1,3,-1
 180 102 l 1,4,-1
 180 224 l 1,5,-1
 70 224 l 1,6,-1
 70 296 l 1,7,-1
 180 296 l 1,8,-1
 180 404 l 1,9,-1
 70 404 l 1,10,-1
 70 476 l 1,11,-1
 180 476 l 1,12,-1
 180 598 l 1,13,-1
 252 598 l 1,14,-1
 252 476 l 1,15,-1
 360 476 l 1,16,-1
 360 598 l 1,17,-1
 432 598 l 1,18,-1
 432 476 l 1,19,-1
 542 476 l 1,20,-1
 542 404 l 1,21,-1
 432 404 l 1,22,-1
 432 296 l 1,23,-1
 542 296 l 1,24,-1
 542 224 l 1,25,-1
 432 224 l 1,26,-1
 432 102 l 1,27,-1
 360 102 l 1,0,-1
360 404 m 1,28,-1
 252 404 l 1,29,-1
 252 296 l 1,30,-1
 360 296 l 1,31,-1
 360 404 l 1,28,-1
EndSplineSet
Substitution2: "'case' Case-Sensitive Forms in Latin lookup 31 subtable" numbersign.cap
Substitution2: "'case' Case-Sensitive Forms in Latin lookup 30 subtable" numbersign.cap
Substitution2: "'aalt' Access All Alternates in Latin lookup 0 subtable" numbersign.cap
EndChar

StartChar: dollar
Encoding: 36 36 8
Width: 612
GlyphClass: 2
Flags: W
LayerCount: 2
Fore
SplineSet
334 608 m 1,0,1
 369 602 369 602 397.5 587.5 c 128,-1,2
 426 573 426 573 446 552 c 128,-1,3
 466 531 466 531 477 505.5 c 128,-1,4
 488 480 488 480 488 452 c 2,5,-1
 488 434 l 1,6,-1
 412 434 l 1,7,-1
 412 446 l 2,8,9
 412 479 412 479 390.5 502 c 128,-1,10
 369 525 369 525 334 534 c 1,11,-1
 334 391 l 1,12,13
 417 381 417 381 460.5 345.5 c 128,-1,14
 504 310 504 310 504 248 c 2,15,-1
 504 242 l 2,16,17
 504 175 504 175 457.5 134.5 c 128,-1,18
 411 94 411 94 334 89 c 1,19,-1
 334 28 l 1,20,-1
 262 28 l 1,21,-1
 262 91 l 1,22,23
 218 98 218 98 186.5 115.5 c 128,-1,24
 155 133 155 133 134.5 157.5 c 128,-1,25
 114 182 114 182 104 210.5 c 128,-1,26
 94 239 94 239 94 268 c 2,27,-1
 94 292 l 1,28,-1
 170 292 l 1,29,-1
 170 280 l 2,30,31
 170 232 170 232 194 203 c 128,-1,32
 218 174 218 174 262 164 c 1,33,-1
 262 327 l 1,34,35
 187 337 187 337 147.5 370.5 c 128,-1,36
 108 404 108 404 108 464 c 2,37,-1
 108 470 l 2,38,39
 108 502 108 502 120.5 526.5 c 128,-1,40
 133 551 133 551 154 568.5 c 128,-1,41
 175 586 175 586 203 596.5 c 128,-1,42
 231 607 231 607 262 610 c 1,43,-1
 262 672 l 1,44,-1
 334 672 l 1,45,-1
 334 608 l 1,0,1
426 242 m 0,46,47
 426 277 426 277 404 294 c 128,-1,48
 382 311 382 311 334 319 c 1,49,-1
 334 161 l 1,50,51
 377 166 377 166 401.5 187 c 128,-1,52
 426 208 426 208 426 242 c 0,46,47
186 470 m 0,53,54
 186 442 186 442 202.5 424.5 c 128,-1,55
 219 407 219 407 262 399 c 1,56,-1
 262 538 l 1,57,58
 230 533 230 533 208 516 c 128,-1,59
 186 499 186 499 186 470 c 0,53,54
EndSplineSet
Substitution2: "'case' Case-Sensitive Forms in Latin lookup 31 subtable" dollar.cap
Substitution2: "'case' Case-Sensitive Forms in Latin lookup 30 subtable" dollar.cap
Substitution2: "'aalt' Access All Alternates in Latin lookup 0 subtable" dollar.cap
EndChar

StartChar: percent
Encoding: 37 37 9
Width: 612
GlyphClass: 3
Flags: W
LayerCount: 2
Fore
SplineSet
346 556 m 256,0,1
 346 520 346 520 334 492.5 c 128,-1,2
 322 465 322 465 301.5 445.5 c 128,-1,3
 281 426 281 426 254.5 416 c 128,-1,4
 228 406 228 406 199 406 c 256,5,6
 170 406 170 406 143.5 416 c 128,-1,7
 117 426 117 426 96.5 445.5 c 128,-1,8
 76 465 76 465 64 492.5 c 128,-1,9
 52 520 52 520 52 556 c 256,10,11
 52 592 52 592 64 619.5 c 128,-1,12
 76 647 76 647 96.5 666.5 c 128,-1,13
 117 686 117 686 143.5 696 c 128,-1,14
 170 706 170 706 199 706 c 256,15,16
 228 706 228 706 254.5 696 c 128,-1,17
 281 686 281 686 301.5 666.5 c 128,-1,18
 322 647 322 647 334 619.5 c 128,-1,19
 346 592 346 592 346 556 c 256,0,1
199 460 m 256,20,21
 238 460 238 460 262 486.5 c 128,-1,22
 286 513 286 513 286 556 c 256,23,24
 286 599 286 599 262 625.5 c 128,-1,25
 238 652 238 652 199 652 c 256,26,27
 160 652 160 652 136 625.5 c 128,-1,28
 112 599 112 599 112 556 c 0,29,30
 112 508 112 508 136 484 c 128,-1,31
 160 460 160 460 199 460 c 256,20,21
561 144 m 256,32,33
 561 108 561 108 549 80.5 c 128,-1,34
 537 53 537 53 516.5 33.5 c 128,-1,35
 496 14 496 14 469.5 4 c 128,-1,36
 443 -6 443 -6 414 -6 c 256,37,38
 385 -6 385 -6 358.5 4 c 128,-1,39
 332 14 332 14 311.5 33.5 c 128,-1,40
 291 53 291 53 279 80.5 c 128,-1,41
 267 108 267 108 267 144 c 256,42,43
 267 180 267 180 279 207.5 c 128,-1,44
 291 235 291 235 311.5 254.5 c 128,-1,45
 332 274 332 274 358.5 284 c 128,-1,46
 385 294 385 294 414 294 c 256,47,48
 443 294 443 294 469.5 284 c 128,-1,49
 496 274 496 274 516.5 254.5 c 128,-1,50
 537 235 537 235 549 207.5 c 128,-1,51
 561 180 561 180 561 144 c 256,32,33
414 48 m 256,52,53
 453 48 453 48 477 74.5 c 128,-1,54
 501 101 501 101 501 144 c 256,55,56
 501 187 501 187 477 213.5 c 128,-1,57
 453 240 453 240 414 240 c 256,58,59
 375 240 375 240 351 213.5 c 128,-1,60
 327 187 327 187 327 144 c 0,61,62
 327 96 327 96 351 72 c 128,-1,63
 375 48 375 48 414 48 c 256,52,53
531 494 m 1,64,-1
 555 448 l 1,65,-1
 82 207 l 1,66,-1
 58 253 l 1,67,-1
 531 494 l 1,64,-1
EndSplineSet
Ligature2: "Ligature Substitution lookup 34 subtable" uni2080 fraction uni2080
Ligature2: "Ligature Substitution lookup 34 subtable" uni2080 fraction uni2070
Ligature2: "Ligature Substitution lookup 34 subtable" uni2080 fraction zero
Ligature2: "Ligature Substitution lookup 34 subtable" uni2080 slash uni2080
Ligature2: "Ligature Substitution lookup 34 subtable" uni2080 slash uni2070
Ligature2: "Ligature Substitution lookup 34 subtable" uni2080 slash zero
Ligature2: "Ligature Substitution lookup 34 subtable" uni2070 fraction uni2080
Ligature2: "Ligature Substitution lookup 34 subtable" uni2070 fraction uni2070
Ligature2: "Ligature Substitution lookup 34 subtable" uni2070 fraction zero
Ligature2: "Ligature Substitution lookup 34 subtable" uni2070 slash uni2080
Ligature2: "Ligature Substitution lookup 34 subtable" uni2070 slash uni2070
Ligature2: "Ligature Substitution lookup 34 subtable" uni2070 slash zero
Ligature2: "Ligature Substitution lookup 34 subtable" zero fraction uni2080
Ligature2: "Ligature Substitution lookup 34 subtable" zero fraction uni2070
Ligature2: "Ligature Substitution lookup 34 subtable" zero fraction zero
Ligature2: "Ligature Substitution lookup 34 subtable" zero slash uni2080
Ligature2: "Ligature Substitution lookup 34 subtable" zero slash uni2070
Ligature2: "Ligature Substitution lookup 34 subtable" zero slash zero
EndChar

StartChar: ampersand
Encoding: 38 38 10
Width: 612
GlyphClass: 2
Flags: W
LayerCount: 2
Fore
SplineSet
580 312 m 1,0,-1
 483 312 l 1,1,-1
 483 0 l 1,2,-1
 259 0 l 2,3,4
 209 0 209 0 170 14 c 128,-1,5
 131 28 131 28 105 52.5 c 128,-1,6
 79 77 79 77 65.5 110.5 c 128,-1,7
 52 144 52 144 52 183 c 2,8,-1
 52 195 l 2,9,10
 52 252 52 252 86 291.5 c 128,-1,11
 120 331 120 331 170 345 c 1,12,-1
 170 357 l 1,13,14
 120 370 120 370 86 409.5 c 128,-1,15
 52 449 52 449 52 506 c 2,16,-1
 52 518 l 2,17,18
 52 557 52 557 65.5 590.5 c 128,-1,19
 79 624 79 624 105 648 c 128,-1,20
 131 672 131 672 170 686 c 128,-1,21
 209 700 209 700 259 700 c 2,22,-1
 387 700 l 1,23,-1
 387 622 l 1,24,-1
 265 622 l 2,25,26
 206 622 206 622 169 592.5 c 128,-1,27
 132 563 132 563 132 512 c 2,28,-1
 132 506 l 2,29,30
 132 452 132 452 167 421 c 128,-1,31
 202 390 202 390 262 390 c 2,32,-1
 399 390 l 1,33,-1
 399 496 l 1,34,-1
 483 496 l 1,35,-1
 483 390 l 1,36,-1
 580 390 l 1,37,-1
 580 312 l 1,0,-1
399 78 m 1,38,-1
 399 312 l 1,39,-1
 262 312 l 2,40,41
 202 312 202 312 167 280.5 c 128,-1,42
 132 249 132 249 132 195 c 2,43,-1
 132 189 l 2,44,45
 132 137 132 137 169 107.5 c 128,-1,46
 206 78 206 78 265 78 c 2,47,-1
 399 78 l 1,38,-1
EndSplineSet
EndChar

StartChar: quotesingle
Encoding: 39 39 11
Width: 612
GlyphClass: 2
Flags: W
LayerCount: 2
Fore
SplineSet
236 644 m 0,0,1
 236 673 236 673 256.5 693.5 c 128,-1,2
 277 714 277 714 306 714 c 256,3,4
 335 714 335 714 355.5 693.5 c 128,-1,5
 376 673 376 673 376 644 c 0,6,7
 376 622 376 622 364 604.5 c 128,-1,8
 352 587 352 587 333 579 c 1,9,-1
 333 468 l 1,10,-1
 279 468 l 1,11,-1
 279 579 l 1,12,13
 260 587 260 587 248 604.5 c 128,-1,14
 236 622 236 622 236 644 c 0,0,1
EndSplineSet
EndChar

StartChar: parenleft
Encoding: 40 40 12
Width: 612
GlyphClass: 2
Flags: W
LayerCount: 2
Fore
SplineSet
546 -82 m 1,0,-1
 546 -156 l 1,1,-1
 510 -156 l 2,2,3
 440 -156 440 -156 376 -130 c 128,-1,4
 312 -104 312 -104 263 -54.5 c 128,-1,5
 214 -5 214 -5 185 65 c 128,-1,6
 156 135 156 135 156 224 c 2,7,-1
 156 476 l 2,8,9
 156 564 156 564 185 634.5 c 128,-1,10
 214 705 214 705 263 754.5 c 128,-1,11
 312 804 312 804 376 830 c 128,-1,12
 440 856 440 856 510 856 c 2,13,-1
 546 856 l 1,14,-1
 546 782 l 1,15,-1
 510 782 l 2,16,17
 456 782 456 782 406 760.5 c 128,-1,18
 356 739 356 739 318 699 c 128,-1,19
 280 659 280 659 257 601.5 c 128,-1,20
 234 544 234 544 234 472 c 2,21,-1
 234 228 l 2,22,23
 234 156 234 156 257 98.5 c 128,-1,24
 280 41 280 41 318 1 c 128,-1,25
 356 -39 356 -39 406 -60.5 c 128,-1,26
 456 -82 456 -82 510 -82 c 2,27,-1
 546 -82 l 1,0,-1
EndSplineSet
EndChar

StartChar: parenright
Encoding: 41 41 13
Width: 612
GlyphClass: 2
Flags: W
LayerCount: 2
Fore
SplineSet
102 -82 m 2,0,1
 156 -82 156 -82 206 -60.5 c 128,-1,2
 256 -39 256 -39 294 1 c 128,-1,3
 332 41 332 41 355 98.5 c 128,-1,4
 378 156 378 156 378 228 c 2,5,-1
 378 472 l 2,6,7
 378 544 378 544 355 601.5 c 128,-1,8
 332 659 332 659 294 699 c 128,-1,9
 256 739 256 739 206 760.5 c 128,-1,10
 156 782 156 782 102 782 c 2,11,-1
 66 782 l 1,12,-1
 66 856 l 1,13,-1
 102 856 l 2,14,15
 172 856 172 856 236 830 c 128,-1,16
 300 804 300 804 349 754.5 c 128,-1,17
 398 705 398 705 427 634.5 c 128,-1,18
 456 564 456 564 456 476 c 2,19,-1
 456 224 l 2,20,21
 456 135 456 135 427 65 c 128,-1,22
 398 -5 398 -5 349 -54.5 c 128,-1,23
 300 -104 300 -104 236 -130 c 128,-1,24
 172 -156 172 -156 102 -156 c 2,25,-1
 66 -156 l 1,26,-1
 66 -82 l 1,27,-1
 102 -82 l 2,0,1
EndSplineSet
EndChar

StartChar: asterisk
Encoding: 42 42 14
Width: 612
GlyphClass: 2
Flags: W
LayerCount: 2
Fore
SplineSet
507 500 m 1,0,-1
 419 412 l 1,1,-1
 369 384 l 1,2,-1
 374 372 l 1,3,-1
 419 386 l 1,4,-1
 554 386 l 1,5,-1
 554 314 l 1,6,-1
 419 314 l 1,7,-1
 374 328 l 1,8,-1
 369 316 l 1,9,-1
 419 288 l 1,10,-1
 507 200 l 1,11,-1
 456 149 l 1,12,-1
 368 237 l 1,13,-1
 340 287 l 1,14,-1
 328 282 l 1,15,-1
 342 237 l 1,16,-1
 342 102 l 1,17,-1
 270 102 l 1,18,-1
 270 237 l 1,19,-1
 284 282 l 1,20,-1
 272 287 l 1,21,-1
 244 237 l 1,22,-1
 156 149 l 1,23,-1
 105 200 l 1,24,-1
 193 288 l 1,25,-1
 243 316 l 1,26,-1
 238 328 l 1,27,-1
 193 314 l 1,28,-1
 58 314 l 1,29,-1
 58 386 l 1,30,-1
 193 386 l 1,31,-1
 238 372 l 1,32,-1
 243 384 l 1,33,-1
 193 412 l 1,34,-1
 105 500 l 1,35,-1
 156 551 l 1,36,-1
 244 463 l 1,37,-1
 272 413 l 1,38,-1
 284 418 l 1,39,-1
 270 463 l 1,40,-1
 270 598 l 1,41,-1
 342 598 l 1,42,-1
 342 463 l 1,43,-1
 328 418 l 1,44,-1
 340 413 l 1,45,-1
 368 463 l 1,46,-1
 456 551 l 1,47,-1
 507 500 l 1,0,-1
EndSplineSet
Substitution2: "'case' Case-Sensitive Forms in Latin lookup 31 subtable" asterisk.cap
Substitution2: "'case' Case-Sensitive Forms in Latin lookup 30 subtable" asterisk.cap
Substitution2: "'aalt' Access All Alternates in Latin lookup 0 subtable" asterisk.cap
EndChar

StartChar: plus
Encoding: 43 43 15
Width: 612
GlyphClass: 2
Flags: W
LayerCount: 2
Fore
SplineSet
97 386 m 1,0,-1
 270 386 l 1,1,-1
 270 559 l 1,2,-1
 342 559 l 1,3,-1
 342 386 l 1,4,-1
 515 386 l 1,5,-1
 515 314 l 1,6,-1
 342 314 l 1,7,-1
 342 141 l 1,8,-1
 270 141 l 1,9,-1
 270 314 l 1,10,-1
 97 314 l 1,11,-1
 97 386 l 1,0,-1
EndSplineSet
EndChar

StartChar: comma
Encoding: 44 44 16
Width: 612
GlyphClass: 2
Flags: W
LayerCount: 2
Fore
SplineSet
236 56 m 256,0,1
 236 85 236 85 256.5 105.5 c 128,-1,2
 277 126 277 126 306 126 c 256,3,4
 335 126 335 126 355.5 105.5 c 128,-1,5
 376 85 376 85 376 56 c 2,6,-1
 376 -42 l 2,7,8
 376 -76 376 -76 354.5 -98 c 128,-1,9
 333 -120 333 -120 299 -120 c 2,10,-1
 248 -120 l 1,11,-1
 248 -66 l 1,12,-1
 295 -66 l 2,13,14
 322 -66 322 -66 322 -36 c 2,15,-1
 322 -11 l 1,16,17
 314 -14 314 -14 305 -14 c 0,18,19
 277 -14 277 -14 256.5 6.5 c 128,-1,20
 236 27 236 27 236 56 c 256,0,1
EndSplineSet
EndChar

StartChar: hyphen
Encoding: 45 45 17
Width: 612
GlyphClass: 2
Flags: W
LayerCount: 2
Fore
SplineSet
156 296 m 1,0,-1
 456 296 l 1,1,-1
 456 224 l 1,2,-1
 156 224 l 1,3,-1
 156 296 l 1,0,-1
EndSplineSet
EndChar

StartChar: period
Encoding: 46 46 18
Width: 612
GlyphClass: 2
Flags: W
LayerCount: 2
Fore
SplineSet
236 56 m 256,0,1
 236 85 236 85 256.5 105.5 c 128,-1,2
 277 126 277 126 306 126 c 256,3,4
 335 126 335 126 355.5 105.5 c 128,-1,5
 376 85 376 85 376 56 c 256,6,7
 376 27 376 27 355.5 6.5 c 128,-1,8
 335 -14 335 -14 306 -14 c 256,9,10
 277 -14 277 -14 256.5 6.5 c 128,-1,11
 236 27 236 27 236 56 c 256,0,1
EndSplineSet
EndChar

StartChar: slash
Encoding: 47 47 19
Width: 612
GlyphClass: 2
Flags: W
LayerCount: 2
Fore
SplineSet
417 806 m 1,0,-1
 487 784 l 1,1,-1
 196 -106 l 1,2,-1
 125 -84 l 1,3,-1
 417 806 l 1,0,-1
EndSplineSet
Substitution2: "Single Substitution lookup 32 subtable" fraction
Substitution2: "'aalt' Access All Alternates in Latin lookup 0 subtable" fraction
EndChar

StartChar: zero
Encoding: 48 48 20
Width: 612
GlyphClass: 2
Flags: W
LayerCount: 2
Fore
SplineSet
60 428 m 2,0,1
 60 564 60 564 125 639 c 128,-1,2
 190 714 190 714 306 714 c 256,3,4
 422 714 422 714 487 639 c 128,-1,5
 552 564 552 564 552 428 c 2,6,-1
 552 272 l 2,7,8
 552 132 552 132 487 59 c 128,-1,9
 422 -14 422 -14 306 -14 c 256,10,11
 190 -14 190 -14 125 59 c 128,-1,12
 60 132 60 132 60 272 c 2,13,-1
 60 428 l 2,0,1
306 62 m 256,14,15
 387 62 387 62 427.5 118.5 c 128,-1,16
 468 175 468 175 468 278 c 2,17,-1
 468 422 l 2,18,19
 468 470 468 470 458 509.5 c 128,-1,20
 448 549 448 549 427.5 577.5 c 128,-1,21
 407 606 407 606 376.5 622 c 128,-1,22
 346 638 346 638 306 638 c 0,23,24
 265 638 265 638 235 622 c 128,-1,25
 205 606 205 606 184.5 577.5 c 128,-1,26
 164 549 164 549 154 509.5 c 128,-1,27
 144 470 144 470 144 422 c 2,28,-1
 144 278 l 2,29,30
 144 175 144 175 184.5 118.5 c 128,-1,31
 225 62 225 62 306 62 c 256,14,15
242 350 m 256,32,33
 242 376 242 376 261 395 c 128,-1,34
 280 414 280 414 306 414 c 256,35,36
 332 414 332 414 351 395 c 128,-1,37
 370 376 370 376 370 350 c 256,38,39
 370 324 370 324 351 305 c 128,-1,40
 332 286 332 286 306 286 c 256,41,42
 280 286 280 286 261 305 c 128,-1,43
 242 324 242 324 242 350 c 256,32,33
EndSplineSet
Substitution2: "Single Substitution lookup 35 subtable" uni2080
Substitution2: "'onum' Oldstyle Figures in Latin lookup 25 subtable" zero.tosn
Substitution2: "'onum' Oldstyle Figures in Latin lookup 24 subtable" zero.tosn
Substitution2: "'dnom' Denominators in Latin lookup 23 subtable" uni2080
Substitution2: "'dnom' Denominators in Latin lookup 22 subtable" uni2080
Substitution2: "'numr' Numerators in Latin lookup 21 subtable" uni2070
Substitution2: "'numr' Numerators in Latin lookup 20 subtable" uni2070
Substitution2: "'sinf' Scientific Inferiors in Latin lookup 19 subtable" uni2080
Substitution2: "'sinf' Scientific Inferiors in Latin lookup 18 subtable" uni2080
Substitution2: "'sups' Superscript in Latin lookup 17 subtable" uni2070
Substitution2: "'sups' Superscript in Latin lookup 16 subtable" uni2070
Substitution2: "'subs' Subscript in Latin lookup 15 subtable" uni2080
Substitution2: "'subs' Subscript in Latin lookup 14 subtable" uni2080
AlternateSubs2: "'aalt' Access All Alternates in Latin lookup 1 subtable" uni2070 uni2080 zero.tosn
EndChar

StartChar: one
Encoding: 49 49 21
Width: 612
GlyphClass: 2
Flags: W
LayerCount: 2
Fore
SplineSet
269 78 m 1,0,-1
 269 663 l 1,1,-1
 257 663 l 1,2,-1
 142 400 l 1,3,-1
 59 400 l 1,4,-1
 59 406 l 1,5,-1
 190 700 l 1,6,-1
 353 700 l 1,7,-1
 353 78 l 1,8,-1
 551 78 l 1,9,-1
 551 0 l 1,10,-1
 71 0 l 1,11,-1
 71 78 l 1,12,-1
 269 78 l 1,0,-1
EndSplineSet
Substitution2: "Single Substitution lookup 35 subtable" uni2081
Substitution2: "'onum' Oldstyle Figures in Latin lookup 25 subtable" one.tosn
Substitution2: "'onum' Oldstyle Figures in Latin lookup 24 subtable" one.tosn
Substitution2: "'dnom' Denominators in Latin lookup 23 subtable" uni2081
Substitution2: "'dnom' Denominators in Latin lookup 22 subtable" uni2081
Substitution2: "'numr' Numerators in Latin lookup 21 subtable" onesuperior
Substitution2: "'numr' Numerators in Latin lookup 20 subtable" onesuperior
Substitution2: "'sinf' Scientific Inferiors in Latin lookup 19 subtable" uni2081
Substitution2: "'sinf' Scientific Inferiors in Latin lookup 18 subtable" uni2081
Substitution2: "'sups' Superscript in Latin lookup 17 subtable" onesuperior
Substitution2: "'sups' Superscript in Latin lookup 16 subtable" onesuperior
Substitution2: "'subs' Subscript in Latin lookup 15 subtable" uni2081
Substitution2: "'subs' Subscript in Latin lookup 14 subtable" uni2081
AlternateSubs2: "'aalt' Access All Alternates in Latin lookup 1 subtable" one.tosn onesuperior uni2081
EndChar

StartChar: two
Encoding: 50 50 22
Width: 612
GlyphClass: 2
Flags: W
LayerCount: 2
Fore
SplineSet
544 78 m 1,0,-1
 544 0 l 1,1,-1
 70 0 l 1,2,-1
 70 120 l 2,3,4
 70 168 70 168 86 203.5 c 128,-1,5
 102 239 102 239 131.5 264.5 c 128,-1,6
 161 290 161 290 203 307 c 128,-1,7
 245 324 245 324 298 336 c 0,8,9
 387 356 387 356 426.5 393 c 128,-1,10
 466 430 466 430 466 484 c 2,11,-1
 466 490 l 2,12,13
 466 517 466 517 457 543 c 128,-1,14
 448 569 448 569 429 590 c 128,-1,15
 410 611 410 611 380.5 623.5 c 128,-1,16
 351 636 351 636 310 636 c 0,17,18
 233 636 233 636 190.5 589 c 128,-1,19
 148 542 148 542 148 464 c 2,20,-1
 148 420 l 1,21,-1
 64 420 l 1,22,-1
 64 470 l 2,23,24
 64 518 64 518 80 562 c 128,-1,25
 96 606 96 606 127 640 c 128,-1,26
 158 674 158 674 204 694 c 128,-1,27
 250 714 250 714 310 714 c 0,28,29
 371 714 371 714 416 695.5 c 128,-1,30
 461 677 461 677 491 646.5 c 128,-1,31
 521 616 521 616 535.5 577.5 c 128,-1,32
 550 539 550 539 550 499 c 2,33,-1
 550 481 l 2,34,35
 550 401 550 401 500 344.5 c 128,-1,36
 450 288 450 288 340 264 c 0,37,38
 244 243 244 243 199 208.5 c 128,-1,39
 154 174 154 174 154 108 c 2,40,-1
 154 78 l 1,41,-1
 544 78 l 1,0,-1
EndSplineSet
Substitution2: "Single Substitution lookup 35 subtable" uni2082
Substitution2: "'onum' Oldstyle Figures in Latin lookup 25 subtable" two.tosn
Substitution2: "'onum' Oldstyle Figures in Latin lookup 24 subtable" two.tosn
Substitution2: "'dnom' Denominators in Latin lookup 23 subtable" uni2082
Substitution2: "'dnom' Denominators in Latin lookup 22 subtable" uni2082
Substitution2: "'numr' Numerators in Latin lookup 21 subtable" twosuperior
Substitution2: "'numr' Numerators in Latin lookup 20 subtable" twosuperior
Substitution2: "'sinf' Scientific Inferiors in Latin lookup 19 subtable" uni2082
Substitution2: "'sinf' Scientific Inferiors in Latin lookup 18 subtable" uni2082
Substitution2: "'sups' Superscript in Latin lookup 17 subtable" twosuperior
Substitution2: "'sups' Superscript in Latin lookup 16 subtable" twosuperior
Substitution2: "'subs' Subscript in Latin lookup 15 subtable" uni2082
Substitution2: "'subs' Subscript in Latin lookup 14 subtable" uni2082
AlternateSubs2: "'aalt' Access All Alternates in Latin lookup 1 subtable" two.tosn twosuperior uni2082
EndChar

StartChar: three
Encoding: 51 51 23
Width: 612
GlyphClass: 2
Flags: W
LayerCount: 2
Fore
SplineSet
237 348 m 1,0,-1
 237 464 l 1,1,-1
 465 610 l 1,2,-1
 465 622 l 1,3,-1
 69 622 l 1,4,-1
 69 700 l 1,5,-1
 537 700 l 1,6,-1
 537 572 l 1,7,-1
 309 426 l 1,8,-1
 309 414 l 1,9,-1
 349 414 l 2,10,11
 389 414 389 414 426 401 c 128,-1,12
 463 388 463 388 491.5 363 c 128,-1,13
 520 338 520 338 537.5 301.5 c 128,-1,14
 555 265 555 265 555 217 c 2,15,-1
 555 199 l 2,16,17
 555 154 555 154 537 115 c 128,-1,18
 519 76 519 76 487 47.5 c 128,-1,19
 455 19 455 19 411.5 2.5 c 128,-1,20
 368 -14 368 -14 317 -14 c 0,21,22
 258 -14 258 -14 211 4 c 128,-1,23
 164 22 164 22 131 53.5 c 128,-1,24
 98 85 98 85 80.5 127.5 c 128,-1,25
 63 170 63 170 63 218 c 2,26,-1
 63 272 l 1,27,-1
 147 272 l 1,28,-1
 147 224 l 2,29,30
 147 186 147 186 159.5 156.5 c 128,-1,31
 172 127 172 127 194.5 106.5 c 128,-1,32
 217 86 217 86 248 75 c 128,-1,33
 279 64 279 64 315 64 c 0,34,35
 348 64 348 64 376.5 75 c 128,-1,36
 405 86 405 86 426 105.5 c 128,-1,37
 447 125 447 125 459 151.5 c 128,-1,38
 471 178 471 178 471 208 c 2,39,-1
 471 214 l 2,40,41
 471 277 471 277 431 312.5 c 128,-1,42
 391 348 391 348 331 348 c 2,43,-1
 237 348 l 1,0,-1
EndSplineSet
Substitution2: "Single Substitution lookup 35 subtable" uni2083
Substitution2: "'onum' Oldstyle Figures in Latin lookup 25 subtable" three.tosn
Substitution2: "'onum' Oldstyle Figures in Latin lookup 24 subtable" three.tosn
Substitution2: "'dnom' Denominators in Latin lookup 23 subtable" uni2083
Substitution2: "'dnom' Denominators in Latin lookup 22 subtable" uni2083
Substitution2: "'numr' Numerators in Latin lookup 21 subtable" threesuperior
Substitution2: "'numr' Numerators in Latin lookup 20 subtable" threesuperior
Substitution2: "'sinf' Scientific Inferiors in Latin lookup 19 subtable" uni2083
Substitution2: "'sinf' Scientific Inferiors in Latin lookup 18 subtable" uni2083
Substitution2: "'sups' Superscript in Latin lookup 17 subtable" threesuperior
Substitution2: "'sups' Superscript in Latin lookup 16 subtable" threesuperior
Substitution2: "'subs' Subscript in Latin lookup 15 subtable" uni2083
Substitution2: "'subs' Subscript in Latin lookup 14 subtable" uni2083
AlternateSubs2: "'aalt' Access All Alternates in Latin lookup 1 subtable" three.tosn threesuperior uni2083
EndChar

StartChar: four
Encoding: 52 52 24
Width: 612
GlyphClass: 2
Flags: W
LayerCount: 2
Fore
SplineSet
294 700 m 1,0,-1
 457 700 l 1,1,-1
 457 210 l 1,2,-1
 565 210 l 1,3,-1
 565 132 l 1,4,-1
 457 132 l 1,5,-1
 457 0 l 1,6,-1
 373 0 l 1,7,-1
 373 132 l 1,8,-1
 49 132 l 1,9,-1
 49 248 l 1,10,-1
 294 700 l 1,0,-1
121 222 m 1,11,-1
 121 210 l 1,12,-1
 373 210 l 1,13,-1
 373 664 l 1,14,-1
 361 664 l 1,15,-1
 121 222 l 1,11,-1
EndSplineSet
Substitution2: "Single Substitution lookup 35 subtable" uni2084
Substitution2: "'onum' Oldstyle Figures in Latin lookup 25 subtable" four.tosn
Substitution2: "'onum' Oldstyle Figures in Latin lookup 24 subtable" four.tosn
Substitution2: "'dnom' Denominators in Latin lookup 23 subtable" uni2084
Substitution2: "'dnom' Denominators in Latin lookup 22 subtable" uni2084
Substitution2: "'numr' Numerators in Latin lookup 21 subtable" uni2074
Substitution2: "'numr' Numerators in Latin lookup 20 subtable" uni2074
Substitution2: "'sinf' Scientific Inferiors in Latin lookup 19 subtable" uni2084
Substitution2: "'sinf' Scientific Inferiors in Latin lookup 18 subtable" uni2084
Substitution2: "'sups' Superscript in Latin lookup 17 subtable" uni2074
Substitution2: "'sups' Superscript in Latin lookup 16 subtable" uni2074
Substitution2: "'subs' Subscript in Latin lookup 15 subtable" uni2084
Substitution2: "'subs' Subscript in Latin lookup 14 subtable" uni2084
AlternateSubs2: "'aalt' Access All Alternates in Latin lookup 1 subtable" four.tosn uni2074 uni2084
EndChar

StartChar: five
Encoding: 53 53 25
Width: 612
GlyphClass: 2
Flags: W
LayerCount: 2
Fore
SplineSet
78 330 m 1,0,-1
 78 700 l 1,1,-1
 516 700 l 1,2,-1
 516 622 l 1,3,-1
 160 622 l 1,4,-1
 160 372 l 1,5,-1
 172 372 l 1,6,7
 182 392 182 392 198 410.5 c 128,-1,8
 214 429 214 429 235.5 443 c 128,-1,9
 257 457 257 457 284 465.5 c 128,-1,10
 311 474 311 474 344 474 c 0,11,12
 392 474 392 474 432.5 458 c 128,-1,13
 473 442 473 442 502 413 c 128,-1,14
 531 384 531 384 547.5 343 c 128,-1,15
 564 302 564 302 564 252 c 2,16,-1
 564 234 l 2,17,18
 564 184 564 184 548 139.5 c 128,-1,19
 532 95 532 95 501 60.5 c 128,-1,20
 470 26 470 26 424 6 c 128,-1,21
 378 -14 378 -14 318 -14 c 0,22,23
 257 -14 257 -14 210 4 c 128,-1,24
 163 22 163 22 131 54 c 128,-1,25
 99 86 99 86 82.5 129.5 c 128,-1,26
 66 173 66 173 66 224 c 2,27,-1
 66 252 l 1,28,-1
 150 252 l 1,29,-1
 150 230 l 2,30,31
 150 147 150 147 196.5 105.5 c 128,-1,32
 243 64 243 64 318 64 c 0,33,34
 358 64 358 64 388.5 78.5 c 128,-1,35
 419 93 419 93 439.5 117.5 c 128,-1,36
 460 142 460 142 470 174.5 c 128,-1,37
 480 207 480 207 480 242 c 2,38,-1
 480 248 l 2,39,40
 480 279 480 279 469.5 306 c 128,-1,41
 459 333 459 333 440.5 353 c 128,-1,42
 422 373 422 373 395.5 384.5 c 128,-1,43
 369 396 369 396 338 396 c 0,44,45
 317 396 317 396 299.5 390 c 128,-1,46
 282 384 282 384 269 374.5 c 128,-1,47
 256 365 256 365 247.5 353 c 128,-1,48
 239 341 239 341 236 330 c 1,49,-1
 78 330 l 1,0,-1
EndSplineSet
Substitution2: "Single Substitution lookup 35 subtable" uni2085
Substitution2: "'onum' Oldstyle Figures in Latin lookup 25 subtable" five.tosn
Substitution2: "'onum' Oldstyle Figures in Latin lookup 24 subtable" five.tosn
Substitution2: "'dnom' Denominators in Latin lookup 23 subtable" uni2085
Substitution2: "'dnom' Denominators in Latin lookup 22 subtable" uni2085
Substitution2: "'numr' Numerators in Latin lookup 21 subtable" uni2075
Substitution2: "'numr' Numerators in Latin lookup 20 subtable" uni2075
Substitution2: "'sinf' Scientific Inferiors in Latin lookup 19 subtable" uni2085
Substitution2: "'sinf' Scientific Inferiors in Latin lookup 18 subtable" uni2085
Substitution2: "'sups' Superscript in Latin lookup 17 subtable" uni2075
Substitution2: "'sups' Superscript in Latin lookup 16 subtable" uni2075
Substitution2: "'subs' Subscript in Latin lookup 15 subtable" uni2085
Substitution2: "'subs' Subscript in Latin lookup 14 subtable" uni2085
AlternateSubs2: "'aalt' Access All Alternates in Latin lookup 1 subtable" five.tosn uni2075 uni2085
EndChar

StartChar: six
Encoding: 54 54 26
Width: 612
GlyphClass: 2
Flags: W
LayerCount: 2
Fore
SplineSet
453 496 m 1,0,1
 453 561 453 561 413 600.5 c 128,-1,2
 373 640 373 640 302 640 c 0,3,4
 268 640 268 640 239.5 628 c 128,-1,5
 211 616 211 616 190.5 593.5 c 128,-1,6
 170 571 170 571 158.5 540 c 128,-1,7
 147 509 147 509 147 472 c 2,8,-1
 147 368 l 1,9,-1
 159 368 l 1,10,11
 183 412 183 412 227.5 437 c 128,-1,12
 272 462 272 462 327 462 c 0,13,14
 375 462 375 462 416 446.5 c 128,-1,15
 457 431 457 431 486.5 401 c 128,-1,16
 516 371 516 371 532.5 328.5 c 128,-1,17
 549 286 549 286 549 232 c 2,18,-1
 549 220 l 2,19,20
 549 168 549 168 530.5 125 c 128,-1,21
 512 82 512 82 479.5 51 c 128,-1,22
 447 20 447 20 402.5 3 c 128,-1,23
 358 -14 358 -14 306 -14 c 256,24,25
 254 -14 254 -14 209.5 3 c 128,-1,26
 165 20 165 20 132.5 50.5 c 128,-1,27
 100 81 100 81 81.5 123.5 c 128,-1,28
 63 166 63 166 63 217 c 2,29,-1
 63 472 l 2,30,31
 63 527 63 527 82 572 c 128,-1,32
 101 617 101 617 134 648.5 c 128,-1,33
 167 680 167 680 210.5 697 c 128,-1,34
 254 714 254 714 304 714 c 256,35,36
 354 714 354 714 397 699 c 128,-1,37
 440 684 440 684 471 655.5 c 128,-1,38
 502 627 502 627 519.5 586.5 c 128,-1,39
 537 546 537 546 537 496 c 1,40,-1
 453 496 l 1,0,1
306 60 m 256,41,42
 342 60 342 60 371.5 71.5 c 128,-1,43
 401 83 401 83 422 104 c 128,-1,44
 443 125 443 125 454 154 c 128,-1,45
 465 183 465 183 465 218 c 2,46,-1
 465 230 l 2,47,48
 465 265 465 265 453 294 c 128,-1,49
 441 323 441 323 420 344 c 128,-1,50
 399 365 399 365 369.5 376.5 c 128,-1,51
 340 388 340 388 306 388 c 256,52,53
 272 388 272 388 243 376 c 128,-1,54
 214 364 214 364 192.5 343 c 128,-1,55
 171 322 171 322 159 294 c 128,-1,56
 147 266 147 266 147 234 c 2,57,-1
 147 215 l 2,58,59
 147 182 147 182 158 153.5 c 128,-1,60
 169 125 169 125 190 104 c 128,-1,61
 211 83 211 83 240.5 71.5 c 128,-1,62
 270 60 270 60 306 60 c 256,41,42
EndSplineSet
Substitution2: "Single Substitution lookup 35 subtable" uni2086
Substitution2: "'onum' Oldstyle Figures in Latin lookup 25 subtable" six.tosn
Substitution2: "'onum' Oldstyle Figures in Latin lookup 24 subtable" six.tosn
Substitution2: "'dnom' Denominators in Latin lookup 23 subtable" uni2086
Substitution2: "'dnom' Denominators in Latin lookup 22 subtable" uni2086
Substitution2: "'numr' Numerators in Latin lookup 21 subtable" uni2076
Substitution2: "'numr' Numerators in Latin lookup 20 subtable" uni2076
Substitution2: "'sinf' Scientific Inferiors in Latin lookup 19 subtable" uni2086
Substitution2: "'sinf' Scientific Inferiors in Latin lookup 18 subtable" uni2086
Substitution2: "'sups' Superscript in Latin lookup 17 subtable" uni2076
Substitution2: "'sups' Superscript in Latin lookup 16 subtable" uni2076
Substitution2: "'subs' Subscript in Latin lookup 15 subtable" uni2086
Substitution2: "'subs' Subscript in Latin lookup 14 subtable" uni2086
AlternateSubs2: "'aalt' Access All Alternates in Latin lookup 1 subtable" six.tosn uni2076 uni2086
EndChar

StartChar: seven
Encoding: 55 55 27
Width: 612
GlyphClass: 2
Flags: W
LayerCount: 2
Fore
SplineSet
72 700 m 1,0,-1
 540 700 l 1,1,-1
 540 578 l 1,2,-1
 245 132 l 2,3,4
 224 100 224 100 213 77 c 128,-1,5
 202 54 202 54 202 30 c 2,6,-1
 202 0 l 1,7,-1
 120 0 l 1,8,-1
 120 36 l 2,9,10
 120 54 120 54 123.5 70 c 128,-1,11
 127 86 127 86 134.5 102.5 c 128,-1,12
 142 119 142 119 153.5 137.5 c 128,-1,13
 165 156 165 156 181 180 c 2,14,-1
 468 610 l 1,15,-1
 468 622 l 1,16,-1
 72 622 l 1,17,-1
 72 700 l 1,0,-1
EndSplineSet
Substitution2: "Single Substitution lookup 35 subtable" uni2087
Substitution2: "'onum' Oldstyle Figures in Latin lookup 25 subtable" seven.tosn
Substitution2: "'onum' Oldstyle Figures in Latin lookup 24 subtable" seven.tosn
Substitution2: "'dnom' Denominators in Latin lookup 23 subtable" uni2087
Substitution2: "'dnom' Denominators in Latin lookup 22 subtable" uni2087
Substitution2: "'numr' Numerators in Latin lookup 21 subtable" uni2077
Substitution2: "'numr' Numerators in Latin lookup 20 subtable" uni2077
Substitution2: "'sinf' Scientific Inferiors in Latin lookup 19 subtable" uni2087
Substitution2: "'sinf' Scientific Inferiors in Latin lookup 18 subtable" uni2087
Substitution2: "'sups' Superscript in Latin lookup 17 subtable" uni2077
Substitution2: "'sups' Superscript in Latin lookup 16 subtable" uni2077
Substitution2: "'subs' Subscript in Latin lookup 15 subtable" uni2087
Substitution2: "'subs' Subscript in Latin lookup 14 subtable" uni2087
AlternateSubs2: "'aalt' Access All Alternates in Latin lookup 1 subtable" seven.tosn uni2077 uni2087
EndChar

StartChar: eight
Encoding: 56 56 28
Width: 612
GlyphClass: 2
Flags: W
LayerCount: 2
Fore
SplineSet
297 -14 m 2,0,1
 244 -14 244 -14 201 0.5 c 128,-1,2
 158 15 158 15 127 40.5 c 128,-1,3
 96 66 96 66 79.5 100.5 c 128,-1,4
 63 135 63 135 63 176 c 2,5,-1
 63 188 l 2,6,7
 63 224 63 224 74 252 c 128,-1,8
 85 280 85 280 103 301 c 128,-1,9
 121 322 121 322 144.5 336 c 128,-1,10
 168 350 168 350 193 357 c 1,11,-1
 193 369 l 1,12,13
 170 376 170 376 150 390 c 128,-1,14
 130 404 130 404 114.5 423 c 128,-1,15
 99 442 99 442 90 466.5 c 128,-1,16
 81 491 81 491 81 520 c 2,17,-1
 81 532 l 2,18,19
 81 572 81 572 97 605.5 c 128,-1,20
 113 639 113 639 142.5 663 c 128,-1,21
 172 687 172 687 212.5 700.5 c 128,-1,22
 253 714 253 714 303 714 c 2,23,-1
 309 714 l 2,24,25
 358 714 358 714 399 700.5 c 128,-1,26
 440 687 440 687 469.5 663 c 128,-1,27
 499 639 499 639 515 605.5 c 128,-1,28
 531 572 531 572 531 532 c 2,29,-1
 531 520 l 2,30,31
 531 491 531 491 522 466.5 c 128,-1,32
 513 442 513 442 497.5 423 c 128,-1,33
 482 404 482 404 461.5 390 c 128,-1,34
 441 376 441 376 419 369 c 1,35,-1
 419 357 l 1,36,37
 444 350 444 350 467.5 336 c 128,-1,38
 491 322 491 322 509 301 c 128,-1,39
 527 280 527 280 538 252 c 128,-1,40
 549 224 549 224 549 188 c 2,41,-1
 549 176 l 2,42,43
 549 135 549 135 532.5 100.5 c 128,-1,44
 516 66 516 66 485 40.5 c 128,-1,45
 454 15 454 15 411 0.5 c 128,-1,46
 368 -14 368 -14 315 -14 c 2,47,-1
 297 -14 l 2,0,1
312 62 m 2,48,49
 380 62 380 62 422.5 97 c 128,-1,50
 465 132 465 132 465 188 c 2,51,-1
 465 194 l 2,52,53
 465 256 465 256 421.5 290 c 128,-1,54
 378 324 378 324 309 324 c 2,55,-1
 303 324 l 2,56,57
 234 324 234 324 190.5 290 c 128,-1,58
 147 256 147 256 147 194 c 2,59,-1
 147 188 l 2,60,61
 147 132 147 132 189.5 97 c 128,-1,62
 232 62 232 62 300 62 c 2,63,-1
 312 62 l 2,48,49
306 402 m 256,64,65
 369 402 369 402 408 435 c 128,-1,66
 447 468 447 468 447 518 c 2,67,-1
 447 524 l 2,68,69
 447 575 447 575 408.5 606.5 c 128,-1,70
 370 638 370 638 306 638 c 256,71,72
 242 638 242 638 203.5 606.5 c 128,-1,73
 165 575 165 575 165 524 c 2,74,-1
 165 518 l 2,75,76
 165 468 165 468 204 435 c 128,-1,77
 243 402 243 402 306 402 c 256,64,65
EndSplineSet
Substitution2: "Single Substitution lookup 35 subtable" uni2088
Substitution2: "'onum' Oldstyle Figures in Latin lookup 25 subtable" eight.tosn
Substitution2: "'onum' Oldstyle Figures in Latin lookup 24 subtable" eight.tosn
Substitution2: "'dnom' Denominators in Latin lookup 23 subtable" uni2088
Substitution2: "'dnom' Denominators in Latin lookup 22 subtable" uni2088
Substitution2: "'numr' Numerators in Latin lookup 21 subtable" uni2078
Substitution2: "'numr' Numerators in Latin lookup 20 subtable" uni2078
Substitution2: "'sinf' Scientific Inferiors in Latin lookup 19 subtable" uni2088
Substitution2: "'sinf' Scientific Inferiors in Latin lookup 18 subtable" uni2088
Substitution2: "'sups' Superscript in Latin lookup 17 subtable" uni2078
Substitution2: "'sups' Superscript in Latin lookup 16 subtable" uni2078
Substitution2: "'subs' Subscript in Latin lookup 15 subtable" uni2088
Substitution2: "'subs' Subscript in Latin lookup 14 subtable" uni2088
AlternateSubs2: "'aalt' Access All Alternates in Latin lookup 1 subtable" eight.tosn uni2078 uni2088
EndChar

StartChar: nine
Encoding: 57 57 29
Width: 612
GlyphClass: 2
Flags: W
LayerCount: 2
Fore
SplineSet
159 204 m 1,0,1
 159 139 159 139 199 99.5 c 128,-1,2
 239 60 239 60 310 60 c 0,3,4
 344 60 344 60 372.5 72 c 128,-1,5
 401 84 401 84 421.5 106.5 c 128,-1,6
 442 129 442 129 453.5 159.5 c 128,-1,7
 465 190 465 190 465 228 c 2,8,-1
 465 332 l 1,9,-1
 453 332 l 1,10,11
 430 288 430 288 387 263 c 128,-1,12
 344 238 344 238 287 238 c 0,13,14
 238 238 238 238 197 253 c 128,-1,15
 156 268 156 268 126 297.5 c 128,-1,16
 96 327 96 327 79.5 369 c 128,-1,17
 63 411 63 411 63 465 c 2,18,-1
 63 477 l 2,19,20
 63 529 63 529 81 572.5 c 128,-1,21
 99 616 99 616 131.5 647.5 c 128,-1,22
 164 679 164 679 208.5 696.5 c 128,-1,23
 253 714 253 714 306 714 c 256,24,25
 359 714 359 714 403.5 696.5 c 128,-1,26
 448 679 448 679 480.5 648 c 128,-1,27
 513 617 513 617 531 574 c 128,-1,28
 549 531 549 531 549 480 c 2,29,-1
 549 228 l 2,30,31
 549 172 549 172 530.5 127.5 c 128,-1,32
 512 83 512 83 479.5 51.5 c 128,-1,33
 447 20 447 20 403 3 c 128,-1,34
 359 -14 359 -14 308 -14 c 256,35,36
 257 -14 257 -14 214 1 c 128,-1,37
 171 16 171 16 140 44.5 c 128,-1,38
 109 73 109 73 92 113.5 c 128,-1,39
 75 154 75 154 75 204 c 1,40,-1
 159 204 l 1,0,1
306 640 m 256,41,42
 270 640 270 640 240.5 628 c 128,-1,43
 211 616 211 616 190 594 c 128,-1,44
 169 572 169 572 158 542.5 c 128,-1,45
 147 513 147 513 147 479 c 2,46,-1
 147 467 l 2,47,48
 147 432 147 432 159 403.5 c 128,-1,49
 171 375 171 375 192 354.5 c 128,-1,50
 213 334 213 334 242 323 c 128,-1,51
 271 312 271 312 306 312 c 0,52,53
 340 312 340 312 369 323.5 c 128,-1,54
 398 335 398 335 419.5 355 c 128,-1,55
 441 375 441 375 453 403 c 128,-1,56
 465 431 465 431 465 463 c 2,57,-1
 465 482 l 2,58,59
 465 515 465 515 454 544 c 128,-1,60
 443 573 443 573 422 594.5 c 128,-1,61
 401 616 401 616 371.5 628 c 128,-1,62
 342 640 342 640 306 640 c 256,41,42
EndSplineSet
Substitution2: "Single Substitution lookup 35 subtable" uni2089
Substitution2: "'onum' Oldstyle Figures in Latin lookup 25 subtable" nine.tosn
Substitution2: "'onum' Oldstyle Figures in Latin lookup 24 subtable" nine.tosn
Substitution2: "'dnom' Denominators in Latin lookup 23 subtable" uni2089
Substitution2: "'dnom' Denominators in Latin lookup 22 subtable" uni2089
Substitution2: "'numr' Numerators in Latin lookup 21 subtable" uni2079
Substitution2: "'numr' Numerators in Latin lookup 20 subtable" uni2079
Substitution2: "'sinf' Scientific Inferiors in Latin lookup 19 subtable" uni2089
Substitution2: "'sinf' Scientific Inferiors in Latin lookup 18 subtable" uni2089
Substitution2: "'sups' Superscript in Latin lookup 17 subtable" uni2079
Substitution2: "'sups' Superscript in Latin lookup 16 subtable" uni2079
Substitution2: "'subs' Subscript in Latin lookup 15 subtable" uni2089
Substitution2: "'subs' Subscript in Latin lookup 14 subtable" uni2089
AlternateSubs2: "'aalt' Access All Alternates in Latin lookup 1 subtable" nine.tosn uni2079 uni2089
EndChar

StartChar: colon
Encoding: 58 58 30
Width: 612
GlyphClass: 2
Flags: W
LayerCount: 2
Fore
SplineSet
236 56 m 256,0,1
 236 85 236 85 256.5 105.5 c 128,-1,2
 277 126 277 126 306 126 c 256,3,4
 335 126 335 126 355.5 105.5 c 128,-1,5
 376 85 376 85 376 56 c 256,6,7
 376 27 376 27 355.5 6.5 c 128,-1,8
 335 -14 335 -14 306 -14 c 256,9,10
 277 -14 277 -14 256.5 6.5 c 128,-1,11
 236 27 236 27 236 56 c 256,0,1
236 440 m 256,12,13
 236 469 236 469 256.5 489.5 c 128,-1,14
 277 510 277 510 306 510 c 256,15,16
 335 510 335 510 355.5 489.5 c 128,-1,17
 376 469 376 469 376 440 c 256,18,19
 376 411 376 411 355.5 390.5 c 128,-1,20
 335 370 335 370 306 370 c 256,21,22
 277 370 277 370 256.5 390.5 c 128,-1,23
 236 411 236 411 236 440 c 256,12,13
EndSplineSet
EndChar

StartChar: semicolon
Encoding: 59 59 31
Width: 612
GlyphClass: 2
Flags: W
LayerCount: 2
Fore
SplineSet
236 56 m 256,0,1
 236 85 236 85 256.5 105.5 c 128,-1,2
 277 126 277 126 306 126 c 256,3,4
 335 126 335 126 355.5 105.5 c 128,-1,5
 376 85 376 85 376 56 c 2,6,-1
 376 -42 l 2,7,8
 376 -76 376 -76 354.5 -98 c 128,-1,9
 333 -120 333 -120 299 -120 c 2,10,-1
 248 -120 l 1,11,-1
 248 -66 l 1,12,-1
 295 -66 l 2,13,14
 322 -66 322 -66 322 -36 c 2,15,-1
 322 -11 l 1,16,17
 314 -14 314 -14 305 -14 c 0,18,19
 277 -14 277 -14 256.5 6.5 c 128,-1,20
 236 27 236 27 236 56 c 256,0,1
236 440 m 256,21,22
 236 469 236 469 256.5 489.5 c 128,-1,23
 277 510 277 510 306 510 c 256,24,25
 335 510 335 510 355.5 489.5 c 128,-1,26
 376 469 376 469 376 440 c 256,27,28
 376 411 376 411 355.5 390.5 c 128,-1,29
 335 370 335 370 306 370 c 256,30,31
 277 370 277 370 256.5 390.5 c 128,-1,32
 236 411 236 411 236 440 c 256,21,22
EndSplineSet
EndChar

StartChar: less
Encoding: 60 60 32
Width: 612
GlyphClass: 2
Flags: W
LayerCount: 2
Fore
SplineSet
97 274 m 1,0,-1
 97 426 l 1,1,-1
 515 570 l 1,2,-1
 515 486 l 1,3,-1
 127 356 l 1,4,-1
 127 344 l 1,5,-1
 515 214 l 1,6,-1
 515 130 l 1,7,-1
 97 274 l 1,0,-1
EndSplineSet
EndChar

StartChar: equal
Encoding: 61 61 33
Width: 612
GlyphClass: 2
Flags: W
LayerCount: 2
Fore
SplineSet
97 458 m 1,0,-1
 515 458 l 1,1,-1
 515 386 l 1,2,-1
 97 386 l 1,3,-1
 97 458 l 1,0,-1
97 314 m 1,4,-1
 515 314 l 1,5,-1
 515 242 l 1,6,-1
 97 242 l 1,7,-1
 97 314 l 1,4,-1
EndSplineSet
EndChar

StartChar: greater
Encoding: 62 62 34
Width: 612
GlyphClass: 2
Flags: W
LayerCount: 2
Fore
SplineSet
97 130 m 1,0,-1
 97 214 l 1,1,-1
 485 344 l 1,2,-1
 485 356 l 1,3,-1
 97 486 l 1,4,-1
 97 570 l 1,5,-1
 515 426 l 1,6,-1
 515 274 l 1,7,-1
 97 130 l 1,0,-1
EndSplineSet
EndChar

StartChar: question
Encoding: 63 63 35
Width: 612
GlyphClass: 2
Flags: W
LayerCount: 2
Fore
SplineSet
352 366 m 2,0,1
 397 366 397 366 426.5 399 c 128,-1,2
 456 432 456 432 456 486 c 2,3,-1
 456 492 l 2,4,5
 456 522 456 522 445.5 548 c 128,-1,6
 435 574 435 574 416 593.5 c 128,-1,7
 397 613 397 613 370 624.5 c 128,-1,8
 343 636 343 636 310 636 c 0,9,10
 238 636 238 636 197 592 c 128,-1,11
 156 548 156 548 156 476 c 2,12,-1
 156 434 l 1,13,-1
 72 434 l 1,14,-1
 72 482 l 2,15,16
 72 528 72 528 87.5 570 c 128,-1,17
 103 612 103 612 133 644 c 128,-1,18
 163 676 163 676 208 695 c 128,-1,19
 253 714 253 714 312 714 c 0,20,21
 362 714 362 714 404 697 c 128,-1,22
 446 680 446 680 476 650.5 c 128,-1,23
 506 621 506 621 523 582.5 c 128,-1,24
 540 544 540 544 540 501 c 2,25,-1
 540 483 l 2,26,27
 540 444 540 444 526.5 408.5 c 128,-1,28
 513 373 513 373 489 347 c 128,-1,29
 465 321 465 321 432.5 305.5 c 128,-1,30
 400 290 400 290 362 290 c 2,31,-1
 348 290 l 2,32,33
 320 290 320 290 320 260 c 2,34,-1
 320 186 l 1,35,-1
 240 186 l 1,36,-1
 240 280 l 2,37,38
 240 318 240 318 264 342 c 128,-1,39
 288 366 288 366 326 366 c 2,40,-1
 352 366 l 2,0,1
211 56 m 256,41,42
 211 85 211 85 231.5 105.5 c 128,-1,43
 252 126 252 126 281 126 c 256,44,45
 310 126 310 126 330.5 105.5 c 128,-1,46
 351 85 351 85 351 56 c 256,47,48
 351 27 351 27 330.5 6.5 c 128,-1,49
 310 -14 310 -14 281 -14 c 256,50,51
 252 -14 252 -14 231.5 6.5 c 128,-1,52
 211 27 211 27 211 56 c 256,41,42
EndSplineSet
EndChar

StartChar: at
Encoding: 64 64 36
Width: 612
GlyphClass: 2
Flags: W
LayerCount: 2
Fore
SplineSet
78 510 m 1,0,-1
 78 582 l 1,1,-1
 368 582 l 2,2,3
 460 582 460 582 512 534 c 128,-1,4
 564 486 564 486 564 386 c 2,5,-1
 564 78 l 2,6,7
 564 44 564 44 542.5 22 c 128,-1,8
 521 0 521 0 487 0 c 2,9,-1
 407 0 l 2,10,11
 370 0 370 0 353 19.5 c 128,-1,12
 336 39 336 39 336 66 c 1,13,-1
 324 66 l 1,14,15
 312 28 312 28 283.5 7 c 128,-1,16
 255 -14 255 -14 208 -14 c 0,17,18
 171 -14 171 -14 140 1 c 128,-1,19
 109 16 109 16 86.5 44 c 128,-1,20
 64 72 64 72 51 112.5 c 128,-1,21
 38 153 38 153 38 203 c 2,22,-1
 38 221 l 2,23,24
 38 271 38 271 51 311 c 128,-1,25
 64 351 64 351 86.5 379.5 c 128,-1,26
 109 408 109 408 140 423 c 128,-1,27
 171 438 171 438 206 438 c 0,28,29
 252 438 252 438 276.5 420.5 c 128,-1,30
 301 403 301 403 318 370 c 1,31,-1
 330 370 l 1,32,-1
 330 424 l 1,33,-1
 408 424 l 1,34,-1
 408 102 l 2,35,36
 408 72 408 72 435 72 c 2,37,-1
 459 72 l 2,38,39
 486 72 486 72 486 102 c 2,40,-1
 486 378 l 2,41,42
 486 443 486 443 455.5 476.5 c 128,-1,43
 425 510 425 510 360 510 c 2,44,-1
 78 510 l 1,0,-1
223 60 m 0,45,46
 253 60 253 60 273.5 71 c 128,-1,47
 294 82 294 82 306.5 101.5 c 128,-1,48
 319 121 319 121 324.5 147 c 128,-1,49
 330 173 330 173 330 203 c 2,50,-1
 330 221 l 2,51,52
 330 249 330 249 324.5 275 c 128,-1,53
 319 301 319 301 306.5 321 c 128,-1,54
 294 341 294 341 273.5 352.5 c 128,-1,55
 253 364 253 364 223 364 c 0,56,57
 198 364 198 364 178 353 c 128,-1,58
 158 342 158 342 144.5 322.5 c 128,-1,59
 131 303 131 303 123.5 277 c 128,-1,60
 116 251 116 251 116 221 c 2,61,-1
 116 203 l 2,62,63
 116 140 116 140 144 100 c 128,-1,64
 172 60 172 60 223 60 c 0,45,46
EndSplineSet
Substitution2: "'case' Case-Sensitive Forms in Latin lookup 31 subtable" at.cap
Substitution2: "'case' Case-Sensitive Forms in Latin lookup 30 subtable" at.cap
Substitution2: "'aalt' Access All Alternates in Latin lookup 0 subtable" at.cap
EndChar

StartChar: A
Encoding: 65 65 37
Width: 612
GlyphClass: 2
Flags: W
LayerCount: 2
Fore
SplineSet
456 174 m 1,0,-1
 156 174 l 1,1,-1
 105 0 l 1,2,-1
 15 0 l 1,3,-1
 227 700 l 1,4,-1
 385 700 l 1,5,-1
 597 0 l 1,6,-1
 507 0 l 1,7,-1
 456 174 l 1,0,-1
300 664 m 1,8,-1
 179 252 l 1,9,-1
 433 252 l 1,10,-1
 312 664 l 1,11,-1
 300 664 l 1,8,-1
EndSplineSet
EndChar

StartChar: B
Encoding: 66 66 38
Width: 612
GlyphClass: 2
Flags: W
LayerCount: 2
Fore
SplineSet
57 78 m 1,0,-1
 117 78 l 1,1,-1
 117 622 l 1,2,-1
 57 622 l 1,3,-1
 57 700 l 1,4,-1
 340 700 l 2,5,6
 390 700 390 700 428.5 686 c 128,-1,7
 467 672 467 672 493.5 648 c 128,-1,8
 520 624 520 624 533.5 590.5 c 128,-1,9
 547 557 547 557 547 518 c 2,10,-1
 547 506 l 2,11,12
 547 477 547 477 538 453 c 128,-1,13
 529 429 529 429 513 410 c 128,-1,14
 497 391 497 391 475.5 377.5 c 128,-1,15
 454 364 454 364 429 357 c 1,16,-1
 429 345 l 1,17,18
 479 331 479 331 513 291.5 c 128,-1,19
 547 252 547 252 547 195 c 2,20,-1
 547 183 l 2,21,22
 547 144 547 144 533.5 110.5 c 128,-1,23
 520 77 520 77 493.5 52.5 c 128,-1,24
 467 28 467 28 428.5 14 c 128,-1,25
 390 0 390 0 340 0 c 2,26,-1
 57 0 l 1,27,-1
 57 78 l 1,0,-1
201 78 m 1,28,-1
 334 78 l 2,29,30
 393 78 393 78 430 107.5 c 128,-1,31
 467 137 467 137 467 189 c 2,32,-1
 467 195 l 2,33,34
 467 249 467 249 432 280.5 c 128,-1,35
 397 312 397 312 337 312 c 2,36,-1
 201 312 l 1,37,-1
 201 78 l 1,28,-1
201 390 m 1,38,-1
 337 390 l 2,39,40
 397 390 397 390 432 421 c 128,-1,41
 467 452 467 452 467 506 c 2,42,-1
 467 512 l 2,43,44
 467 563 467 563 430 592.5 c 128,-1,45
 393 622 393 622 334 622 c 2,46,-1
 201 622 l 1,47,-1
 201 390 l 1,38,-1
EndSplineSet
Substitution2: "'ss01' Style Set 1 in Latin lookup 2 subtable" B.alt
Substitution2: "'aalt' Access All Alternates in Latin lookup 0 subtable" B.alt
EndChar

StartChar: C
Encoding: 67 67 39
Width: 612
GlyphClass: 2
Flags: W
LayerCount: 2
Fore
SplineSet
310 64 m 0,0,1
 353 64 353 64 383.5 78.5 c 128,-1,2
 414 93 414 93 433.5 117.5 c 128,-1,3
 453 142 453 142 462.5 173.5 c 128,-1,4
 472 205 472 205 472 240 c 2,5,-1
 472 252 l 1,6,-1
 556 252 l 1,7,-1
 556 240 l 2,8,9
 556 187 556 187 540 140.5 c 128,-1,10
 524 94 524 94 493 59.5 c 128,-1,11
 462 25 462 25 416 5.5 c 128,-1,12
 370 -14 370 -14 310 -14 c 0,13,14
 194 -14 194 -14 129 59 c 128,-1,15
 64 132 64 132 64 272 c 2,16,-1
 64 428 l 2,17,18
 64 564 64 564 129 639 c 128,-1,19
 194 714 194 714 310 714 c 0,20,21
 370 714 370 714 416 694.5 c 128,-1,22
 462 675 462 675 493 640.5 c 128,-1,23
 524 606 524 606 540 559.5 c 128,-1,24
 556 513 556 513 556 460 c 2,25,-1
 556 448 l 1,26,-1
 472 448 l 1,27,-1
 472 460 l 2,28,29
 471 494 471 494 461.5 526 c 128,-1,30
 452 558 452 558 432.5 582.5 c 128,-1,31
 413 607 413 607 383 621.5 c 128,-1,32
 353 636 353 636 310 636 c 0,33,34
 229 636 229 636 188.5 577 c 128,-1,35
 148 518 148 518 148 422 c 2,36,-1
 148 278 l 2,37,38
 148 175 148 175 188.5 119.5 c 128,-1,39
 229 64 229 64 310 64 c 0,0,1
EndSplineSet
EndChar

StartChar: D
Encoding: 68 68 40
Width: 612
GlyphClass: 2
Flags: W
LayerCount: 2
Fore
SplineSet
73 700 m 1,0,-1
 303 700 l 2,1,2
 433 700 433 700 493 638 c 128,-1,3
 553 576 553 576 553 440 c 2,4,-1
 553 260 l 2,5,6
 553 124 553 124 493 62 c 128,-1,7
 433 0 433 0 303 0 c 2,8,-1
 73 0 l 1,9,-1
 73 79 l 1,10,-1
 133 79 l 1,11,-1
 133 622 l 1,12,-1
 73 622 l 1,13,-1
 73 700 l 1,0,-1
291 78 m 2,14,15
 337 78 337 78 370.5 87 c 128,-1,16
 404 96 404 96 426 117.5 c 128,-1,17
 448 139 448 139 458.5 175 c 128,-1,18
 469 211 469 211 469 266 c 2,19,-1
 469 434 l 2,20,21
 469 489 469 489 458.5 525 c 128,-1,22
 448 561 448 561 426 582.5 c 128,-1,23
 404 604 404 604 370.5 613 c 128,-1,24
 337 622 337 622 291 622 c 2,25,-1
 217 622 l 1,26,-1
 217 78 l 1,27,-1
 291 78 l 2,14,15
EndSplineSet
Substitution2: "'ss01' Style Set 1 in Latin lookup 2 subtable" D.alt
Substitution2: "'aalt' Access All Alternates in Latin lookup 0 subtable" D.alt
EndChar

StartChar: E
Encoding: 69 69 41
Width: 612
GlyphClass: 2
Flags: W
LayerCount: 2
Fore
SplineSet
94 700 m 1,0,-1
 518 700 l 1,1,-1
 518 622 l 1,2,-1
 178 622 l 1,3,-1
 178 390 l 1,4,-1
 512 390 l 1,5,-1
 512 312 l 1,6,-1
 178 312 l 1,7,-1
 178 78 l 1,8,-1
 524 78 l 1,9,-1
 524 0 l 1,10,-1
 94 0 l 1,11,-1
 94 700 l 1,0,-1
EndSplineSet
EndChar

StartChar: F
Encoding: 70 70 42
Width: 612
GlyphClass: 2
Flags: W
LayerCount: 2
Fore
SplineSet
95 700 m 1,0,-1
 525 700 l 1,1,-1
 525 622 l 1,2,-1
 179 622 l 1,3,-1
 179 390 l 1,4,-1
 519 390 l 1,5,-1
 519 312 l 1,6,-1
 179 312 l 1,7,-1
 179 0 l 1,8,-1
 95 0 l 1,9,-1
 95 700 l 1,0,-1
EndSplineSet
EndChar

StartChar: G
Encoding: 71 71 43
Width: 612
GlyphClass: 2
Flags: W
LayerCount: 2
Fore
SplineSet
239 336 m 1,0,-1
 551 336 l 1,1,-1
 551 0 l 1,2,-1
 473 0 l 1,3,-1
 473 84 l 1,4,-1
 461 84 l 1,5,6
 444 40 444 40 401 13 c 128,-1,7
 358 -14 358 -14 301 -14 c 0,8,9
 188 -14 188 -14 123.5 59 c 128,-1,10
 59 132 59 132 59 272 c 2,11,-1
 59 428 l 2,12,13
 59 564 59 564 124 639 c 128,-1,14
 189 714 189 714 305 714 c 0,15,16
 365 714 365 714 411 694.5 c 128,-1,17
 457 675 457 675 488 640.5 c 128,-1,18
 519 606 519 606 535 559.5 c 128,-1,19
 551 513 551 513 551 460 c 2,20,-1
 551 448 l 1,21,-1
 467 448 l 1,22,-1
 467 460 l 2,23,24
 467 494 467 494 457.5 526 c 128,-1,25
 448 558 448 558 428.5 582.5 c 128,-1,26
 409 607 409 607 378.5 621.5 c 128,-1,27
 348 636 348 636 305 636 c 0,28,29
 224 636 224 636 183.5 577 c 128,-1,30
 143 518 143 518 143 422 c 2,31,-1
 143 278 l 2,32,33
 143 175 143 175 183.5 119.5 c 128,-1,34
 224 64 224 64 307 64 c 0,35,36
 382 64 382 64 424.5 112 c 128,-1,37
 467 160 467 160 467 246 c 2,38,-1
 467 258 l 1,39,-1
 239 258 l 1,40,-1
 239 336 l 1,0,-1
EndSplineSet
EndChar

StartChar: H
Encoding: 72 72 44
Width: 612
GlyphClass: 2
Flags: W
LayerCount: 2
Fore
SplineSet
73 700 m 1,0,-1
 157 700 l 1,1,-1
 157 390 l 1,2,-1
 455 390 l 1,3,-1
 455 700 l 1,4,-1
 539 700 l 1,5,-1
 539 0 l 1,6,-1
 455 0 l 1,7,-1
 455 312 l 1,8,-1
 157 312 l 1,9,-1
 157 0 l 1,10,-1
 73 0 l 1,11,-1
 73 700 l 1,0,-1
EndSplineSet
EndChar

StartChar: I
Encoding: 73 73 45
Width: 612
GlyphClass: 2
Flags: W
LayerCount: 2
Fore
SplineSet
84 700 m 1,0,-1
 528 700 l 1,1,-1
 528 622 l 1,2,-1
 348 622 l 1,3,-1
 348 78 l 1,4,-1
 528 78 l 1,5,-1
 528 0 l 1,6,-1
 84 0 l 1,7,-1
 84 78 l 1,8,-1
 264 78 l 1,9,-1
 264 622 l 1,10,-1
 84 622 l 1,11,-1
 84 700 l 1,0,-1
EndSplineSet
EndChar

StartChar: J
Encoding: 74 74 46
Width: 612
GlyphClass: 2
Flags: W
LayerCount: 2
Fore
SplineSet
505 210 m 2,0,1
 505 101 505 101 451.5 43.5 c 128,-1,2
 398 -14 398 -14 295 -14 c 256,3,4
 192 -14 192 -14 132.5 43.5 c 128,-1,5
 73 101 73 101 73 210 c 2,6,-1
 73 264 l 1,7,-1
 157 264 l 1,8,-1
 157 210 l 2,9,10
 157 144 157 144 191 104 c 128,-1,11
 225 64 225 64 295 64 c 256,12,13
 365 64 365 64 393 104 c 128,-1,14
 421 144 421 144 421 210 c 2,15,-1
 421 622 l 1,16,-1
 349 622 l 1,17,-1
 349 700 l 1,18,-1
 565 700 l 1,19,-1
 565 622 l 1,20,-1
 505 622 l 1,21,-1
 505 210 l 2,0,1
EndSplineSet
Substitution2: "'ss01' Style Set 1 in Latin lookup 2 subtable" J.alt
Substitution2: "'aalt' Access All Alternates in Latin lookup 0 subtable" J.alt
EndChar

StartChar: K
Encoding: 75 75 47
Width: 612
GlyphClass: 2
Flags: W
LayerCount: 2
Fore
SplineSet
173 0 m 1,0,-1
 89 0 l 1,1,-1
 89 700 l 1,2,-1
 173 700 l 1,3,-1
 173 390 l 1,4,-1
 196 390 l 1,5,-1
 465 700 l 1,6,-1
 569 700 l 1,7,-1
 569 694 l 1,8,-1
 279 356 l 1,9,-1
 279 344 l 1,10,-1
 581 6 l 1,11,-1
 581 0 l 1,12,-1
 475 0 l 1,13,-1
 196 312 l 1,14,-1
 173 312 l 1,15,-1
 173 0 l 1,0,-1
EndSplineSet
EndChar

StartChar: L
Encoding: 76 76 48
Width: 612
GlyphClass: 2
Flags: W
LayerCount: 2
Fore
SplineSet
87 700 m 1,0,-1
 171 700 l 1,1,-1
 171 78 l 1,2,-1
 537 78 l 1,3,-1
 537 0 l 1,4,-1
 87 0 l 1,5,-1
 87 700 l 1,0,-1
EndSplineSet
EndChar

StartChar: M
Encoding: 77 77 49
Width: 612
GlyphClass: 2
Flags: W
LayerCount: 2
Fore
SplineSet
46 700 m 1,0,-1
 206 700 l 1,1,-1
 300 36 l 1,2,-1
 312 36 l 1,3,-1
 406 700 l 1,4,-1
 566 700 l 1,5,-1
 566 0 l 1,6,-1
 488 0 l 1,7,-1
 488 664 l 1,8,-1
 476 664 l 1,9,-1
 382 0 l 1,10,-1
 230 0 l 1,11,-1
 136 664 l 1,12,-1
 124 664 l 1,13,-1
 124 0 l 1,14,-1
 46 0 l 1,15,-1
 46 700 l 1,0,-1
EndSplineSet
EndChar

StartChar: N
Encoding: 78 78 50
Width: 612
GlyphClass: 2
Flags: W
LayerCount: 2
Fore
SplineSet
443 36 m 1,0,-1
 455 36 l 1,1,-1
 455 700 l 1,2,-1
 539 700 l 1,3,-1
 539 0 l 1,4,-1
 371 0 l 1,5,-1
 169 664 l 1,6,-1
 157 664 l 1,7,-1
 157 0 l 1,8,-1
 73 0 l 1,9,-1
 73 700 l 1,10,-1
 241 700 l 1,11,-1
 443 36 l 1,0,-1
EndSplineSet
EndChar

StartChar: O
Encoding: 79 79 51
Width: 612
GlyphClass: 2
Flags: W
LayerCount: 2
Fore
SplineSet
60 428 m 2,0,1
 60 564 60 564 125 639 c 128,-1,2
 190 714 190 714 306 714 c 256,3,4
 422 714 422 714 487 639 c 128,-1,5
 552 564 552 564 552 428 c 2,6,-1
 552 272 l 2,7,8
 552 132 552 132 487 59 c 128,-1,9
 422 -14 422 -14 306 -14 c 256,10,11
 190 -14 190 -14 125 59 c 128,-1,12
 60 132 60 132 60 272 c 2,13,-1
 60 428 l 2,0,1
306 64 m 256,14,15
 387 64 387 64 427.5 119.5 c 128,-1,16
 468 175 468 175 468 278 c 2,17,-1
 468 422 l 2,18,19
 468 518 468 518 427.5 577 c 128,-1,20
 387 636 387 636 306 636 c 256,21,22
 225 636 225 636 184.5 577 c 128,-1,23
 144 518 144 518 144 422 c 2,24,-1
 144 278 l 2,25,26
 144 175 144 175 184.5 119.5 c 128,-1,27
 225 64 225 64 306 64 c 256,14,15
EndSplineSet
EndChar

StartChar: P
Encoding: 80 80 52
Width: 612
GlyphClass: 2
Flags: W
LayerCount: 2
Fore
SplineSet
169 288 m 1,0,-1
 169 0 l 1,1,-1
 85 0 l 1,2,-1
 85 700 l 1,3,-1
 335 700 l 2,4,5
 389 700 389 700 429 684.5 c 128,-1,6
 469 669 469 669 495.5 643 c 128,-1,7
 522 617 522 617 535.5 582.5 c 128,-1,8
 549 548 549 548 549 510 c 2,9,-1
 549 480 l 2,10,11
 549 442 549 442 535.5 407 c 128,-1,12
 522 372 522 372 495 345.5 c 128,-1,13
 468 319 468 319 428 303.5 c 128,-1,14
 388 288 388 288 335 288 c 2,15,-1
 169 288 l 1,0,-1
169 366 m 1,16,-1
 325 366 l 2,17,18
 465 366 465 366 465 486 c 2,19,-1
 465 504 l 2,20,21
 465 557 465 557 430.5 589.5 c 128,-1,22
 396 622 396 622 325 622 c 2,23,-1
 169 622 l 1,24,-1
 169 366 l 1,16,-1
EndSplineSet
EndChar

StartChar: Q
Encoding: 81 81 53
Width: 612
GlyphClass: 2
Flags: W
LayerCount: 2
Fore
SplineSet
60 428 m 2,0,1
 60 564 60 564 125 639 c 128,-1,2
 190 714 190 714 306 714 c 256,3,4
 422 714 422 714 487 639 c 128,-1,5
 552 564 552 564 552 428 c 2,6,-1
 552 272 l 2,7,8
 552 144 552 144 497.5 71.5 c 128,-1,9
 443 -1 443 -1 345 -12 c 1,10,-1
 345 -54 l 2,11,12
 345 -84 345 -84 372 -84 c 2,13,-1
 456 -84 l 1,14,-1
 456 -156 l 1,15,-1
 344 -156 l 2,16,17
 310 -156 310 -156 288.5 -134 c 128,-1,18
 267 -112 267 -112 267 -78 c 2,19,-1
 267 -12 l 1,20,21
 168 0 168 0 114 72 c 128,-1,22
 60 144 60 144 60 272 c 2,23,-1
 60 428 l 2,0,1
306 64 m 256,24,25
 387 64 387 64 427.5 119.5 c 128,-1,26
 468 175 468 175 468 278 c 2,27,-1
 468 422 l 2,28,29
 468 518 468 518 427.5 577 c 128,-1,30
 387 636 387 636 306 636 c 256,31,32
 225 636 225 636 184.5 577 c 128,-1,33
 144 518 144 518 144 422 c 2,34,-1
 144 278 l 2,35,36
 144 175 144 175 184.5 119.5 c 128,-1,37
 225 64 225 64 306 64 c 256,24,25
EndSplineSet
EndChar

StartChar: R
Encoding: 82 82 54
Width: 612
GlyphClass: 2
Flags: W
LayerCount: 2
Fore
SplineSet
525 0 m 1,0,-1
 441 0 l 1,1,-1
 441 234 l 2,2,3
 441 260 441 260 429 274 c 128,-1,4
 417 288 417 288 387 288 c 2,5,-1
 169 288 l 1,6,-1
 169 0 l 1,7,-1
 85 0 l 1,8,-1
 85 700 l 1,9,-1
 335 700 l 2,10,11
 389 700 389 700 429 684.5 c 128,-1,12
 469 669 469 669 495.5 643 c 128,-1,13
 522 617 522 617 535.5 582.5 c 128,-1,14
 549 548 549 548 549 510 c 2,15,-1
 549 480 l 2,16,17
 549 441 549 441 527.5 402 c 128,-1,18
 506 363 506 363 461 342 c 1,19,-1
 461 330 l 1,20,21
 491 325 491 325 508 306 c 128,-1,22
 525 287 525 287 525 252 c 2,23,-1
 525 0 l 1,0,-1
169 366 m 1,24,-1
 325 366 l 2,25,26
 396 366 396 366 430.5 396.5 c 128,-1,27
 465 427 465 427 465 486 c 2,28,-1
 465 504 l 2,29,30
 465 557 465 557 430.5 589.5 c 128,-1,31
 396 622 396 622 325 622 c 2,32,-1
 169 622 l 1,33,-1
 169 366 l 1,24,-1
EndSplineSet
EndChar

StartChar: S
Encoding: 83 83 55
Width: 612
GlyphClass: 2
Flags: W
LayerCount: 2
Fore
SplineSet
471 498 m 2,0,1
 471 532 471 532 457.5 558 c 128,-1,2
 444 584 444 584 421 601 c 128,-1,3
 398 618 398 618 368 627 c 128,-1,4
 338 636 338 636 305 636 c 0,5,6
 276 636 276 636 250 628.5 c 128,-1,7
 224 621 224 621 203.5 607 c 128,-1,8
 183 593 183 593 171 572.5 c 128,-1,9
 159 552 159 552 159 525 c 2,10,-1
 159 519 l 2,11,12
 159 490 159 490 171 469.5 c 128,-1,13
 183 449 183 449 206.5 434.5 c 128,-1,14
 230 420 230 420 265 410.5 c 128,-1,15
 300 401 300 401 347 394 c 0,16,17
 457 377 457 377 509 329.5 c 128,-1,18
 561 282 561 282 561 202 c 2,19,-1
 561 190 l 2,20,21
 561 145 561 145 545.5 107.5 c 128,-1,22
 530 70 530 70 499.5 43 c 128,-1,23
 469 16 469 16 424 1 c 128,-1,24
 379 -14 379 -14 320 -14 c 0,25,26
 253 -14 253 -14 201.5 5.5 c 128,-1,27
 150 25 150 25 115.5 59.5 c 128,-1,28
 81 94 81 94 63 140.5 c 128,-1,29
 45 187 45 187 45 242 c 2,30,-1
 45 272 l 1,31,-1
 129 272 l 1,32,-1
 129 248 l 2,33,34
 129 156 129 156 179.5 110 c 128,-1,35
 230 64 230 64 320 64 c 0,36,37
 398 64 398 64 437.5 98.5 c 128,-1,38
 477 133 477 133 477 190 c 2,39,-1
 477 196 l 2,40,41
 477 251 477 251 436.5 280 c 128,-1,42
 396 309 396 309 305 322 c 0,43,44
 252 329 252 329 209.5 343.5 c 128,-1,45
 167 358 167 358 137 381.5 c 128,-1,46
 107 405 107 405 91 438 c 128,-1,47
 75 471 75 471 75 516 c 2,48,-1
 75 528 l 2,49,50
 75 569 75 569 92 603 c 128,-1,51
 109 637 109 637 139.5 662 c 128,-1,52
 170 687 170 687 212.5 700.5 c 128,-1,53
 255 714 255 714 306 714 c 0,54,55
 365 714 365 714 411.5 697 c 128,-1,56
 458 680 458 680 490 651.5 c 128,-1,57
 522 623 522 623 538.5 584.5 c 128,-1,58
 555 546 555 546 555 504 c 2,59,-1
 555 462 l 1,60,-1
 471 462 l 1,61,-1
 471 498 l 2,0,1
EndSplineSet
EndChar

StartChar: T
Encoding: 84 84 56
Width: 612
GlyphClass: 2
Flags: W
LayerCount: 2
Fore
SplineSet
60 700 m 1,0,-1
 552 700 l 1,1,-1
 552 622 l 1,2,-1
 348 622 l 1,3,-1
 348 0 l 1,4,-1
 264 0 l 1,5,-1
 264 622 l 1,6,-1
 60 622 l 1,7,-1
 60 700 l 1,0,-1
EndSplineSet
EndChar

StartChar: U
Encoding: 85 85 57
Width: 612
GlyphClass: 2
Flags: W
LayerCount: 2
Fore
SplineSet
150 700 m 1,0,-1
 150 236 l 2,1,2
 150 151 150 151 189.5 107.5 c 128,-1,3
 229 64 229 64 306 64 c 256,4,5
 383 64 383 64 422.5 107.5 c 128,-1,6
 462 151 462 151 462 236 c 2,7,-1
 462 700 l 1,8,-1
 546 700 l 1,9,-1
 546 236 l 2,10,11
 546 114 546 114 482 50 c 128,-1,12
 418 -14 418 -14 306 -14 c 256,13,14
 194 -14 194 -14 130 50 c 128,-1,15
 66 114 66 114 66 236 c 2,16,-1
 66 700 l 1,17,-1
 150 700 l 1,0,-1
EndSplineSet
EndChar

StartChar: V
Encoding: 86 86 58
Width: 612
GlyphClass: 2
Flags: W
LayerCount: 2
Fore
SplineSet
27 700 m 1,0,-1
 117 700 l 1,1,-1
 300 36 l 1,2,-1
 312 36 l 1,3,-1
 495 700 l 1,4,-1
 585 700 l 1,5,-1
 387 0 l 1,6,-1
 225 0 l 1,7,-1
 27 700 l 1,0,-1
EndSplineSet
EndChar

StartChar: W
Encoding: 87 87 59
Width: 612
GlyphClass: 2
Flags: W
LayerCount: 2
Fore
SplineSet
530 0 m 1,0,-1
 377 0 l 1,1,-1
 312 664 l 1,2,-1
 300 664 l 1,3,-1
 235 0 l 1,4,-1
 82 0 l 1,5,-1
 11 700 l 1,6,-1
 87 700 l 1,7,-1
 154 36 l 1,8,-1
 166 36 l 1,9,-1
 229 700 l 1,10,-1
 383 700 l 1,11,-1
 446 36 l 1,12,-1
 458 36 l 1,13,-1
 525 700 l 1,14,-1
 601 700 l 1,15,-1
 530 0 l 1,0,-1
EndSplineSet
EndChar

StartChar: X
Encoding: 88 88 60
Width: 612
GlyphClass: 2
Flags: W
LayerCount: 2
Fore
SplineSet
140 700 m 1,0,-1
 297 390 l 1,1,-1
 315 390 l 1,2,-1
 472 700 l 1,3,-1
 564 700 l 1,4,-1
 389 357 l 1,5,-1
 389 345 l 1,6,-1
 564 0 l 1,7,-1
 472 0 l 1,8,-1
 315 312 l 1,9,-1
 297 312 l 1,10,-1
 140 0 l 1,11,-1
 48 0 l 1,12,-1
 223 345 l 1,13,-1
 223 357 l 1,14,-1
 48 700 l 1,15,-1
 140 700 l 1,0,-1
EndSplineSet
EndChar

StartChar: Y
Encoding: 89 89 61
Width: 612
GlyphClass: 2
Flags: W
LayerCount: 2
Fore
SplineSet
264 246 m 1,0,-1
 246 246 l 1,1,-1
 27 700 l 1,2,-1
 121 700 l 1,3,-1
 300 318 l 1,4,-1
 312 318 l 1,5,-1
 491 700 l 1,6,-1
 585 700 l 1,7,-1
 366 246 l 1,8,-1
 348 246 l 1,9,-1
 348 0 l 1,10,-1
 264 0 l 1,11,-1
 264 246 l 1,0,-1
EndSplineSet
EndChar

StartChar: Z
Encoding: 90 90 62
Width: 612
GlyphClass: 2
Flags: W
LayerCount: 2
Fore
SplineSet
77 700 m 1,0,-1
 545 700 l 1,1,-1
 545 574 l 1,2,-1
 125 90 l 1,3,-1
 125 78 l 1,4,-1
 557 78 l 1,5,-1
 557 0 l 1,6,-1
 53 0 l 1,7,-1
 53 126 l 1,8,-1
 473 610 l 1,9,-1
 473 622 l 1,10,-1
 77 622 l 1,11,-1
 77 700 l 1,0,-1
EndSplineSet
EndChar

StartChar: bracketleft
Encoding: 91 91 63
Width: 612
GlyphClass: 2
Flags: W
LayerCount: 2
Fore
SplineSet
264 778 m 2,0,1
 264 812 264 812 285.5 834 c 128,-1,2
 307 856 307 856 341 856 c 2,3,-1
 438 856 l 1,4,-1
 438 784 l 1,5,-1
 369 784 l 2,6,7
 342 784 342 784 342 754 c 2,8,-1
 342 -54 l 2,9,10
 342 -84 342 -84 369 -84 c 2,11,-1
 438 -84 l 1,12,-1
 438 -156 l 1,13,-1
 341 -156 l 2,14,15
 307 -156 307 -156 285.5 -134 c 128,-1,16
 264 -112 264 -112 264 -78 c 2,17,-1
 264 778 l 2,0,1
EndSplineSet
EndChar

StartChar: backslash
Encoding: 92 92 64
Width: 612
GlyphClass: 2
Flags: W
LayerCount: 2
Fore
SplineSet
487 -84 m 1,0,-1
 416 -106 l 1,1,-1
 125 784 l 1,2,-1
 195 806 l 1,3,-1
 487 -84 l 1,0,-1
EndSplineSet
EndChar

StartChar: bracketright
Encoding: 93 93 65
Width: 612
GlyphClass: 2
Flags: W
LayerCount: 2
Fore
SplineSet
348 -78 m 2,0,1
 348 -112 348 -112 326.5 -134 c 128,-1,2
 305 -156 305 -156 271 -156 c 2,3,-1
 174 -156 l 1,4,-1
 174 -84 l 1,5,-1
 243 -84 l 2,6,7
 270 -84 270 -84 270 -54 c 2,8,-1
 270 754 l 2,9,10
 270 784 270 784 243 784 c 2,11,-1
 174 784 l 1,12,-1
 174 856 l 1,13,-1
 271 856 l 2,14,15
 305 856 305 856 326.5 834 c 128,-1,16
 348 812 348 812 348 778 c 2,17,-1
 348 -78 l 2,0,1
EndSplineSet
EndChar

StartChar: asciicircum
Encoding: 94 94 66
Width: 612
GlyphClass: 2
Flags: W
LayerCount: 2
Fore
SplineSet
540 424 m 1,0,-1
 448 424 l 1,1,-1
 312 670 l 1,2,-1
 300 670 l 1,3,-1
 164 424 l 1,4,-1
 72 424 l 1,5,-1
 230 700 l 1,6,-1
 382 700 l 1,7,-1
 540 424 l 1,0,-1
EndSplineSet
EndChar

StartChar: underscore
Encoding: 95 95 67
Width: 612
GlyphClass: 2
Flags: W
LayerCount: 2
Fore
SplineSet
73 -48 m 1,0,-1
 539 -48 l 1,1,-1
 539 -120 l 1,2,-1
 73 -120 l 1,3,-1
 73 -48 l 1,0,-1
EndSplineSet
EndChar

StartChar: grave
Encoding: 96 96 68
Width: 612
GlyphClass: 2
Flags: W
LayerCount: 2
Fore
SplineSet
316 688 m 1,0,-1
 382 570 l 1,1,-1
 310 570 l 1,2,-1
 226 688 l 1,3,-1
 316 688 l 1,0,-1
EndSplineSet
EndChar

StartChar: a
Encoding: 97 97 69
Width: 612
GlyphClass: 2
Flags: W
LayerCount: 2
Fore
SplineSet
447 84 m 1,0,-1
 435 84 l 1,1,2
 411 34 411 34 368.5 10 c 128,-1,3
 326 -14 326 -14 279 -14 c 0,4,5
 230 -14 230 -14 188 2.5 c 128,-1,6
 146 19 146 19 114.5 51.5 c 128,-1,7
 83 84 83 84 65 131 c 128,-1,8
 47 178 47 178 47 240 c 2,9,-1
 47 256 l 2,10,11
 47 317 47 317 65 364 c 128,-1,12
 83 411 83 411 114.5 443.5 c 128,-1,13
 146 476 146 476 188 493 c 128,-1,14
 230 510 230 510 277 510 c 0,15,16
 328 510 328 510 369.5 487.5 c 128,-1,17
 411 465 411 465 435 418 c 1,18,-1
 447 418 l 1,19,-1
 447 496 l 1,20,-1
 525 496 l 1,21,-1
 525 102 l 2,22,23
 525 72 525 72 552 72 c 2,24,-1
 577 72 l 1,25,-1
 577 0 l 1,26,-1
 524 0 l 2,27,28
 490 0 490 0 468.5 22 c 128,-1,29
 447 44 447 44 447 78 c 2,30,-1
 447 84 l 1,0,-1
287 60 m 0,31,32
 322 60 322 60 351.5 73 c 128,-1,33
 381 86 381 86 402 110 c 128,-1,34
 423 134 423 134 435 167.5 c 128,-1,35
 447 201 447 201 447 242 c 2,36,-1
 447 254 l 2,37,38
 447 294 447 294 435 327.5 c 128,-1,39
 423 361 423 361 401.5 385 c 128,-1,40
 380 409 380 409 350.5 422.5 c 128,-1,41
 321 436 321 436 287 436 c 0,42,43
 252 436 252 436 223 423 c 128,-1,44
 194 410 194 410 172.5 386.5 c 128,-1,45
 151 363 151 363 139 329.5 c 128,-1,46
 127 296 127 296 127 256 c 2,47,-1
 127 240 l 2,48,49
 127 155 127 155 171.5 107.5 c 128,-1,50
 216 60 216 60 287 60 c 0,31,32
EndSplineSet
Substitution2: "'ordn' Ordinals in Latin lookup 29 subtable" ordfeminine
Substitution2: "'ordn' Ordinals in Latin lookup 28 subtable" ordfeminine
Substitution2: "'ss02' Style Set 2 in Latin lookup 3 subtable" a.alt
AlternateSubs2: "'aalt' Access All Alternates in Latin lookup 1 subtable" a.alt ordfeminine
EndChar

StartChar: b
Encoding: 98 98 70
Width: 612
GlyphClass: 2
Flags: W
LayerCount: 2
Fore
SplineSet
147 0 m 1,0,-1
 69 0 l 1,1,-1
 69 700 l 1,2,-1
 147 700 l 1,3,-1
 147 418 l 1,4,-1
 159 418 l 1,5,6
 185 463 185 463 231 486.5 c 128,-1,7
 277 510 277 510 331 510 c 0,8,9
 377 510 377 510 418 493 c 128,-1,10
 459 476 459 476 490.5 444 c 128,-1,11
 522 412 522 412 540.5 365 c 128,-1,12
 559 318 559 318 559 258 c 2,13,-1
 559 238 l 2,14,15
 559 177 559 177 541 130 c 128,-1,16
 523 83 523 83 491.5 51 c 128,-1,17
 460 19 460 19 418 2.5 c 128,-1,18
 376 -14 376 -14 329 -14 c 0,19,20
 305 -14 305 -14 280 -8.5 c 128,-1,21
 255 -3 255 -3 232.5 8.5 c 128,-1,22
 210 20 210 20 191 36.5 c 128,-1,23
 172 53 172 53 159 76 c 1,24,-1
 147 76 l 1,25,-1
 147 0 l 1,0,-1
313 60 m 0,26,27
 349 60 349 60 379 72.5 c 128,-1,28
 409 85 409 85 431.5 108 c 128,-1,29
 454 131 454 131 466.5 164 c 128,-1,30
 479 197 479 197 479 238 c 2,31,-1
 479 258 l 2,32,33
 479 298 479 298 466.5 330.5 c 128,-1,34
 454 363 454 363 431.5 386.5 c 128,-1,35
 409 410 409 410 378.5 423 c 128,-1,36
 348 436 348 436 313 436 c 256,37,38
 278 436 278 436 248 422.5 c 128,-1,39
 218 409 218 409 195.5 385 c 128,-1,40
 173 361 173 361 160 327.5 c 128,-1,41
 147 294 147 294 147 254 c 2,42,-1
 147 242 l 2,43,44
 147 201 147 201 160 167.5 c 128,-1,45
 173 134 173 134 195.5 110 c 128,-1,46
 218 86 218 86 248 73 c 128,-1,47
 278 60 278 60 313 60 c 0,26,27
EndSplineSet
EndChar

StartChar: c
Encoding: 99 99 71
Width: 612
GlyphClass: 2
Flags: W
LayerCount: 2
Fore
SplineSet
551 176 m 1,0,1
 543 135 543 135 523.5 100 c 128,-1,2
 504 65 504 65 474 39.5 c 128,-1,3
 444 14 444 14 404 0 c 128,-1,4
 364 -14 364 -14 315 -14 c 0,5,6
 263 -14 263 -14 216.5 3 c 128,-1,7
 170 20 170 20 135 52.5 c 128,-1,8
 100 85 100 85 79.5 132 c 128,-1,9
 59 179 59 179 59 240 c 2,10,-1
 59 252 l 2,11,12
 59 312 59 312 79.5 360 c 128,-1,13
 100 408 100 408 135 441 c 128,-1,14
 170 474 170 474 216.5 492 c 128,-1,15
 263 510 263 510 315 510 c 0,16,17
 362 510 362 510 402 496 c 128,-1,18
 442 482 442 482 472.5 456.5 c 128,-1,19
 503 431 503 431 522.5 396 c 128,-1,20
 542 361 542 361 549 320 c 1,21,-1
 471 302 l 1,22,23
 468 328 468 328 456.5 352.5 c 128,-1,24
 445 377 445 377 425.5 395.5 c 128,-1,25
 406 414 406 414 378 425 c 128,-1,26
 350 436 350 436 313 436 c 0,27,28
 277 436 277 436 245.5 422.5 c 128,-1,29
 214 409 214 409 190 384.5 c 128,-1,30
 166 360 166 360 152.5 326 c 128,-1,31
 139 292 139 292 139 252 c 2,32,-1
 139 240 l 2,33,34
 139 198 139 198 152.5 164.5 c 128,-1,35
 166 131 166 131 190 108 c 128,-1,36
 214 85 214 85 246 72.5 c 128,-1,37
 278 60 278 60 315 60 c 256,38,39
 352 60 352 60 379.5 71.5 c 128,-1,40
 407 83 407 83 426.5 101.5 c 128,-1,41
 446 120 446 120 457.5 144 c 128,-1,42
 469 168 469 168 473 194 c 1,43,-1
 551 176 l 1,0,1
EndSplineSet
EndChar

StartChar: d
Encoding: 100 100 72
Width: 612
GlyphClass: 2
Flags: W
LayerCount: 2
Fore
SplineSet
471 76 m 1,0,-1
 459 76 l 1,1,2
 447 53 447 53 428.5 36 c 128,-1,3
 410 19 410 19 388.5 8 c 128,-1,4
 367 -3 367 -3 343 -8.5 c 128,-1,5
 319 -14 319 -14 297 -14 c 0,6,7
 247 -14 247 -14 204 3 c 128,-1,8
 161 20 161 20 128.5 52 c 128,-1,9
 96 84 96 84 77.5 131.5 c 128,-1,10
 59 179 59 179 59 240 c 2,11,-1
 59 256 l 2,12,13
 59 316 59 316 78 363.5 c 128,-1,14
 97 411 97 411 129 443.5 c 128,-1,15
 161 476 161 476 204 493 c 128,-1,16
 247 510 247 510 295 510 c 0,17,18
 346 510 346 510 390.5 487.5 c 128,-1,19
 435 465 435 465 459 418 c 1,20,-1
 471 418 l 1,21,-1
 471 700 l 1,22,-1
 549 700 l 1,23,-1
 549 0 l 1,24,-1
 471 0 l 1,25,-1
 471 76 l 1,0,-1
305 60 m 0,26,27
 340 60 340 60 370 73 c 128,-1,28
 400 86 400 86 422.5 110 c 128,-1,29
 445 134 445 134 458 167.5 c 128,-1,30
 471 201 471 201 471 242 c 2,31,-1
 471 254 l 2,32,33
 471 294 471 294 458 327.5 c 128,-1,34
 445 361 445 361 422.5 385 c 128,-1,35
 400 409 400 409 369.5 422.5 c 128,-1,36
 339 436 339 436 305 436 c 0,37,38
 270 436 270 436 239.5 423 c 128,-1,39
 209 410 209 410 186.5 386 c 128,-1,40
 164 362 164 362 151.5 329 c 128,-1,41
 139 296 139 296 139 256 c 2,42,-1
 139 240 l 2,43,44
 139 198 139 198 151.5 165 c 128,-1,45
 164 132 164 132 186.5 108.5 c 128,-1,46
 209 85 209 85 239 72.5 c 128,-1,47
 269 60 269 60 305 60 c 0,26,27
EndSplineSet
EndChar

StartChar: e
Encoding: 101 101 73
Width: 612
GlyphClass: 2
Flags: W
LayerCount: 2
Fore
SplineSet
144 224 m 1,0,1
 147 150 147 150 190 105 c 128,-1,2
 233 60 233 60 310 60 c 0,3,4
 345 60 345 60 371 68 c 128,-1,5
 397 76 397 76 415.5 90 c 128,-1,6
 434 104 434 104 445.5 122.5 c 128,-1,7
 457 141 457 141 464 162 c 1,8,-1
 538 142 l 1,9,10
 517 73 517 73 460.5 29.5 c 128,-1,11
 404 -14 404 -14 308 -14 c 0,12,13
 255 -14 255 -14 210.5 4.5 c 128,-1,14
 166 23 166 23 134 57 c 128,-1,15
 102 91 102 91 84 138 c 128,-1,16
 66 185 66 185 66 242 c 2,17,-1
 66 266 l 2,18,19
 66 318 66 318 84.5 363 c 128,-1,20
 103 408 103 408 136 440.5 c 128,-1,21
 169 473 169 473 213.5 491.5 c 128,-1,22
 258 510 258 510 310 510 c 0,23,24
 371 510 371 510 415.5 487.5 c 128,-1,25
 460 465 460 465 488.5 432 c 128,-1,26
 517 399 517 399 530.5 360 c 128,-1,27
 544 321 544 321 544 288 c 2,28,-1
 544 224 l 1,29,-1
 144 224 l 1,0,1
310 436 m 0,30,31
 277 436 277 436 248.5 425.5 c 128,-1,32
 220 415 220 415 198.5 396 c 128,-1,33
 177 377 177 377 163.5 351.5 c 128,-1,34
 150 326 150 326 146 296 c 1,35,-1
 466 296 l 1,36,37
 464 328 464 328 450.5 354 c 128,-1,38
 437 380 437 380 415.5 398 c 128,-1,39
 394 416 394 416 366.5 426 c 128,-1,40
 339 436 339 436 310 436 c 0,30,31
EndSplineSet
EndChar

StartChar: f
Encoding: 102 102 74
Width: 612
GlyphClass: 2
Flags: W
LayerCount: 2
Fore
SplineSet
82 496 m 1,0,-1
 235 496 l 1,1,-1
 235 622 l 2,2,3
 235 656 235 656 256.5 678 c 128,-1,4
 278 700 278 700 312 700 c 2,5,-1
 508 700 l 1,6,-1
 508 628 l 1,7,-1
 340 628 l 2,8,9
 313 628 313 628 313 598 c 2,10,-1
 313 496 l 1,11,-1
 520 496 l 1,12,-1
 520 424 l 1,13,-1
 313 424 l 1,14,-1
 313 0 l 1,15,-1
 235 0 l 1,16,-1
 235 424 l 1,17,-1
 82 424 l 1,18,-1
 82 496 l 1,0,-1
EndSplineSet
EndChar

StartChar: g
Encoding: 103 103 75
Width: 612
GlyphClass: 2
Flags: W
LayerCount: 2
Fore
SplineSet
464 76 m 1,0,-1
 452 76 l 1,1,2
 428 31 428 31 386.5 8.5 c 128,-1,3
 345 -14 345 -14 296 -14 c 0,4,5
 246 -14 246 -14 202 3 c 128,-1,6
 158 20 158 20 124.5 52 c 128,-1,7
 91 84 91 84 71.5 131.5 c 128,-1,8
 52 179 52 179 52 240 c 2,9,-1
 52 256 l 2,10,11
 52 316 52 316 72 363.5 c 128,-1,12
 92 411 92 411 125 443.5 c 128,-1,13
 158 476 158 476 202 493 c 128,-1,14
 246 510 246 510 294 510 c 0,15,16
 348 510 348 510 388.5 486.5 c 128,-1,17
 429 463 429 463 452 418 c 1,18,-1
 464 418 l 1,19,-1
 464 496 l 1,20,-1
 542 496 l 1,21,-1
 542 -122 l 2,22,23
 542 -156 542 -156 520.5 -178 c 128,-1,24
 499 -200 499 -200 465 -200 c 2,25,-1
 142 -200 l 1,26,-1
 142 -128 l 1,27,-1
 437 -128 l 2,28,29
 464 -128 464 -128 464 -98 c 2,30,-1
 464 76 l 1,0,-1
298 60 m 0,31,32
 333 60 333 60 363 73 c 128,-1,33
 393 86 393 86 415.5 110 c 128,-1,34
 438 134 438 134 451 167.5 c 128,-1,35
 464 201 464 201 464 242 c 2,36,-1
 464 254 l 2,37,38
 464 294 464 294 451 327.5 c 128,-1,39
 438 361 438 361 415.5 385 c 128,-1,40
 393 409 393 409 362.5 422.5 c 128,-1,41
 332 436 332 436 298 436 c 0,42,43
 263 436 263 436 232.5 423 c 128,-1,44
 202 410 202 410 179.5 386 c 128,-1,45
 157 362 157 362 144.5 329 c 128,-1,46
 132 296 132 296 132 256 c 2,47,-1
 132 240 l 2,48,49
 132 198 132 198 144.5 165 c 128,-1,50
 157 132 157 132 179.5 108.5 c 128,-1,51
 202 85 202 85 232 72.5 c 128,-1,52
 262 60 262 60 298 60 c 0,31,32
EndSplineSet
Substitution2: "'ss02' Style Set 2 in Latin lookup 3 subtable" g.alt
Substitution2: "'aalt' Access All Alternates in Latin lookup 0 subtable" g.alt
EndChar

StartChar: h
Encoding: 104 104 76
Width: 612
GlyphClass: 2
Flags: W
LayerCount: 2
Fore
SplineSet
165 0 m 1,0,-1
 87 0 l 1,1,-1
 87 700 l 1,2,-1
 165 700 l 1,3,-1
 165 406 l 1,4,-1
 177 406 l 1,5,6
 200 454 200 454 241.5 482 c 128,-1,7
 283 510 283 510 343 510 c 0,8,9
 424 510 424 510 474.5 456.5 c 128,-1,10
 525 403 525 403 525 296 c 2,11,-1
 525 0 l 1,12,-1
 447 0 l 1,13,-1
 447 280 l 2,14,15
 447 358 447 358 412 397 c 128,-1,16
 377 436 377 436 317 436 c 0,17,18
 246 436 246 436 205.5 387.5 c 128,-1,19
 165 339 165 339 165 258 c 2,20,-1
 165 0 l 1,0,-1
EndSplineSet
EndChar

StartChar: i
Encoding: 105 105 77
Width: 612
GlyphClass: 2
Flags: W
LayerCount: 2
Fore
SplineSet
241 644 m 256,0,1
 241 673 241 673 261.5 693.5 c 128,-1,2
 282 714 282 714 311 714 c 256,3,4
 340 714 340 714 360.5 693.5 c 128,-1,5
 381 673 381 673 381 644 c 256,6,7
 381 615 381 615 360.5 594.5 c 128,-1,8
 340 574 340 574 311 574 c 256,9,10
 282 574 282 574 261.5 594.5 c 128,-1,11
 241 615 241 615 241 644 c 256,0,1
99 72 m 1,12,-1
 273 72 l 1,13,-1
 273 424 l 1,14,-1
 117 424 l 1,15,-1
 117 496 l 1,16,-1
 351 496 l 1,17,-1
 351 72 l 1,18,-1
 513 72 l 1,19,-1
 513 0 l 1,20,-1
 99 0 l 1,21,-1
 99 72 l 1,12,-1
EndSplineSet
Substitution2: "'ss02' Style Set 2 in Latin lookup 3 subtable" i.alt
Substitution2: "'aalt' Access All Alternates in Latin lookup 0 subtable" i.alt
EndChar

StartChar: j
Encoding: 106 106 78
Width: 612
GlyphClass: 2
Flags: W
LayerCount: 2
Fore
SplineSet
307 644 m 256,0,1
 307 673 307 673 327.5 693.5 c 128,-1,2
 348 714 348 714 377 714 c 256,3,4
 406 714 406 714 426.5 693.5 c 128,-1,5
 447 673 447 673 447 644 c 256,6,7
 447 615 447 615 426.5 594.5 c 128,-1,8
 406 574 406 574 377 574 c 256,9,10
 348 574 348 574 327.5 594.5 c 128,-1,11
 307 615 307 615 307 644 c 256,0,1
141 496 m 1,12,-1
 417 496 l 1,13,-1
 417 -122 l 2,14,15
 417 -156 417 -156 395.5 -178 c 128,-1,16
 374 -200 374 -200 340 -200 c 2,17,-1
 117 -200 l 1,18,-1
 117 -128 l 1,19,-1
 312 -128 l 2,20,21
 339 -128 339 -128 339 -98 c 2,22,-1
 339 424 l 1,23,-1
 141 424 l 1,24,-1
 141 496 l 1,12,-1
EndSplineSet
Substitution2: "'ss02' Style Set 2 in Latin lookup 3 subtable" j.alt
Substitution2: "'aalt' Access All Alternates in Latin lookup 0 subtable" j.alt
EndChar

StartChar: k
Encoding: 107 107 79
Width: 612
GlyphClass: 2
Flags: W
LayerCount: 2
Fore
SplineSet
215 290 m 1,0,-1
 232 290 l 1,1,-1
 421 496 l 1,2,-1
 517 496 l 1,3,-1
 517 490 l 1,4,-1
 311 263 l 1,5,-1
 311 245 l 1,6,-1
 541 6 l 1,7,-1
 541 0 l 1,8,-1
 445 0 l 1,9,-1
 234 218 l 1,10,-1
 215 218 l 1,11,-1
 215 0 l 1,12,-1
 137 0 l 1,13,-1
 137 700 l 1,14,-1
 215 700 l 1,15,-1
 215 290 l 1,0,-1
EndSplineSet
EndChar

StartChar: l
Encoding: 108 108 80
Width: 612
GlyphClass: 2
Flags: W
LayerCount: 2
Fore
SplineSet
87 72 m 1,0,-1
 267 72 l 1,1,-1
 267 628 l 1,2,-1
 93 628 l 1,3,-1
 93 700 l 1,4,-1
 345 700 l 1,5,-1
 345 72 l 1,6,-1
 525 72 l 1,7,-1
 525 0 l 1,8,-1
 87 0 l 1,9,-1
 87 72 l 1,0,-1
EndSplineSet
Substitution2: "'ss02' Style Set 2 in Latin lookup 3 subtable" l.alt
Substitution2: "'aalt' Access All Alternates in Latin lookup 0 subtable" l.alt
EndChar

StartChar: m
Encoding: 109 109 81
Width: 612
GlyphClass: 2
Flags: W
LayerCount: 2
Fore
SplineSet
564 0 m 1,0,-1
 486 0 l 1,1,-1
 486 356 l 2,2,3
 486 391 486 391 470 413.5 c 128,-1,4
 454 436 454 436 419 436 c 0,5,6
 386 436 386 436 365.5 411.5 c 128,-1,7
 345 387 345 387 345 336 c 2,8,-1
 345 0 l 1,9,-1
 267 0 l 1,10,-1
 267 360 l 2,11,12
 267 393 267 393 249 414.5 c 128,-1,13
 231 436 231 436 201 436 c 0,14,15
 165 436 165 436 145.5 410 c 128,-1,16
 126 384 126 384 126 342 c 2,17,-1
 126 0 l 1,18,-1
 48 0 l 1,19,-1
 48 496 l 1,20,-1
 126 496 l 1,21,-1
 126 442 l 1,22,-1
 138 442 l 1,23,24
 151 477 151 477 176 493.5 c 128,-1,25
 201 510 201 510 235 510 c 0,26,27
 271 510 271 510 294.5 491 c 128,-1,28
 318 472 318 472 327 442 c 1,29,-1
 339 442 l 1,30,31
 373 510 373 510 447 510 c 0,32,33
 503 510 503 510 533.5 474.5 c 128,-1,34
 564 439 564 439 564 382 c 2,35,-1
 564 0 l 1,0,-1
EndSplineSet
EndChar

StartChar: n
Encoding: 110 110 82
Width: 612
GlyphClass: 2
Flags: W
LayerCount: 2
Fore
SplineSet
165 0 m 1,0,-1
 87 0 l 1,1,-1
 87 496 l 1,2,-1
 165 496 l 1,3,-1
 165 412 l 1,4,-1
 177 412 l 1,5,6
 223 510 223 510 337 510 c 0,7,8
 423 510 423 510 474 456.5 c 128,-1,9
 525 403 525 403 525 296 c 2,10,-1
 525 0 l 1,11,-1
 447 0 l 1,12,-1
 447 280 l 2,13,14
 447 358 447 358 412 397 c 128,-1,15
 377 436 377 436 317 436 c 0,16,17
 246 436 246 436 205.5 387.5 c 128,-1,18
 165 339 165 339 165 258 c 2,19,-1
 165 0 l 1,0,-1
EndSplineSet
EndChar

StartChar: o
Encoding: 111 111 83
Width: 612
GlyphClass: 2
Flags: W
LayerCount: 2
Fore
SplineSet
555 242 m 2,0,1
 555 180 555 180 534.5 132.5 c 128,-1,2
 514 85 514 85 480 52.5 c 128,-1,3
 446 20 446 20 400.5 3 c 128,-1,4
 355 -14 355 -14 306 -14 c 0,5,6
 256 -14 256 -14 211 3 c 128,-1,7
 166 20 166 20 132 52.5 c 128,-1,8
 98 85 98 85 77.5 132.5 c 128,-1,9
 57 180 57 180 57 242 c 2,10,-1
 57 254 l 2,11,12
 57 315 57 315 77.5 362.5 c 128,-1,13
 98 410 98 410 132.5 443 c 128,-1,14
 167 476 167 476 212 493 c 128,-1,15
 257 510 257 510 306 510 c 256,16,17
 355 510 355 510 400 493 c 128,-1,18
 445 476 445 476 479.5 443 c 128,-1,19
 514 410 514 410 534.5 362.5 c 128,-1,20
 555 315 555 315 555 254 c 2,21,-1
 555 242 l 2,0,1
306 60 m 256,22,23
 342 60 342 60 372.5 72.5 c 128,-1,24
 403 85 403 85 426 109 c 128,-1,25
 449 133 449 133 462 166.5 c 128,-1,26
 475 200 475 200 475 242 c 2,27,-1
 475 254 l 2,28,29
 475 294 475 294 462 327.5 c 128,-1,30
 449 361 449 361 426 385 c 128,-1,31
 403 409 403 409 372 422.5 c 128,-1,32
 341 436 341 436 306 436 c 256,33,34
 271 436 271 436 240 422.5 c 128,-1,35
 209 409 209 409 186 385 c 128,-1,36
 163 361 163 361 150 327.5 c 128,-1,37
 137 294 137 294 137 254 c 2,38,-1
 137 242 l 2,39,40
 137 200 137 200 150 166.5 c 128,-1,41
 163 133 163 133 186 109 c 128,-1,42
 209 85 209 85 239.5 72.5 c 128,-1,43
 270 60 270 60 306 60 c 256,22,23
EndSplineSet
Substitution2: "'ordn' Ordinals in Latin lookup 29 subtable" ordmasculine
Substitution2: "'ordn' Ordinals in Latin lookup 28 subtable" ordmasculine
Substitution2: "'aalt' Access All Alternates in Latin lookup 0 subtable" ordmasculine
EndChar

StartChar: p
Encoding: 112 112 84
Width: 612
GlyphClass: 2
Flags: W
LayerCount: 2
Fore
SplineSet
147 -200 m 1,0,-1
 69 -200 l 1,1,-1
 69 496 l 1,2,-1
 147 496 l 1,3,-1
 147 418 l 1,4,-1
 159 418 l 1,5,6
 185 463 185 463 231 486.5 c 128,-1,7
 277 510 277 510 331 510 c 0,8,9
 377 510 377 510 418 493 c 128,-1,10
 459 476 459 476 490.5 444 c 128,-1,11
 522 412 522 412 540.5 365 c 128,-1,12
 559 318 559 318 559 258 c 2,13,-1
 559 238 l 2,14,15
 559 177 559 177 541 130 c 128,-1,16
 523 83 523 83 491.5 51 c 128,-1,17
 460 19 460 19 418 2.5 c 128,-1,18
 376 -14 376 -14 329 -14 c 0,19,20
 305 -14 305 -14 280 -8.5 c 128,-1,21
 255 -3 255 -3 232.5 8.5 c 128,-1,22
 210 20 210 20 191 36.5 c 128,-1,23
 172 53 172 53 159 76 c 1,24,-1
 147 76 l 1,25,-1
 147 -200 l 1,0,-1
313 60 m 0,26,27
 349 60 349 60 379 72.5 c 128,-1,28
 409 85 409 85 431.5 108 c 128,-1,29
 454 131 454 131 466.5 164 c 128,-1,30
 479 197 479 197 479 238 c 2,31,-1
 479 258 l 2,32,33
 479 298 479 298 466.5 330.5 c 128,-1,34
 454 363 454 363 431.5 386.5 c 128,-1,35
 409 410 409 410 378.5 423 c 128,-1,36
 348 436 348 436 313 436 c 256,37,38
 278 436 278 436 248 422.5 c 128,-1,39
 218 409 218 409 195.5 385 c 128,-1,40
 173 361 173 361 160 327.5 c 128,-1,41
 147 294 147 294 147 254 c 2,42,-1
 147 242 l 2,43,44
 147 201 147 201 160 167.5 c 128,-1,45
 173 134 173 134 195.5 110 c 128,-1,46
 218 86 218 86 248 73 c 128,-1,47
 278 60 278 60 313 60 c 0,26,27
EndSplineSet
EndChar

StartChar: q
Encoding: 113 113 85
Width: 612
GlyphClass: 2
Flags: W
LayerCount: 2
Fore
SplineSet
467 76 m 1,0,-1
 455 76 l 1,1,2
 442 53 442 53 423.5 36.5 c 128,-1,3
 405 20 405 20 383.5 8.5 c 128,-1,4
 362 -3 362 -3 338.5 -8.5 c 128,-1,5
 315 -14 315 -14 293 -14 c 0,6,7
 243 -14 243 -14 200 3 c 128,-1,8
 157 20 157 20 124.5 52 c 128,-1,9
 92 84 92 84 73.5 131.5 c 128,-1,10
 55 179 55 179 55 240 c 2,11,-1
 55 256 l 2,12,13
 55 316 55 316 74 363.5 c 128,-1,14
 93 411 93 411 125 443.5 c 128,-1,15
 157 476 157 476 200 493 c 128,-1,16
 243 510 243 510 291 510 c 0,17,18
 342 510 342 510 385.5 486.5 c 128,-1,19
 429 463 429 463 455 418 c 1,20,-1
 467 418 l 1,21,-1
 467 496 l 1,22,-1
 545 496 l 1,23,-1
 545 -200 l 1,24,-1
 467 -200 l 1,25,-1
 467 76 l 1,0,-1
301 60 m 0,26,27
 336 60 336 60 366 73 c 128,-1,28
 396 86 396 86 418.5 110 c 128,-1,29
 441 134 441 134 454 167.5 c 128,-1,30
 467 201 467 201 467 242 c 2,31,-1
 467 254 l 2,32,33
 467 294 467 294 454 327.5 c 128,-1,34
 441 361 441 361 418.5 385 c 128,-1,35
 396 409 396 409 365.5 422.5 c 128,-1,36
 335 436 335 436 301 436 c 0,37,38
 266 436 266 436 235.5 423 c 128,-1,39
 205 410 205 410 182.5 386 c 128,-1,40
 160 362 160 362 147.5 329 c 128,-1,41
 135 296 135 296 135 256 c 2,42,-1
 135 240 l 2,43,44
 135 198 135 198 147.5 165 c 128,-1,45
 160 132 160 132 182.5 108.5 c 128,-1,46
 205 85 205 85 235 72.5 c 128,-1,47
 265 60 265 60 301 60 c 0,26,27
EndSplineSet
EndChar

StartChar: r
Encoding: 114 114 86
Width: 612
GlyphClass: 2
Flags: W
LayerCount: 2
Fore
SplineSet
59 496 m 1,0,-1
 239 496 l 1,1,-1
 239 430 l 1,2,-1
 251 430 l 1,3,4
 270 471 270 471 305 490.5 c 128,-1,5
 340 510 340 510 385 510 c 0,6,7
 460 510 460 510 506 461 c 128,-1,8
 552 412 552 412 555 318 c 1,9,-1
 473 306 l 1,10,11
 473 375 473 375 440 405.5 c 128,-1,12
 407 436 407 436 359 436 c 0,13,14
 328 436 328 436 305.5 424 c 128,-1,15
 283 412 283 412 268 391 c 128,-1,16
 253 370 253 370 246 342 c 128,-1,17
 239 314 239 314 239 282 c 2,18,-1
 239 72 l 1,19,-1
 365 72 l 1,20,-1
 365 0 l 1,21,-1
 47 0 l 1,22,-1
 47 72 l 1,23,-1
 161 72 l 1,24,-1
 161 424 l 1,25,-1
 59 424 l 1,26,-1
 59 496 l 1,0,-1
EndSplineSet
Substitution2: "'ss02' Style Set 2 in Latin lookup 3 subtable" r.alt
Substitution2: "'aalt' Access All Alternates in Latin lookup 0 subtable" r.alt
EndChar

StartChar: s
Encoding: 115 115 87
Width: 612
GlyphClass: 2
Flags: W
LayerCount: 2
Fore
SplineSet
190 368 m 0,0,1
 190 332 190 332 220.5 313 c 128,-1,2
 251 294 251 294 332 288 c 0,3,4
 419 281 419 281 464.5 246.5 c 128,-1,5
 510 212 510 212 510 146 c 2,6,-1
 510 140 l 2,7,8
 510 104 510 104 495.5 75.5 c 128,-1,9
 481 47 481 47 455.5 27 c 128,-1,10
 430 7 430 7 393.5 -3.5 c 128,-1,11
 357 -14 357 -14 314 -14 c 0,12,13
 256 -14 256 -14 214.5 1.5 c 128,-1,14
 173 17 173 17 145.5 42.5 c 128,-1,15
 118 68 118 68 104 100.5 c 128,-1,16
 90 133 90 133 88 166 c 1,17,-1
 162 184 l 1,18,19
 167 127 167 127 206 92.5 c 128,-1,20
 245 58 245 58 310 58 c 0,21,22
 365 58 365 58 398.5 79.5 c 128,-1,23
 432 101 432 101 432 140 c 0,24,25
 432 182 432 182 399 200 c 128,-1,26
 366 218 366 218 292 223 c 0,27,28
 206 229 206 229 160 263 c 128,-1,29
 114 297 114 297 114 362 c 2,30,-1
 114 368 l 2,31,32
 114 403 114 403 129 429.5 c 128,-1,33
 144 456 144 456 169.5 474 c 128,-1,34
 195 492 195 492 227 501 c 128,-1,35
 259 510 259 510 294 510 c 0,36,37
 343 510 343 510 380 496.5 c 128,-1,38
 417 483 417 483 442 461.5 c 128,-1,39
 467 440 467 440 480.5 412 c 128,-1,40
 494 384 494 384 498 356 c 1,41,-1
 424 338 l 1,42,43
 419 386 419 386 385.5 413 c 128,-1,44
 352 440 352 440 298 440 c 0,45,46
 277 440 277 440 257.5 435.5 c 128,-1,47
 238 431 238 431 223 422 c 128,-1,48
 208 413 208 413 199 399.5 c 128,-1,49
 190 386 190 386 190 368 c 0,0,1
EndSplineSet
EndChar

StartChar: t
Encoding: 116 116 88
Width: 612
GlyphClass: 2
Flags: W
LayerCount: 2
Fore
SplineSet
70 496 m 1,0,-1
 226 496 l 1,1,-1
 226 700 l 1,2,-1
 304 700 l 1,3,-1
 304 496 l 1,4,-1
 496 496 l 1,5,-1
 496 424 l 1,6,-1
 304 424 l 1,7,-1
 304 102 l 2,8,9
 304 72 304 72 331 72 c 2,10,-1
 472 72 l 1,11,-1
 472 0 l 1,12,-1
 303 0 l 2,13,14
 269 0 269 0 247.5 22 c 128,-1,15
 226 44 226 44 226 78 c 2,16,-1
 226 424 l 1,17,-1
 70 424 l 1,18,-1
 70 496 l 1,0,-1
EndSplineSet
EndChar

StartChar: u
Encoding: 117 117 89
Width: 612
GlyphClass: 2
Flags: W
LayerCount: 2
Fore
SplineSet
441 496 m 1,0,-1
 519 496 l 1,1,-1
 519 0 l 1,2,-1
 441 0 l 1,3,-1
 441 90 l 1,4,-1
 429 90 l 1,5,6
 405 42 405 42 366 14 c 128,-1,7
 327 -14 327 -14 267 -14 c 0,8,9
 226 -14 226 -14 191.5 -0.5 c 128,-1,10
 157 13 157 13 132.5 40 c 128,-1,11
 108 67 108 67 94.5 107 c 128,-1,12
 81 147 81 147 81 200 c 2,13,-1
 81 496 l 1,14,-1
 159 496 l 1,15,-1
 159 210 l 2,16,17
 159 132 159 132 191 96 c 128,-1,18
 223 60 223 60 289 60 c 0,19,20
 360 60 360 60 400.5 108.5 c 128,-1,21
 441 157 441 157 441 238 c 2,22,-1
 441 496 l 1,0,-1
EndSplineSet
EndChar

StartChar: v
Encoding: 118 118 90
Width: 612
GlyphClass: 2
Flags: W
LayerCount: 2
Fore
SplineSet
382 0 m 1,0,-1
 228 0 l 1,1,-1
 55 496 l 1,2,-1
 147 496 l 1,3,-1
 299 36 l 1,4,-1
 311 36 l 1,5,-1
 463 496 l 1,6,-1
 555 496 l 1,7,-1
 382 0 l 1,0,-1
EndSplineSet
EndChar

StartChar: w
Encoding: 119 119 91
Width: 612
GlyphClass: 2
Flags: W
LayerCount: 2
Fore
SplineSet
516 0 m 1,0,-1
 372 0 l 1,1,-1
 312 460 l 1,2,-1
 300 460 l 1,3,-1
 240 0 l 1,4,-1
 96 0 l 1,5,-1
 18 496 l 1,6,-1
 98 496 l 1,7,-1
 164 36 l 1,8,-1
 176 36 l 1,9,-1
 234 496 l 1,10,-1
 378 496 l 1,11,-1
 436 36 l 1,12,-1
 448 36 l 1,13,-1
 514 496 l 1,14,-1
 594 496 l 1,15,-1
 516 0 l 1,0,-1
EndSplineSet
EndChar

StartChar: x
Encoding: 120 120 92
Width: 612
GlyphClass: 2
Flags: W
LayerCount: 2
Fore
SplineSet
440 496 m 1,0,-1
 529 496 l 1,1,-1
 383 260 l 1,2,-1
 383 248 l 1,3,-1
 541 0 l 1,4,-1
 450 0 l 1,5,-1
 315 218 l 1,6,-1
 297 218 l 1,7,-1
 162 0 l 1,8,-1
 71 0 l 1,9,-1
 229 248 l 1,10,-1
 229 260 l 1,11,-1
 83 496 l 1,12,-1
 172 496 l 1,13,-1
 297 290 l 1,14,-1
 315 290 l 1,15,-1
 440 496 l 1,0,-1
EndSplineSet
EndChar

StartChar: y
Encoding: 121 121 93
Width: 612
GlyphClass: 2
Flags: W
LayerCount: 2
Fore
SplineSet
447 90 m 1,0,-1
 435 90 l 1,1,2
 411 42 411 42 372 14 c 128,-1,3
 333 -14 333 -14 273 -14 c 0,4,5
 232 -14 232 -14 197.5 -0.5 c 128,-1,6
 163 13 163 13 138.5 40 c 128,-1,7
 114 67 114 67 100.5 107 c 128,-1,8
 87 147 87 147 87 200 c 2,9,-1
 87 496 l 1,10,-1
 165 496 l 1,11,-1
 165 210 l 2,12,13
 165 132 165 132 197 96 c 128,-1,14
 229 60 229 60 295 60 c 0,15,16
 366 60 366 60 406.5 108.5 c 128,-1,17
 447 157 447 157 447 238 c 2,18,-1
 447 496 l 1,19,-1
 525 496 l 1,20,-1
 525 -122 l 2,21,22
 525 -156 525 -156 503.5 -178 c 128,-1,23
 482 -200 482 -200 448 -200 c 2,24,-1
 165 -200 l 1,25,-1
 165 -128 l 1,26,-1
 420 -128 l 2,27,28
 447 -128 447 -128 447 -98 c 2,29,-1
 447 90 l 1,0,-1
EndSplineSet
Substitution2: "'ss02' Style Set 2 in Latin lookup 3 subtable" y.alt
Substitution2: "'aalt' Access All Alternates in Latin lookup 0 subtable" y.alt
EndChar

StartChar: z
Encoding: 122 122 94
Width: 612
GlyphClass: 2
Flags: W
LayerCount: 2
Fore
SplineSet
523 72 m 1,0,-1
 523 0 l 1,1,-1
 91 0 l 1,2,-1
 91 124 l 1,3,-1
 445 412 l 1,4,-1
 445 424 l 1,5,-1
 97 424 l 1,6,-1
 97 496 l 1,7,-1
 511 496 l 1,8,-1
 511 376 l 1,9,-1
 155 84 l 1,10,-1
 155 72 l 1,11,-1
 523 72 l 1,0,-1
EndSplineSet
EndChar

StartChar: braceleft
Encoding: 123 123 95
Width: 612
GlyphClass: 2
Flags: W
LayerCount: 2
Fore
SplineSet
278 778 m 2,0,1
 278 812 278 812 299.5 834 c 128,-1,2
 321 856 321 856 355 856 c 2,3,-1
 452 856 l 1,4,-1
 452 784 l 1,5,-1
 383 784 l 2,6,7
 356 784 356 784 356 754 c 2,8,-1
 356 434 l 2,9,10
 356 400 356 400 334.5 378 c 128,-1,11
 313 356 313 356 278 356 c 2,12,-1
 266 356 l 1,13,-1
 266 344 l 1,14,-1
 278 344 l 2,15,16
 313 344 313 344 334.5 322 c 128,-1,17
 356 300 356 300 356 266 c 2,18,-1
 356 -54 l 2,19,20
 356 -84 356 -84 383 -84 c 2,21,-1
 452 -84 l 1,22,-1
 452 -156 l 1,23,-1
 355 -156 l 2,24,25
 321 -156 321 -156 299.5 -134 c 128,-1,26
 278 -112 278 -112 278 -78 c 2,27,-1
 278 267 l 2,28,29
 278 296 278 296 251 296 c 2,30,-1
 200 296 l 1,31,-1
 200 404 l 1,32,-1
 251 404 l 2,33,34
 278 404 278 404 278 433 c 2,35,-1
 278 778 l 2,0,1
EndSplineSet
EndChar

StartChar: bar
Encoding: 124 124 96
Width: 612
GlyphClass: 2
Flags: W
LayerCount: 2
Fore
SplineSet
342 -156 m 1,0,-1
 270 -156 l 1,1,-1
 270 856 l 1,2,-1
 342 856 l 1,3,-1
 342 -156 l 1,0,-1
EndSplineSet
EndChar

StartChar: braceright
Encoding: 125 125 97
Width: 612
GlyphClass: 2
Flags: W
LayerCount: 2
Fore
SplineSet
334 433 m 2,0,1
 334 404 334 404 361 404 c 2,2,-1
 412 404 l 1,3,-1
 412 296 l 1,4,-1
 361 296 l 2,5,6
 334 296 334 296 334 267 c 2,7,-1
 334 -78 l 2,8,9
 334 -112 334 -112 312.5 -134 c 128,-1,10
 291 -156 291 -156 257 -156 c 2,11,-1
 160 -156 l 1,12,-1
 160 -84 l 1,13,-1
 229 -84 l 2,14,15
 256 -84 256 -84 256 -54 c 2,16,-1
 256 266 l 2,17,18
 256 300 256 300 277.5 322 c 128,-1,19
 299 344 299 344 334 344 c 2,20,-1
 346 344 l 1,21,-1
 346 356 l 1,22,-1
 334 356 l 2,23,24
 299 356 299 356 277.5 378 c 128,-1,25
 256 400 256 400 256 434 c 2,26,-1
 256 754 l 2,27,28
 256 784 256 784 229 784 c 2,29,-1
 160 784 l 1,30,-1
 160 856 l 1,31,-1
 257 856 l 2,32,33
 291 856 291 856 312.5 834 c 128,-1,34
 334 812 334 812 334 778 c 2,35,-1
 334 433 l 2,0,1
EndSplineSet
EndChar

StartChar: asciitilde
Encoding: 126 126 98
Width: 612
GlyphClass: 2
Flags: W
LayerCount: 2
Fore
SplineSet
338 316 m 0,0,1
 340 308 340 308 345 299.5 c 128,-1,2
 350 291 350 291 361 291 c 0,3,4
 369 291 369 291 381 300 c 2,5,-1
 510 395 l 1,6,-1
 548 345 l 1,7,-1
 425 251 l 2,8,9
 411 240 411 240 395.5 232 c 128,-1,10
 380 224 380 224 357 224 c 0,11,12
 318 224 318 224 301 244.5 c 128,-1,13
 284 265 284 265 273 300 c 0,14,15
 271 309 271 309 266.5 318.5 c 128,-1,16
 262 328 262 328 250 328 c 0,17,18
 241 328 241 328 227 317 c 2,19,-1
 101 224 l 1,20,-1
 63 274 l 1,21,-1
 186 368 l 2,22,23
 201 380 201 380 217 387.5 c 128,-1,24
 233 395 233 395 254 395 c 0,25,26
 292 395 292 395 309.5 373.5 c 128,-1,27
 327 352 327 352 338 316 c 0,0,1
EndSplineSet
EndChar

StartChar: cent
Encoding: 162 162 101
Width: 612
GlyphClass: 2
Flags: W
LayerCount: 2
Fore
SplineSet
351 609 m 1,0,1
 432 599 432 599 484.5 548 c 128,-1,2
 537 497 537 497 550 422 c 1,3,-1
 472 404 l 1,4,5
 467 449 467 449 437 486 c 128,-1,6
 407 523 407 523 351 534 c 1,7,-1
 351 165 l 1,8,9
 379 170 379 170 400.5 182.5 c 128,-1,10
 422 195 422 195 437 213 c 128,-1,11
 452 231 452 231 461.5 252 c 128,-1,12
 471 273 471 273 474 296 c 1,13,-1
 552 278 l 1,14,15
 538 203 538 203 486 151.5 c 128,-1,16
 434 100 434 100 351 90 c 1,17,-1
 351 28 l 1,18,-1
 279 28 l 1,19,-1
 279 90 l 1,20,21
 233 96 233 96 193 115 c 128,-1,22
 153 134 153 134 123.5 166.5 c 128,-1,23
 94 199 94 199 77 243 c 128,-1,24
 60 287 60 287 60 342 c 2,25,-1
 60 354 l 2,26,27
 60 408 60 408 77 452.5 c 128,-1,28
 94 497 94 497 123.5 530 c 128,-1,29
 153 563 153 563 193 583 c 128,-1,30
 233 603 233 603 279 609 c 1,31,-1
 279 672 l 1,32,-1
 351 672 l 1,33,-1
 351 609 l 1,0,1
140 342 m 2,34,35
 140 305 140 305 150.5 275 c 128,-1,36
 161 245 161 245 179.5 222.5 c 128,-1,37
 198 200 198 200 223.5 185.5 c 128,-1,38
 249 171 249 171 279 165 c 1,39,-1
 279 534 l 1,40,41
 249 528 249 528 224 512.5 c 128,-1,42
 199 497 199 497 180 473.5 c 128,-1,43
 161 450 161 450 150.5 419.5 c 128,-1,44
 140 389 140 389 140 354 c 2,45,-1
 140 342 l 2,34,35
EndSplineSet
EndChar

StartChar: sterling
Encoding: 163 163 102
Width: 612
GlyphClass: 2
Flags: W
LayerCount: 2
Fore
SplineSet
248 366 m 1,0,-1
 338 366 l 1,1,-1
 338 294 l 1,2,-1
 248 294 l 1,3,-1
 248 174 l 1,4,-1
 490 174 l 1,5,-1
 490 102 l 1,6,-1
 110 102 l 1,7,-1
 110 174 l 1,8,-1
 170 174 l 1,9,-1
 170 294 l 1,10,-1
 110 294 l 1,11,-1
 110 366 l 1,12,-1
 170 366 l 1,13,-1
 170 440 l 2,14,15
 170 523 170 523 214 567.5 c 128,-1,16
 258 612 258 612 336 612 c 0,17,18
 411 612 411 612 456.5 567.5 c 128,-1,19
 502 523 502 523 502 440 c 2,20,-1
 502 416 l 1,21,-1
 424 416 l 1,22,-1
 424 440 l 2,23,24
 424 491 424 491 399 515.5 c 128,-1,25
 374 540 374 540 336 540 c 256,26,27
 298 540 298 540 273 515.5 c 128,-1,28
 248 491 248 491 248 440 c 2,29,-1
 248 366 l 1,0,-1
EndSplineSet
Substitution2: "'case' Case-Sensitive Forms in Latin lookup 31 subtable" sterling.cap
Substitution2: "'case' Case-Sensitive Forms in Latin lookup 30 subtable" sterling.cap
Substitution2: "'aalt' Access All Alternates in Latin lookup 0 subtable" sterling.cap
EndChar

StartChar: currency
Encoding: 164 164 103
Width: 612
GlyphClass: 2
Flags: W
LayerCount: 2
Fore
SplineSet
56 350 m 0,0,1
 56 391 56 391 68 428 c 128,-1,2
 80 465 80 465 103 496 c 1,3,-1
 44 555 l 1,4,-1
 101 612 l 1,5,-1
 160 553 l 1,6,7
 191 575 191 575 227.5 587.5 c 128,-1,8
 264 600 264 600 306 600 c 0,9,10
 347 600 347 600 384 587.5 c 128,-1,11
 421 575 421 575 452 553 c 1,12,-1
 511 612 l 1,13,-1
 568 555 l 1,14,-1
 509 496 l 1,15,16
 531 465 531 465 543.5 428 c 128,-1,17
 556 391 556 391 556 350 c 0,18,19
 556 308 556 308 543.5 271.5 c 128,-1,20
 531 235 531 235 509 204 c 1,21,-1
 568 145 l 1,22,-1
 511 88 l 1,23,-1
 452 147 l 1,24,25
 421 124 421 124 384 112 c 128,-1,26
 347 100 347 100 306 100 c 0,27,28
 264 100 264 100 227.5 112 c 128,-1,29
 191 124 191 124 160 147 c 1,30,-1
 101 88 l 1,31,-1
 44 145 l 1,32,-1
 103 204 l 1,33,34
 80 235 80 235 68 271.5 c 128,-1,35
 56 308 56 308 56 350 c 0,0,1
134 350 m 256,36,37
 134 314 134 314 147.5 282.5 c 128,-1,38
 161 251 161 251 184 228 c 128,-1,39
 207 205 207 205 238.5 191.5 c 128,-1,40
 270 178 270 178 306 178 c 256,41,42
 342 178 342 178 373.5 191.5 c 128,-1,43
 405 205 405 205 428 228 c 128,-1,44
 451 251 451 251 464.5 282.5 c 128,-1,45
 478 314 478 314 478 350 c 256,46,47
 478 386 478 386 464.5 417.5 c 128,-1,48
 451 449 451 449 428 472 c 128,-1,49
 405 495 405 495 373.5 508.5 c 128,-1,50
 342 522 342 522 306 522 c 256,51,52
 270 522 270 522 238.5 508.5 c 128,-1,53
 207 495 207 495 184 472 c 128,-1,54
 161 449 161 449 147.5 417.5 c 128,-1,55
 134 386 134 386 134 350 c 256,36,37
EndSplineSet
EndChar

StartChar: yen
Encoding: 165 165 104
Width: 612
GlyphClass: 2
Flags: W
LayerCount: 2
Fore
SplineSet
132 366 m 1,0,-1
 218 366 l 1,1,-1
 96 598 l 1,2,-1
 182 598 l 1,3,-1
 300 366 l 1,4,-1
 312 366 l 1,5,-1
 430 598 l 1,6,-1
 516 598 l 1,7,-1
 394 366 l 1,8,-1
 480 366 l 1,9,-1
 480 294 l 1,10,-1
 342 294 l 1,11,-1
 342 258 l 1,12,-1
 480 258 l 1,13,-1
 480 186 l 1,14,-1
 342 186 l 1,15,-1
 342 102 l 1,16,-1
 270 102 l 1,17,-1
 270 186 l 1,18,-1
 132 186 l 1,19,-1
 132 258 l 1,20,-1
 270 258 l 1,21,-1
 270 294 l 1,22,-1
 132 294 l 1,23,-1
 132 366 l 1,0,-1
EndSplineSet
Substitution2: "'case' Case-Sensitive Forms in Latin lookup 31 subtable" yen.cap
Substitution2: "'case' Case-Sensitive Forms in Latin lookup 30 subtable" yen.cap
Substitution2: "'aalt' Access All Alternates in Latin lookup 0 subtable" yen.cap
EndChar

StartChar: brokenbar
Encoding: 166 166 105
Width: 612
GlyphClass: 2
Flags: W
LayerCount: 2
Fore
SplineSet
342 314 m 1,0,-1
 342 -156 l 1,1,-1
 270 -156 l 1,2,-1
 270 314 l 1,3,-1
 342 314 l 1,0,-1
270 386 m 1,4,-1
 270 856 l 1,5,-1
 342 856 l 1,6,-1
 342 386 l 1,7,-1
 270 386 l 1,4,-1
EndSplineSet
EndChar

StartChar: section
Encoding: 167 167 106
Width: 612
GlyphClass: 2
Flags: W
LayerCount: 2
Fore
SplineSet
184 494 m 0,0,1
 184 510 184 510 189 522 c 128,-1,2
 194 534 194 534 202 545 c 1,3,4
 195 556 195 556 189.5 571 c 128,-1,5
 184 586 184 586 184 604 c 0,6,7
 184 629 184 629 194 649.5 c 128,-1,8
 204 670 204 670 221.5 684.5 c 128,-1,9
 239 699 239 699 262 706.5 c 128,-1,10
 285 714 285 714 312 714 c 0,11,12
 343 714 343 714 367 704.5 c 128,-1,13
 391 695 391 695 407 680 c 128,-1,14
 423 665 423 665 431 645 c 128,-1,15
 439 625 439 625 439 604 c 2,16,-1
 439 588 l 1,17,-1
 371 588 l 1,18,-1
 371 594 l 2,19,20
 371 615 371 615 354 631.5 c 128,-1,21
 337 648 337 648 308 648 c 0,22,23
 282 648 282 648 268 636 c 128,-1,24
 254 624 254 624 254 605 c 0,25,26
 254 587 254 587 271.5 575 c 128,-1,27
 289 563 289 563 340 554 c 0,28,29
 392 545 392 545 418.5 520 c 128,-1,30
 445 495 445 495 445 448 c 0,31,32
 445 433 445 433 440 420.5 c 128,-1,33
 435 408 435 408 428 395 c 1,34,35
 445 371 445 371 445 336 c 0,36,37
 445 285 445 285 409 251.5 c 128,-1,38
 373 218 373 218 312 218 c 0,39,40
 243 218 243 218 207.5 255 c 128,-1,41
 172 292 172 292 172 347 c 2,42,-1
 172 359 l 1,43,-1
 240 359 l 1,44,-1
 240 353 l 2,45,46
 240 325 240 325 258 304.5 c 128,-1,47
 276 284 276 284 314 284 c 0,48,49
 349 284 349 284 362 299 c 128,-1,50
 375 314 375 314 375 331 c 0,51,52
 375 351 375 351 358.5 364 c 128,-1,53
 342 377 342 377 294 386 c 0,54,55
 273 390 273 390 253.5 396.5 c 128,-1,56
 234 403 234 403 218.5 415 c 128,-1,57
 203 427 203 427 193.5 446 c 128,-1,58
 184 465 184 465 184 494 c 0,0,1
340 441 m 0,59,60
 348 439 348 439 357.5 436.5 c 128,-1,61
 367 434 367 434 374 432 c 0,62,63
 375 434 375 434 375 438.5 c 128,-1,64
 375 443 375 443 375 445 c 0,65,66
 375 463 375 463 358.5 476.5 c 128,-1,67
 342 490 342 490 294 499 c 0,68,69
 285 501 285 501 275 503.5 c 128,-1,70
 265 506 265 506 256 509 c 0,71,72
 255 507 255 507 254.5 501.5 c 128,-1,73
 254 496 254 496 254 493 c 0,74,75
 254 476 254 476 271.5 463 c 128,-1,76
 289 450 289 450 340 441 c 0,59,60
EndSplineSet
Substitution2: "'case' Case-Sensitive Forms in Latin lookup 31 subtable" section.cap
Substitution2: "'case' Case-Sensitive Forms in Latin lookup 30 subtable" section.cap
Substitution2: "'aalt' Access All Alternates in Latin lookup 0 subtable" section.cap
EndChar

StartChar: dieresis
Encoding: 168 168 107
Width: 612
GlyphClass: 2
Flags: W
LayerCount: 2
Fore
SplineSet
136 644 m 256,0,1
 136 673 136 673 156.5 693.5 c 128,-1,2
 177 714 177 714 206 714 c 256,3,4
 235 714 235 714 255.5 693.5 c 128,-1,5
 276 673 276 673 276 644 c 256,6,7
 276 615 276 615 255.5 594.5 c 128,-1,8
 235 574 235 574 206 574 c 256,9,10
 177 574 177 574 156.5 594.5 c 128,-1,11
 136 615 136 615 136 644 c 256,0,1
336 644 m 256,12,13
 336 673 336 673 356.5 693.5 c 128,-1,14
 377 714 377 714 406 714 c 256,15,16
 435 714 435 714 455.5 693.5 c 128,-1,17
 476 673 476 673 476 644 c 256,18,19
 476 615 476 615 455.5 594.5 c 128,-1,20
 435 574 435 574 406 574 c 256,21,22
 377 574 377 574 356.5 594.5 c 128,-1,23
 336 615 336 615 336 644 c 256,12,13
EndSplineSet
EndChar

StartChar: copyright
Encoding: 169 169 108
Width: 612
GlyphClass: 2
Flags: W
LayerCount: 2
Fore
SplineSet
58 556 m 256,0,1
 58 607 58 607 77.5 652.5 c 128,-1,2
 97 698 97 698 130.5 731.5 c 128,-1,3
 164 765 164 765 209.5 784.5 c 128,-1,4
 255 804 255 804 306 804 c 256,5,6
 357 804 357 804 402.5 784.5 c 128,-1,7
 448 765 448 765 481.5 731.5 c 128,-1,8
 515 698 515 698 534.5 652.5 c 128,-1,9
 554 607 554 607 554 556 c 256,10,11
 554 505 554 505 534.5 459.5 c 128,-1,12
 515 414 515 414 481.5 380.5 c 128,-1,13
 448 347 448 347 402.5 327.5 c 128,-1,14
 357 308 357 308 306 308 c 256,15,16
 255 308 255 308 209.5 327.5 c 128,-1,17
 164 347 164 347 130.5 380.5 c 128,-1,18
 97 414 97 414 77.5 459.5 c 128,-1,19
 58 505 58 505 58 556 c 256,0,1
106 556 m 256,20,21
 106 514 106 514 121.5 477.5 c 128,-1,22
 137 441 137 441 164 414 c 128,-1,23
 191 387 191 387 227.5 371.5 c 128,-1,24
 264 356 264 356 306 356 c 256,25,26
 348 356 348 356 384.5 371.5 c 128,-1,27
 421 387 421 387 448 414 c 128,-1,28
 475 441 475 441 490.5 477.5 c 128,-1,29
 506 514 506 514 506 556 c 256,30,31
 506 598 506 598 490.5 634.5 c 128,-1,32
 475 671 475 671 448 698 c 128,-1,33
 421 725 421 725 384.5 740.5 c 128,-1,34
 348 756 348 756 306 756 c 256,35,36
 264 756 264 756 227.5 740.5 c 128,-1,37
 191 725 191 725 164 698 c 128,-1,38
 137 671 137 671 121.5 634.5 c 128,-1,39
 106 598 106 598 106 556 c 256,20,21
306 454 m 256,40,41
 329 454 329 454 342 468.5 c 128,-1,42
 355 483 355 483 355 505 c 2,43,-1
 355 523 l 1,44,-1
 409 523 l 1,45,-1
 409 511 l 2,46,47
 409 465 409 465 383 435.5 c 128,-1,48
 357 406 357 406 306 406 c 0,49,50
 256 406 256 406 228.5 435.5 c 128,-1,51
 201 465 201 465 201 511 c 2,52,-1
 201 601 l 2,53,54
 201 647 201 647 229 676.5 c 128,-1,55
 257 706 257 706 306 706 c 0,56,57
 357 706 357 706 383 676.5 c 128,-1,58
 409 647 409 647 409 601 c 2,59,-1
 409 589 l 1,60,-1
 355 589 l 1,61,-1
 355 607 l 2,62,63
 355 629 355 629 342 643.5 c 128,-1,64
 329 658 329 658 306 658 c 256,65,66
 283 658 283 658 269 643.5 c 128,-1,67
 255 629 255 629 255 607 c 2,68,-1
 255 505 l 2,69,70
 255 483 255 483 269 468.5 c 128,-1,71
 283 454 283 454 306 454 c 256,40,41
EndSplineSet
Substitution2: "'case' Case-Sensitive Forms in Latin lookup 31 subtable" copyright.cap
Substitution2: "'case' Case-Sensitive Forms in Latin lookup 30 subtable" copyright.cap
Substitution2: "'aalt' Access All Alternates in Latin lookup 0 subtable" copyright.cap
EndChar

StartChar: ordfeminine
Encoding: 170 170 109
Width: 612
GlyphClass: 2
Flags: W
LayerCount: 2
Fore
SplineSet
373 452 m 1,0,1
 363 428 363 428 339.5 417 c 128,-1,2
 316 406 316 406 289 406 c 256,3,4
 262 406 262 406 238 416 c 128,-1,5
 214 426 214 426 196 445 c 128,-1,6
 178 464 178 464 167.5 492 c 128,-1,7
 157 520 157 520 157 556 c 256,8,9
 157 592 157 592 167.5 619.5 c 128,-1,10
 178 647 178 647 196 666.5 c 128,-1,11
 214 686 214 686 238.5 696 c 128,-1,12
 263 706 263 706 291 706 c 0,13,14
 350 706 350 706 373 666 c 1,15,-1
 379 666 l 1,16,-1
 379 698 l 1,17,-1
 445 698 l 1,18,-1
 445 489 l 2,19,20
 445 472 445 472 461 472 c 2,21,-1
 475 472 l 1,22,-1
 475 412 l 1,23,-1
 427 412 l 2,24,25
 407 412 407 412 394 422 c 128,-1,26
 381 432 381 432 379 452 c 1,27,-1
 373 452 l 1,0,1
301 466 m 0,28,29
 333 466 333 466 356 487.5 c 128,-1,30
 379 509 379 509 379 556 c 0,31,32
 379 601 379 601 357.5 623.5 c 128,-1,33
 336 646 336 646 301 646 c 0,34,35
 265 646 265 646 244 620.5 c 128,-1,36
 223 595 223 595 223 556 c 0,37,38
 223 512 223 512 244 489 c 128,-1,39
 265 466 265 466 301 466 c 0,28,29
EndSplineSet
EndChar

StartChar: guillemotleft
Encoding: 171 171 110
Width: 612
GlyphClass: 2
Flags: W
LayerCount: 2
Fore
SplineSet
312 12 m 1,0,-1
 78 170 l 1,1,-1
 78 326 l 1,2,-1
 312 484 l 1,3,-1
 318 484 l 1,4,-1
 318 396 l 1,5,-1
 108 254 l 1,6,-1
 108 242 l 1,7,-1
 318 100 l 1,8,-1
 318 12 l 1,9,-1
 312 12 l 1,0,-1
528 12 m 1,10,-1
 294 170 l 1,11,-1
 294 326 l 1,12,-1
 528 484 l 1,13,-1
 534 484 l 1,14,-1
 534 396 l 1,15,-1
 324 254 l 1,16,-1
 324 242 l 1,17,-1
 534 100 l 1,18,-1
 534 12 l 1,19,-1
 528 12 l 1,10,-1
EndSplineSet
EndChar

StartChar: logicalnot
Encoding: 172 172 111
Width: 612
GlyphClass: 2
Flags: W
LayerCount: 2
Fore
SplineSet
97 386 m 1,0,-1
 515 386 l 1,1,-1
 515 230 l 1,2,-1
 443 230 l 1,3,-1
 443 314 l 1,4,-1
 97 314 l 1,5,-1
 97 386 l 1,0,-1
EndSplineSet
EndChar

StartChar: registered
Encoding: 174 174 112
Width: 612
GlyphClass: 2
Flags: W
LayerCount: 2
Fore
SplineSet
58 556 m 256,0,1
 58 607 58 607 77.5 652.5 c 128,-1,2
 97 698 97 698 130.5 731.5 c 128,-1,3
 164 765 164 765 209.5 784.5 c 128,-1,4
 255 804 255 804 306 804 c 256,5,6
 357 804 357 804 402.5 784.5 c 128,-1,7
 448 765 448 765 481.5 731.5 c 128,-1,8
 515 698 515 698 534.5 652.5 c 128,-1,9
 554 607 554 607 554 556 c 256,10,11
 554 505 554 505 534.5 459.5 c 128,-1,12
 515 414 515 414 481.5 380.5 c 128,-1,13
 448 347 448 347 402.5 327.5 c 128,-1,14
 357 308 357 308 306 308 c 256,15,16
 255 308 255 308 209.5 327.5 c 128,-1,17
 164 347 164 347 130.5 380.5 c 128,-1,18
 97 414 97 414 77.5 459.5 c 128,-1,19
 58 505 58 505 58 556 c 256,0,1
106 556 m 256,20,21
 106 514 106 514 121.5 477.5 c 128,-1,22
 137 441 137 441 164 414 c 128,-1,23
 191 387 191 387 227.5 371.5 c 128,-1,24
 264 356 264 356 306 356 c 256,25,26
 348 356 348 356 384.5 371.5 c 128,-1,27
 421 387 421 387 448 414 c 128,-1,28
 475 441 475 441 490.5 477.5 c 128,-1,29
 506 514 506 514 506 556 c 256,30,31
 506 598 506 598 490.5 634.5 c 128,-1,32
 475 671 475 671 448 698 c 128,-1,33
 421 725 421 725 384.5 740.5 c 128,-1,34
 348 756 348 756 306 756 c 256,35,36
 264 756 264 756 227.5 740.5 c 128,-1,37
 191 725 191 725 164 698 c 128,-1,38
 137 671 137 671 121.5 634.5 c 128,-1,39
 106 598 106 598 106 556 c 256,20,21
402 412 m 1,40,-1
 348 412 l 1,41,-1
 348 495 l 2,42,43
 348 506 348 506 341.5 513 c 128,-1,44
 335 520 335 520 323 520 c 2,45,-1
 276 520 l 1,46,-1
 276 412 l 1,47,-1
 222 412 l 1,48,-1
 222 700 l 1,49,-1
 318 700 l 2,50,51
 363 700 363 700 385.5 676 c 128,-1,52
 408 652 408 652 408 620 c 0,53,54
 408 594 408 594 399.5 576.5 c 128,-1,55
 391 559 391 559 368 549 c 1,56,-1
 368 543 l 1,57,58
 386 541 386 541 394 528.5 c 128,-1,59
 402 516 402 516 402 502 c 2,60,-1
 402 412 l 1,40,-1
276 568 m 1,61,-1
 308 568 l 2,62,63
 331 568 331 568 342.5 580.5 c 128,-1,64
 354 593 354 593 354 612 c 256,65,66
 354 631 354 631 342.5 642 c 128,-1,67
 331 653 331 653 308 653 c 2,68,-1
 276 653 l 1,69,-1
 276 568 l 1,61,-1
EndSplineSet
Substitution2: "'case' Case-Sensitive Forms in Latin lookup 31 subtable" registered.cap
Substitution2: "'case' Case-Sensitive Forms in Latin lookup 30 subtable" registered.cap
Substitution2: "'aalt' Access All Alternates in Latin lookup 0 subtable" registered.cap
EndChar

StartChar: macron
Encoding: 175 175 113
Width: 612
GlyphClass: 2
Flags: W
LayerCount: 2
Fore
SplineSet
447 570 m 1,0,-1
 165 570 l 1,1,-1
 165 636 l 1,2,-1
 447 636 l 1,3,-1
 447 570 l 1,0,-1
EndSplineSet
EndChar

StartChar: degree
Encoding: 176 176 114
Width: 612
GlyphClass: 2
Flags: W
LayerCount: 2
Fore
SplineSet
161 569 m 256,0,1
 161 599 161 599 172.5 625.5 c 128,-1,2
 184 652 184 652 203.5 671.5 c 128,-1,3
 223 691 223 691 249.5 702.5 c 128,-1,4
 276 714 276 714 306 714 c 256,5,6
 336 714 336 714 362.5 702.5 c 128,-1,7
 389 691 389 691 408.5 671.5 c 128,-1,8
 428 652 428 652 439.5 625.5 c 128,-1,9
 451 599 451 599 451 569 c 256,10,11
 451 539 451 539 439.5 512.5 c 128,-1,12
 428 486 428 486 408.5 466.5 c 128,-1,13
 389 447 389 447 362.5 435.5 c 128,-1,14
 336 424 336 424 306 424 c 256,15,16
 276 424 276 424 249.5 435.5 c 128,-1,17
 223 447 223 447 203.5 466.5 c 128,-1,18
 184 486 184 486 172.5 512.5 c 128,-1,19
 161 539 161 539 161 569 c 256,0,1
233 569 m 256,20,21
 233 539 233 539 254.5 517.5 c 128,-1,22
 276 496 276 496 306 496 c 256,23,24
 336 496 336 496 357.5 517.5 c 128,-1,25
 379 539 379 539 379 569 c 256,26,27
 379 599 379 599 357.5 620.5 c 128,-1,28
 336 642 336 642 306 642 c 256,29,30
 276 642 276 642 254.5 620.5 c 128,-1,31
 233 599 233 599 233 569 c 256,20,21
EndSplineSet
EndChar

StartChar: plusminus
Encoding: 177 177 115
Width: 612
GlyphClass: 2
Flags: W
LayerCount: 2
Fore
SplineSet
97 386 m 1,0,-1
 270 386 l 1,1,-1
 270 559 l 1,2,-1
 342 559 l 1,3,-1
 342 386 l 1,4,-1
 515 386 l 1,5,-1
 515 314 l 1,6,-1
 342 314 l 1,7,-1
 342 141 l 1,8,-1
 270 141 l 1,9,-1
 270 314 l 1,10,-1
 97 314 l 1,11,-1
 97 386 l 1,0,-1
97 72 m 1,12,-1
 515 72 l 1,13,-1
 515 0 l 1,14,-1
 97 0 l 1,15,-1
 97 72 l 1,12,-1
EndSplineSet
EndChar

StartChar: twosuperior
Encoding: 178 178 116
Width: 612
GlyphClass: 2
Flags: W
LayerCount: 2
Fore
SplineSet
405 460 m 1,0,-1
 405 412 l 1,1,-1
 210 412 l 1,2,-1
 210 466 l 2,3,4
 210 508 210 508 234 530.5 c 128,-1,5
 258 553 258 553 306 564 c 0,6,7
 339 572 339 572 346.5 586 c 128,-1,8
 354 600 354 600 354 614 c 0,9,10
 354 631 354 631 343 644.5 c 128,-1,11
 332 658 332 658 308 658 c 0,12,13
 285 658 285 658 271.5 644 c 128,-1,14
 258 630 258 630 258 604 c 2,15,-1
 258 586 l 1,16,-1
 204 586 l 1,17,-1
 204 604 l 2,18,19
 204 646 204 646 231.5 676 c 128,-1,20
 259 706 259 706 310 706 c 0,21,22
 334 706 334 706 352.5 698.5 c 128,-1,23
 371 691 371 691 383 678.5 c 128,-1,24
 395 666 395 666 401.5 649.5 c 128,-1,25
 408 633 408 633 408 616 c 0,26,27
 408 580 408 580 390 554 c 128,-1,28
 372 528 372 528 324 518 c 0,29,30
 288 510 288 510 276 498 c 128,-1,31
 264 486 264 486 264 466 c 2,32,-1
 264 460 l 1,33,-1
 405 460 l 1,0,-1
EndSplineSet
EndChar

StartChar: threesuperior
Encoding: 179 179 117
Width: 612
GlyphClass: 2
Flags: W
LayerCount: 2
Fore
SplineSet
276 542 m 1,0,-1
 276 618 l 1,1,-1
 358 646 l 1,2,-1
 358 652 l 1,3,-1
 213 652 l 1,4,-1
 213 700 l 1,5,-1
 400 700 l 1,6,-1
 400 616 l 1,7,-1
 318 588 l 1,8,-1
 318 582 l 1,9,-1
 324 582 l 2,10,11
 360 582 360 582 384 561.5 c 128,-1,12
 408 541 408 541 408 502 c 0,13,14
 408 459 408 459 380.5 432.5 c 128,-1,15
 353 406 353 406 308 406 c 0,16,17
 260 406 260 406 232 434.5 c 128,-1,18
 204 463 204 463 204 502 c 2,19,-1
 204 518 l 1,20,-1
 258 518 l 1,21,-1
 258 504 l 2,22,23
 258 481 258 481 270.5 467.5 c 128,-1,24
 283 454 283 454 306 454 c 256,25,26
 329 454 329 454 341.5 466 c 128,-1,27
 354 478 354 478 354 498 c 0,28,29
 354 522 354 522 339.5 532 c 128,-1,30
 325 542 325 542 308 542 c 2,31,-1
 276 542 l 1,0,-1
EndSplineSet
EndChar

StartChar: acute
Encoding: 180 180 118
Width: 612
GlyphClass: 2
Flags: W
LayerCount: 2
Fore
SplineSet
386 688 m 1,0,-1
 302 570 l 1,1,-1
 230 570 l 1,2,-1
 296 688 l 1,3,-1
 386 688 l 1,0,-1
EndSplineSet
EndChar

StartChar: mu
Encoding: 181 181 119
Width: 612
GlyphClass: 2
Flags: W
LayerCount: 2
Fore
SplineSet
447 60 m 1,0,-1
 435 60 l 1,1,2
 424 32 424 32 393 9 c 128,-1,3
 362 -14 362 -14 306 -14 c 256,4,5
 250 -14 250 -14 219 9 c 128,-1,6
 188 32 188 32 177 60 c 1,7,-1
 165 60 l 1,8,-1
 165 -200 l 1,9,-1
 87 -200 l 1,10,-1
 87 496 l 1,11,-1
 165 496 l 1,12,-1
 165 216 l 2,13,14
 165 138 165 138 205.5 99 c 128,-1,15
 246 60 246 60 306 60 c 256,16,17
 366 60 366 60 406.5 99 c 128,-1,18
 447 138 447 138 447 216 c 2,19,-1
 447 496 l 1,20,-1
 525 496 l 1,21,-1
 525 0 l 1,22,-1
 447 0 l 1,23,-1
 447 60 l 1,0,-1
EndSplineSet
EndChar

StartChar: paragraph
Encoding: 182 182 120
Width: 612
GlyphClass: 2
Flags: W
LayerCount: 2
Fore
SplineSet
269 424 m 1,0,1
 239 424 239 424 212.5 435.5 c 128,-1,2
 186 447 186 447 166.5 466.5 c 128,-1,3
 147 486 147 486 135.5 512.5 c 128,-1,4
 124 539 124 539 124 569 c 256,5,6
 124 599 124 599 135.5 625.5 c 128,-1,7
 147 652 147 652 166.5 671.5 c 128,-1,8
 186 691 186 691 212.5 702.5 c 128,-1,9
 239 714 239 714 269 714 c 2,10,-1
 449 714 l 1,11,-1
 449 218 l 1,12,-1
 377 218 l 1,13,-1
 377 642 l 1,14,-1
 341 642 l 1,15,-1
 341 218 l 1,16,-1
 269 218 l 1,17,-1
 269 424 l 1,0,1
269 642 m 1,18,19
 239 642 239 642 217.5 620.5 c 128,-1,20
 196 599 196 599 196 569 c 256,21,22
 196 539 196 539 217.5 517.5 c 128,-1,23
 239 496 239 496 269 496 c 1,24,-1
 269 642 l 1,18,19
EndSplineSet
Substitution2: "'case' Case-Sensitive Forms in Latin lookup 31 subtable" paragraph.cap
Substitution2: "'case' Case-Sensitive Forms in Latin lookup 30 subtable" paragraph.cap
Substitution2: "'aalt' Access All Alternates in Latin lookup 0 subtable" paragraph.cap
EndChar

StartChar: periodcentered
Encoding: 183 183 121
Width: 612
GlyphClass: 2
Flags: W
LayerCount: 2
Fore
SplineSet
236 350 m 256,0,1
 236 379 236 379 256.5 399.5 c 128,-1,2
 277 420 277 420 306 420 c 256,3,4
 335 420 335 420 355.5 399.5 c 128,-1,5
 376 379 376 379 376 350 c 256,6,7
 376 321 376 321 355.5 300.5 c 128,-1,8
 335 280 335 280 306 280 c 256,9,10
 277 280 277 280 256.5 300.5 c 128,-1,11
 236 321 236 321 236 350 c 256,0,1
EndSplineSet
Substitution2: "Single Substitution lookup 37 subtable" periodcentered
Substitution2: "'aalt' Access All Alternates in Latin lookup 0 subtable" periodcentered
EndChar

StartChar: cedilla
Encoding: 184 184 122
Width: 612
GlyphClass: 2
Flags: W
LayerCount: 2
Fore
SplineSet
281 0 m 1,0,-1
 266 -68 l 1,1,-1
 272 -68 l 1,2,3
 285 -36 285 -36 326 -36 c 0,4,5
 361 -36 361 -36 381.5 -61 c 128,-1,6
 402 -86 402 -86 402 -121 c 0,7,8
 402 -163 402 -163 375 -187.5 c 128,-1,9
 348 -212 348 -212 309 -212 c 0,10,11
 266 -212 266 -212 243 -192 c 128,-1,12
 220 -172 220 -172 212 -142 c 1,13,-1
 260 -124 l 1,14,15
 263 -139 263 -139 274.5 -151.5 c 128,-1,16
 286 -164 286 -164 308 -164 c 0,17,18
 323 -164 323 -164 335.5 -154 c 128,-1,19
 348 -144 348 -144 348 -122 c 0,20,21
 348 -104 348 -104 337.5 -94 c 128,-1,22
 327 -84 327 -84 313 -84 c 0,23,24
 295 -84 295 -84 288 -98 c 1,25,-1
 212 -98 l 1,26,-1
 212 -92 l 1,27,-1
 232 0 l 1,28,-1
 281 0 l 1,0,-1
EndSplineSet
EndChar

StartChar: onesuperior
Encoding: 185 185 123
Width: 612
GlyphClass: 2
Flags: W
LayerCount: 2
Fore
SplineSet
293 460 m 1,0,-1
 293 670 l 1,1,-1
 284 670 l 1,2,-1
 262 577 l 1,3,-1
 209 577 l 1,4,-1
 241 700 l 1,5,-1
 347 700 l 1,6,-1
 347 460 l 1,7,-1
 418 460 l 1,8,-1
 418 412 l 1,9,-1
 215 412 l 1,10,-1
 215 460 l 1,11,-1
 293 460 l 1,0,-1
EndSplineSet
EndChar

StartChar: ordmasculine
Encoding: 186 186 124
Width: 612
GlyphClass: 2
Flags: W
LayerCount: 2
Fore
SplineSet
157 556 m 256,0,1
 157 593 157 593 169.5 621 c 128,-1,2
 182 649 182 649 203 668 c 128,-1,3
 224 687 224 687 250.5 696.5 c 128,-1,4
 277 706 277 706 306 706 c 0,5,6
 334 706 334 706 361 696.5 c 128,-1,7
 388 687 388 687 409 668 c 128,-1,8
 430 649 430 649 442.5 621 c 128,-1,9
 455 593 455 593 455 556 c 256,10,11
 455 519 455 519 442.5 491 c 128,-1,12
 430 463 430 463 409 444 c 128,-1,13
 388 425 388 425 361 415.5 c 128,-1,14
 334 406 334 406 306 406 c 0,15,16
 277 406 277 406 250.5 415.5 c 128,-1,17
 224 425 224 425 203 444 c 128,-1,18
 182 463 182 463 169.5 491 c 128,-1,19
 157 519 157 519 157 556 c 256,0,1
306 466 m 256,20,21
 340 466 340 466 364.5 489 c 128,-1,22
 389 512 389 512 389 556 c 256,23,24
 389 600 389 600 364.5 623 c 128,-1,25
 340 646 340 646 306 646 c 256,26,27
 272 646 272 646 247.5 623 c 128,-1,28
 223 600 223 600 223 556 c 256,29,30
 223 512 223 512 247.5 489 c 128,-1,31
 272 466 272 466 306 466 c 256,20,21
EndSplineSet
EndChar

StartChar: guillemotright
Encoding: 187 187 125
Width: 612
GlyphClass: 2
Flags: W
LayerCount: 2
Fore
SplineSet
294 12 m 1,0,-1
 294 100 l 1,1,-1
 504 242 l 1,2,-1
 504 254 l 1,3,-1
 294 396 l 1,4,-1
 294 484 l 1,5,-1
 300 484 l 1,6,-1
 534 326 l 1,7,-1
 534 170 l 1,8,-1
 300 12 l 1,9,-1
 294 12 l 1,0,-1
78 12 m 1,10,-1
 78 100 l 1,11,-1
 288 242 l 1,12,-1
 288 254 l 1,13,-1
 78 396 l 1,14,-1
 78 484 l 1,15,-1
 84 484 l 1,16,-1
 318 326 l 1,17,-1
 318 170 l 1,18,-1
 84 12 l 1,19,-1
 78 12 l 1,10,-1
EndSplineSet
EndChar

StartChar: AE
Encoding: 198 198 136
Width: 612
GlyphClass: 2
Flags: W
LayerCount: 2
Fore
SplineSet
300 174 m 1,0,-1
 156 174 l 1,1,-1
 105 0 l 1,2,-1
 15 0 l 1,3,-1
 227 700 l 1,4,-1
 540 700 l 1,5,-1
 540 622 l 1,6,-1
 384 622 l 1,7,-1
 384 390 l 1,8,-1
 534 390 l 1,9,-1
 534 312 l 1,10,-1
 384 312 l 1,11,-1
 384 78 l 1,12,-1
 546 78 l 1,13,-1
 546 0 l 1,14,-1
 300 0 l 1,15,-1
 300 174 l 1,0,-1
179 252 m 1,16,-1
 300 252 l 1,17,-1
 300 622 l 1,18,-1
 288 622 l 1,19,-1
 179 252 l 1,16,-1
EndSplineSet
EndChar

StartChar: Ccedilla
Encoding: 199 199 137
Width: 612
GlyphClass: 2
Flags: W
LayerCount: 2
Fore
SplineSet
310 64 m 0,0,1
 353 64 353 64 383.5 78.5 c 128,-1,2
 414 93 414 93 433.5 117.5 c 128,-1,3
 453 142 453 142 462.5 173.5 c 128,-1,4
 472 205 472 205 472 240 c 2,5,-1
 472 252 l 1,6,-1
 556 252 l 1,7,-1
 556 240 l 2,8,9
 556 187 556 187 540 140.5 c 128,-1,10
 524 94 524 94 493 59.5 c 128,-1,11
 462 25 462 25 416 5.5 c 128,-1,12
 370 -14 370 -14 310 -14 c 2,13,-1
 302 -14 l 1,14,-1
 290 -68 l 1,15,-1
 296 -68 l 1,16,17
 309 -36 309 -36 350 -36 c 0,18,19
 385 -36 385 -36 405.5 -61 c 128,-1,20
 426 -86 426 -86 426 -121 c 0,21,22
 426 -163 426 -163 399 -187.5 c 128,-1,23
 372 -212 372 -212 333 -212 c 0,24,25
 290 -212 290 -212 267 -192 c 128,-1,26
 244 -172 244 -172 236 -142 c 1,27,-1
 284 -124 l 1,28,29
 287 -139 287 -139 298.5 -151.5 c 128,-1,30
 310 -164 310 -164 332 -164 c 0,31,32
 347 -164 347 -164 359.5 -154 c 128,-1,33
 372 -144 372 -144 372 -122 c 0,34,35
 372 -104 372 -104 361.5 -94 c 128,-1,36
 351 -84 351 -84 337 -84 c 0,37,38
 319 -84 319 -84 312 -98 c 1,39,-1
 236 -98 l 1,40,-1
 236 -92 l 1,41,-1
 254 -9 l 1,42,43
 163 7 163 7 113.5 78 c 128,-1,44
 64 149 64 149 64 272 c 2,45,-1
 64 428 l 2,46,47
 64 564 64 564 129 639 c 128,-1,48
 194 714 194 714 310 714 c 0,49,50
 370 714 370 714 416 694.5 c 128,-1,51
 462 675 462 675 493 640.5 c 128,-1,52
 524 606 524 606 540 559.5 c 128,-1,53
 556 513 556 513 556 460 c 2,54,-1
 556 448 l 1,55,-1
 472 448 l 1,56,-1
 472 460 l 2,57,58
 471 494 471 494 461.5 526 c 128,-1,59
 452 558 452 558 432.5 582.5 c 128,-1,60
 413 607 413 607 383 621.5 c 128,-1,61
 353 636 353 636 310 636 c 0,62,63
 229 636 229 636 188.5 577 c 128,-1,64
 148 518 148 518 148 422 c 2,65,-1
 148 278 l 2,66,67
 148 175 148 175 188.5 119.5 c 128,-1,68
 229 64 229 64 310 64 c 0,0,1
EndSplineSet
EndChar

StartChar: Eth
Encoding: 208 208 146
Width: 612
GlyphClass: 2
Flags: W
LayerCount: 2
Fore
SplineSet
73 389 m 1,0,-1
 133 389 l 1,1,-1
 133 622 l 1,2,-1
 73 622 l 1,3,-1
 73 700 l 1,4,-1
 303 700 l 2,5,6
 433 700 433 700 493 638 c 128,-1,7
 553 576 553 576 553 440 c 2,8,-1
 553 260 l 2,9,10
 553 124 553 124 493 62 c 128,-1,11
 433 0 433 0 303 0 c 2,12,-1
 73 0 l 1,13,-1
 73 78 l 1,14,-1
 133 78 l 1,15,-1
 133 311 l 1,16,-1
 73 311 l 1,17,-1
 73 389 l 1,0,-1
291 78 m 2,18,19
 337 78 337 78 370.5 87 c 128,-1,20
 404 96 404 96 426 117.5 c 128,-1,21
 448 139 448 139 458.5 175 c 128,-1,22
 469 211 469 211 469 266 c 2,23,-1
 469 434 l 2,24,25
 469 489 469 489 458.5 525 c 128,-1,26
 448 561 448 561 426 582.5 c 128,-1,27
 404 604 404 604 370.5 613 c 128,-1,28
 337 622 337 622 291 622 c 2,29,-1
 217 622 l 1,30,-1
 217 389 l 1,31,-1
 325 389 l 1,32,-1
 325 311 l 1,33,-1
 217 311 l 1,34,-1
 217 78 l 1,35,-1
 291 78 l 2,18,19
EndSplineSet
Substitution2: "'ss01' Style Set 1 in Latin lookup 2 subtable" Eth.alt
Substitution2: "'aalt' Access All Alternates in Latin lookup 0 subtable" Eth.alt
EndChar

StartChar: multiply
Encoding: 215 215 153
Width: 612
GlyphClass: 2
Flags: W
LayerCount: 2
Fore
SplineSet
453 152 m 1,0,-1
 306 299 l 1,1,-1
 159 152 l 1,2,-1
 108 203 l 1,3,-1
 255 350 l 1,4,-1
 108 497 l 1,5,-1
 159 548 l 1,6,-1
 306 401 l 1,7,-1
 453 548 l 1,8,-1
 504 497 l 1,9,-1
 357 350 l 1,10,-1
 504 203 l 1,11,-1
 453 152 l 1,0,-1
EndSplineSet
EndChar

StartChar: Oslash
Encoding: 216 216 154
Width: 612
GlyphClass: 2
Flags: W
LayerCount: 2
Fore
SplineSet
161 27 m 1,0,1
 112 61 112 61 86 122.5 c 128,-1,2
 60 184 60 184 60 272 c 2,3,-1
 60 428 l 2,4,5
 60 564 60 564 125 639 c 128,-1,6
 190 714 190 714 306 714 c 0,7,8
 346 714 346 714 384 703 c 1,9,-1
 407 774 l 1,10,-1
 477 752 l 1,11,-1
 450 671 l 1,12,13
 499 636 499 636 525.5 574.5 c 128,-1,14
 552 513 552 513 552 428 c 2,15,-1
 552 272 l 2,16,17
 552 132 552 132 487 59 c 128,-1,18
 422 -14 422 -14 306 -14 c 0,19,20
 262 -14 262 -14 229 -4 c 1,21,-1
 202 -86 l 1,22,-1
 131 -64 l 1,23,-1
 161 27 l 1,0,1
144 278 m 2,24,25
 144 168 144 168 189 113 c 1,26,-1
 359 628 l 1,27,28
 333 636 333 636 306 636 c 0,29,30
 225 636 225 636 184.5 577 c 128,-1,31
 144 518 144 518 144 422 c 2,32,-1
 144 278 l 2,24,25
306 64 m 0,33,34
 387 64 387 64 427.5 119.5 c 128,-1,35
 468 175 468 175 468 278 c 2,36,-1
 468 422 l 2,37,38
 468 526 468 526 422 584 c 1,39,-1
 254 71 l 1,40,41
 275 64 275 64 306 64 c 0,33,34
EndSplineSet
EndChar

StartChar: Thorn
Encoding: 222 222 160
Width: 612
GlyphClass: 2
Flags: W
LayerCount: 2
Fore
SplineSet
169 150 m 1,0,-1
 169 0 l 1,1,-1
 85 0 l 1,2,-1
 85 700 l 1,3,-1
 169 700 l 1,4,-1
 169 562 l 1,5,-1
 335 562 l 2,6,7
 389 562 389 562 429 546.5 c 128,-1,8
 469 531 469 531 495.5 505 c 128,-1,9
 522 479 522 479 535.5 444.5 c 128,-1,10
 549 410 549 410 549 372 c 2,11,-1
 549 342 l 2,12,13
 549 304 549 304 535.5 269 c 128,-1,14
 522 234 522 234 495 207.5 c 128,-1,15
 468 181 468 181 428 165.5 c 128,-1,16
 388 150 388 150 335 150 c 2,17,-1
 169 150 l 1,0,-1
169 228 m 1,18,-1
 325 228 l 2,19,20
 465 228 465 228 465 348 c 2,21,-1
 465 366 l 2,22,23
 465 419 465 419 430.5 451.5 c 128,-1,24
 396 484 396 484 325 484 c 2,25,-1
 169 484 l 1,26,-1
 169 228 l 1,18,-1
EndSplineSet
EndChar

StartChar: germandbls
Encoding: 223 223 161
Width: 612
GlyphClass: 2
Flags: W
LayerCount: 2
Fore
SplineSet
343 355 m 1,0,-1
 368 355 l 2,1,2
 406 355 406 355 441.5 343 c 128,-1,3
 477 331 477 331 504 307.5 c 128,-1,4
 531 284 531 284 547 249.5 c 128,-1,5
 563 215 563 215 563 170 c 2,6,-1
 563 164 l 2,7,8
 563 124 563 124 550 91.5 c 128,-1,9
 537 59 537 59 513.5 35.5 c 128,-1,10
 490 12 490 12 457.5 -1 c 128,-1,11
 425 -14 425 -14 386 -14 c 0,12,13
 342 -14 342 -14 309.5 0 c 128,-1,14
 277 14 277 14 255.5 36.5 c 128,-1,15
 234 59 234 59 223.5 87.5 c 128,-1,16
 213 116 213 116 212 146 c 1,17,-1
 286 158 l 1,18,19
 286 112 286 112 312 85 c 128,-1,20
 338 58 338 58 382 58 c 0,21,22
 427 58 427 58 456 84 c 128,-1,23
 485 110 485 110 485 167 c 0,24,25
 485 198 485 198 473.5 220.5 c 128,-1,26
 462 243 462 243 442.5 256.5 c 128,-1,27
 423 270 423 270 396 276.5 c 128,-1,28
 369 283 369 283 338 283 c 2,29,-1
 284 283 l 1,30,-1
 284 430 l 1,31,-1
 306 430 l 2,32,33
 357 430 357 430 386 457 c 128,-1,34
 415 484 415 484 415 532 c 2,35,-1
 415 537 l 2,36,37
 415 561 415 561 406 580 c 128,-1,38
 397 599 397 599 381 613 c 128,-1,39
 365 627 365 627 344 634.5 c 128,-1,40
 323 642 323 642 299 642 c 0,41,42
 243 642 243 642 209.5 605 c 128,-1,43
 176 568 176 568 176 502 c 2,44,-1
 176 0 l 1,45,-1
 98 0 l 1,46,-1
 98 424 l 1,47,-1
 38 424 l 1,48,-1
 38 496 l 1,49,-1
 98 496 l 1,50,-1
 98 510 l 2,51,52
 98 558 98 558 113 596 c 128,-1,53
 128 634 128 634 155 660 c 128,-1,54
 182 686 182 686 218.5 700 c 128,-1,55
 255 714 255 714 299 714 c 0,56,57
 341 714 341 714 376.5 701.5 c 128,-1,58
 412 689 412 689 438 666 c 128,-1,59
 464 643 464 643 478.5 610.5 c 128,-1,60
 493 578 493 578 493 537 c 2,61,-1
 493 531 l 2,62,63
 493 492 493 492 480 463 c 128,-1,64
 467 434 467 434 446 413.5 c 128,-1,65
 425 393 425 393 398 381.5 c 128,-1,66
 371 370 371 370 343 367 c 1,67,-1
 343 355 l 1,0,-1
EndSplineSet
EndChar

StartChar: ae
Encoding: 230 230 168
Width: 612
GlyphClass: 2
Flags: W
LayerCount: 2
Fore
SplineSet
306 510 m 2,0,1
 367 510 367 510 411.5 487.5 c 128,-1,2
 456 465 456 465 484.5 432 c 128,-1,3
 513 399 513 399 526.5 360 c 128,-1,4
 540 321 540 321 540 288 c 2,5,-1
 540 224 l 1,6,-1
 341 224 l 1,7,-1
 341 62 l 1,8,9
 394 70 394 70 421 97.5 c 128,-1,10
 448 125 448 125 460 162 c 1,11,-1
 534 142 l 1,12,13
 513 73 513 73 457 29.5 c 128,-1,14
 401 -14 401 -14 306 -14 c 2,15,-1
 246 -14 l 2,16,17
 205 -14 205 -14 172.5 -2.5 c 128,-1,18
 140 9 140 9 117.5 29 c 128,-1,19
 95 49 95 49 83.5 76 c 128,-1,20
 72 103 72 103 72 134 c 2,21,-1
 72 146 l 2,22,23
 72 181 72 181 85.5 209 c 128,-1,24
 99 237 99 237 122.5 256.5 c 128,-1,25
 146 276 146 276 178 286 c 128,-1,26
 210 296 210 296 248 296 c 2,27,-1
 263 296 l 1,28,-1
 263 437 l 1,29,30
 219 432 219 432 192.5 405 c 128,-1,31
 166 378 166 378 158 330 c 1,32,-1
 84 348 l 1,33,34
 90 381 90 381 105 410 c 128,-1,35
 120 439 120 439 145 461.5 c 128,-1,36
 170 484 170 484 204.5 497 c 128,-1,37
 239 510 239 510 283 510 c 2,38,-1
 306 510 l 2,0,1
149 140 m 0,39,40
 149 103 149 103 176 80.5 c 128,-1,41
 203 58 203 58 253 58 c 2,42,-1
 263 58 l 1,43,-1
 263 224 l 1,44,-1
 257 224 l 2,45,46
 206 224 206 224 177.5 204 c 128,-1,47
 149 184 149 184 149 140 c 0,39,40
462 296 m 1,48,49
 459 351 459 351 424 386.5 c 128,-1,50
 389 422 389 422 341 432 c 1,51,-1
 341 296 l 1,52,-1
 462 296 l 1,48,49
EndSplineSet
EndChar

StartChar: ccedilla
Encoding: 231 231 169
Width: 612
GlyphClass: 2
Flags: W
LayerCount: 2
Fore
SplineSet
551 176 m 1,0,1
 543 135 543 135 523.5 100 c 128,-1,2
 504 65 504 65 474 39.5 c 128,-1,3
 444 14 444 14 404 0 c 128,-1,4
 364 -14 364 -14 315 -14 c 2,5,-1
 307 -14 l 1,6,-1
 295 -68 l 1,7,-1
 301 -68 l 1,8,9
 314 -36 314 -36 355 -36 c 0,10,11
 390 -36 390 -36 410.5 -61 c 128,-1,12
 431 -86 431 -86 431 -121 c 0,13,14
 431 -163 431 -163 404 -187.5 c 128,-1,15
 377 -212 377 -212 338 -212 c 0,16,17
 295 -212 295 -212 272 -192 c 128,-1,18
 249 -172 249 -172 241 -142 c 1,19,-1
 289 -124 l 1,20,21
 292 -139 292 -139 303.5 -151.5 c 128,-1,22
 315 -164 315 -164 337 -164 c 0,23,24
 352 -164 352 -164 364.5 -154 c 128,-1,25
 377 -144 377 -144 377 -122 c 0,26,27
 377 -104 377 -104 366.5 -94 c 128,-1,28
 356 -84 356 -84 342 -84 c 0,29,30
 324 -84 324 -84 317 -98 c 1,31,-1
 241 -98 l 1,32,-1
 241 -92 l 1,33,-1
 259 -9 l 1,34,35
 217 -1 217 -1 180.5 19 c 128,-1,36
 144 39 144 39 117 70.5 c 128,-1,37
 90 102 90 102 74.5 144.5 c 128,-1,38
 59 187 59 187 59 240 c 2,39,-1
 59 252 l 2,40,41
 59 312 59 312 79.5 360 c 128,-1,42
 100 408 100 408 135 441 c 128,-1,43
 170 474 170 474 216.5 492 c 128,-1,44
 263 510 263 510 315 510 c 0,45,46
 362 510 362 510 402 496 c 128,-1,47
 442 482 442 482 472.5 456.5 c 128,-1,48
 503 431 503 431 522.5 396 c 128,-1,49
 542 361 542 361 549 320 c 1,50,-1
 471 302 l 1,51,52
 468 328 468 328 456.5 352.5 c 128,-1,53
 445 377 445 377 425.5 395.5 c 128,-1,54
 406 414 406 414 378 425 c 128,-1,55
 350 436 350 436 313 436 c 0,56,57
 277 436 277 436 245.5 422.5 c 128,-1,58
 214 409 214 409 190 384.5 c 128,-1,59
 166 360 166 360 152.5 326 c 128,-1,60
 139 292 139 292 139 252 c 2,61,-1
 139 240 l 2,62,63
 139 198 139 198 152.5 164.5 c 128,-1,64
 166 131 166 131 190 108 c 128,-1,65
 214 85 214 85 246 72.5 c 128,-1,66
 278 60 278 60 315 60 c 256,67,68
 352 60 352 60 379.5 71.5 c 128,-1,69
 407 83 407 83 426.5 101.5 c 128,-1,70
 446 120 446 120 457.5 144 c 128,-1,71
 469 168 469 168 473 194 c 1,72,-1
 551 176 l 1,0,1
EndSplineSet
EndChar

StartChar: eth
Encoding: 240 240 178
Width: 612
GlyphClass: 2
Flags: W
LayerCount: 2
Fore
SplineSet
265 616 m 1,0,1
 215 634 215 634 160 640 c 1,2,-1
 178 714 l 1,3,4
 240 705 240 705 298 685 c 1,5,-1
 316 722 l 1,6,-1
 379 693 l 1,7,-1
 361 656 l 1,8,9
 412 628 412 628 449 587 c 128,-1,10
 486 546 486 546 509.5 496 c 128,-1,11
 533 446 533 446 544 388.5 c 128,-1,12
 555 331 555 331 555 271 c 0,13,14
 555 199 555 199 535.5 145.5 c 128,-1,15
 516 92 516 92 482 56.5 c 128,-1,16
 448 21 448 21 403 3.5 c 128,-1,17
 358 -14 358 -14 306 -14 c 0,18,19
 256 -14 256 -14 211 3 c 128,-1,20
 166 20 166 20 132 52.5 c 128,-1,21
 98 85 98 85 77.5 132.5 c 128,-1,22
 57 180 57 180 57 242 c 2,23,-1
 57 254 l 2,24,25
 57 315 57 315 77 362.5 c 128,-1,26
 97 410 97 410 130.5 443 c 128,-1,27
 164 476 164 476 206.5 493 c 128,-1,28
 249 510 249 510 294 510 c 0,29,30
 345 510 345 510 381.5 490 c 128,-1,31
 418 470 418 470 436 440 c 1,32,-1
 448 440 l 1,33,34
 434 489 434 489 402.5 525.5 c 128,-1,35
 371 562 371 562 329 587 c 1,36,-1
 310 547 l 1,37,-1
 246 576 l 1,38,-1
 265 616 l 1,0,1
306 60 m 256,39,40
 342 60 342 60 372.5 73 c 128,-1,41
 403 86 403 86 426 110.5 c 128,-1,42
 449 135 449 135 462 171 c 128,-1,43
 475 207 475 207 475 254 c 0,44,45
 475 294 475 294 462 327.5 c 128,-1,46
 449 361 449 361 426 385 c 128,-1,47
 403 409 403 409 372 422.5 c 128,-1,48
 341 436 341 436 306 436 c 256,49,50
 271 436 271 436 240 422.5 c 128,-1,51
 209 409 209 409 186 385 c 128,-1,52
 163 361 163 361 150 327.5 c 128,-1,53
 137 294 137 294 137 254 c 2,54,-1
 137 242 l 2,55,56
 137 200 137 200 150 166.5 c 128,-1,57
 163 133 163 133 186 109 c 128,-1,58
 209 85 209 85 239.5 72.5 c 128,-1,59
 270 60 270 60 306 60 c 256,39,40
EndSplineSet
EndChar

StartChar: divide
Encoding: 247 247 185
Width: 612
GlyphClass: 2
Flags: W
LayerCount: 2
Fore
SplineSet
97 386 m 1,0,-1
 515 386 l 1,1,-1
 515 314 l 1,2,-1
 97 314 l 1,3,-1
 97 386 l 1,0,-1
236 184 m 256,4,5
 236 213 236 213 256.5 233.5 c 128,-1,6
 277 254 277 254 306 254 c 256,7,8
 335 254 335 254 355.5 233.5 c 128,-1,9
 376 213 376 213 376 184 c 256,10,11
 376 155 376 155 355.5 134.5 c 128,-1,12
 335 114 335 114 306 114 c 256,13,14
 277 114 277 114 256.5 134.5 c 128,-1,15
 236 155 236 155 236 184 c 256,4,5
236 516 m 256,16,17
 236 545 236 545 256.5 565.5 c 128,-1,18
 277 586 277 586 306 586 c 256,19,20
 335 586 335 586 355.5 565.5 c 128,-1,21
 376 545 376 545 376 516 c 256,22,23
 376 487 376 487 355.5 466.5 c 128,-1,24
 335 446 335 446 306 446 c 256,25,26
 277 446 277 446 256.5 466.5 c 128,-1,27
 236 487 236 487 236 516 c 256,16,17
EndSplineSet
EndChar

StartChar: oslash
Encoding: 248 248 186
Width: 612
GlyphClass: 2
Flags: W
LayerCount: 2
Fore
SplineSet
555 242 m 2,0,1
 555 180 555 180 534.5 132.5 c 128,-1,2
 514 85 514 85 480 52.5 c 128,-1,3
 446 20 446 20 400.5 3 c 128,-1,4
 355 -14 355 -14 306 -14 c 0,5,6
 280 -14 280 -14 261 -10 c 1,7,-1
 242 -68 l 1,8,-1
 171 -46 l 1,9,-1
 190 12 l 1,10,11
 131 41 131 41 94 99 c 128,-1,12
 57 157 57 157 57 242 c 2,13,-1
 57 254 l 2,14,15
 57 315 57 315 77.5 362.5 c 128,-1,16
 98 410 98 410 132.5 443 c 128,-1,17
 167 476 167 476 212 493 c 128,-1,18
 257 510 257 510 306 510 c 0,19,20
 317 510 317 510 329 509 c 128,-1,21
 341 508 341 508 352 506 c 1,22,-1
 369 558 l 1,23,-1
 439 536 l 1,24,-1
 422 483 l 1,25,26
 480 454 480 454 517.5 396 c 128,-1,27
 555 338 555 338 555 254 c 2,28,-1
 555 242 l 2,0,1
137 242 m 2,29,30
 137 188 137 188 158 148.5 c 128,-1,31
 179 109 179 109 214 86 c 1,32,-1
 328 435 l 1,33,34
 323 436 323 436 317 436 c 128,-1,35
 311 436 311 436 306 436 c 0,36,37
 271 436 271 436 240 422.5 c 128,-1,38
 209 409 209 409 186 385 c 128,-1,39
 163 361 163 361 150 327.5 c 128,-1,40
 137 294 137 294 137 254 c 2,41,-1
 137 242 l 2,29,30
306 60 m 0,42,43
 342 60 342 60 372.5 72.5 c 128,-1,44
 403 85 403 85 426 109 c 128,-1,45
 449 133 449 133 462 166.5 c 128,-1,46
 475 200 475 200 475 242 c 2,47,-1
 475 254 l 2,48,49
 475 306 475 306 453.5 346 c 128,-1,50
 432 386 432 386 397 409 c 1,51,-1
 284 61 l 1,52,53
 289 60 289 60 294.5 60 c 128,-1,54
 300 60 300 60 306 60 c 0,42,43
EndSplineSet
EndChar

StartChar: thorn
Encoding: 254 254 192
Width: 612
GlyphClass: 2
Flags: W
LayerCount: 2
Fore
SplineSet
147 -200 m 1,0,-1
 69 -200 l 1,1,-1
 69 700 l 1,2,-1
 147 700 l 1,3,-1
 147 418 l 1,4,-1
 159 418 l 1,5,6
 185 463 185 463 231 486.5 c 128,-1,7
 277 510 277 510 331 510 c 0,8,9
 377 510 377 510 418 493 c 128,-1,10
 459 476 459 476 490.5 444 c 128,-1,11
 522 412 522 412 540.5 365 c 128,-1,12
 559 318 559 318 559 258 c 2,13,-1
 559 238 l 2,14,15
 559 177 559 177 541 130 c 128,-1,16
 523 83 523 83 491.5 51 c 128,-1,17
 460 19 460 19 418 2.5 c 128,-1,18
 376 -14 376 -14 329 -14 c 0,19,20
 305 -14 305 -14 280 -8.5 c 128,-1,21
 255 -3 255 -3 232.5 8.5 c 128,-1,22
 210 20 210 20 191 36.5 c 128,-1,23
 172 53 172 53 159 76 c 1,24,-1
 147 76 l 1,25,-1
 147 -200 l 1,0,-1
313 60 m 0,26,27
 349 60 349 60 379 72.5 c 128,-1,28
 409 85 409 85 431.5 108 c 128,-1,29
 454 131 454 131 466.5 164 c 128,-1,30
 479 197 479 197 479 238 c 2,31,-1
 479 258 l 2,32,33
 479 298 479 298 466.5 330.5 c 128,-1,34
 454 363 454 363 431.5 386.5 c 128,-1,35
 409 410 409 410 378.5 423 c 128,-1,36
 348 436 348 436 313 436 c 256,37,38
 278 436 278 436 248 422.5 c 128,-1,39
 218 409 218 409 195.5 385 c 128,-1,40
 173 361 173 361 160 327.5 c 128,-1,41
 147 294 147 294 147 254 c 2,42,-1
 147 242 l 2,43,44
 147 201 147 201 160 167.5 c 128,-1,45
 173 134 173 134 195.5 110 c 128,-1,46
 218 86 218 86 248 73 c 128,-1,47
 278 60 278 60 313 60 c 0,26,27
EndSplineSet
EndChar

StartChar: Aogonek
Encoding: 260 260 198
Width: 612
GlyphClass: 2
Flags: W
LayerCount: 2
Fore
SplineSet
456 174 m 1,0,-1
 156 174 l 1,1,-1
 105 0 l 1,2,-1
 15 0 l 1,3,-1
 227 700 l 1,4,-1
 385 700 l 1,5,-1
 597 0 l 1,6,-1
 576 0 l 1,7,-1
 560 -68 l 2,8,9
 559 -73 559 -73 559 -76 c 0,10,11
 559 -98 559 -98 582 -98 c 2,12,-1
 624 -98 l 1,13,-1
 624 -164 l 1,14,-1
 568 -164 l 2,15,16
 539 -164 539 -164 514.5 -145.5 c 128,-1,17
 490 -127 490 -127 490 -90 c 0,18,19
 490 -81 490 -81 493 -66 c 2,20,-1
 507 0 l 1,21,-1
 456 174 l 1,0,-1
300 664 m 1,22,-1
 179 252 l 1,23,-1
 433 252 l 1,24,-1
 312 664 l 1,25,-1
 300 664 l 1,22,-1
EndSplineSet
EndChar

StartChar: aogonek
Encoding: 261 261 199
Width: 612
GlyphClass: 2
Flags: W
LayerCount: 2
Fore
SplineSet
447 84 m 1,0,-1
 435 84 l 1,1,2
 411 34 411 34 368.5 10 c 128,-1,3
 326 -14 326 -14 279 -14 c 0,4,5
 230 -14 230 -14 188 2.5 c 128,-1,6
 146 19 146 19 114.5 51.5 c 128,-1,7
 83 84 83 84 65 131 c 128,-1,8
 47 178 47 178 47 240 c 2,9,-1
 47 256 l 2,10,11
 47 317 47 317 65 364 c 128,-1,12
 83 411 83 411 114.5 443.5 c 128,-1,13
 146 476 146 476 188 493 c 128,-1,14
 230 510 230 510 277 510 c 0,15,16
 328 510 328 510 369.5 487.5 c 128,-1,17
 411 465 411 465 435 418 c 1,18,-1
 447 418 l 1,19,-1
 447 496 l 1,20,-1
 525 496 l 1,21,-1
 525 102 l 2,22,23
 525 72 525 72 552 72 c 2,24,-1
 577 72 l 1,25,-1
 577 0 l 1,26,-1
 529 0 l 1,27,-1
 513 -68 l 2,28,29
 512 -73 512 -73 512 -76 c 0,30,31
 512 -98 512 -98 535 -98 c 2,32,-1
 577 -98 l 1,33,-1
 577 -164 l 1,34,-1
 521 -164 l 2,35,36
 492 -164 492 -164 467.5 -145.5 c 128,-1,37
 443 -127 443 -127 443 -90 c 0,38,39
 443 -81 443 -81 446 -66 c 2,40,-1
 466 25 l 1,41,42
 447 46 447 46 447 78 c 2,43,-1
 447 84 l 1,0,-1
287 60 m 0,44,45
 322 60 322 60 351.5 73 c 128,-1,46
 381 86 381 86 402 110 c 128,-1,47
 423 134 423 134 435 167.5 c 128,-1,48
 447 201 447 201 447 242 c 2,49,-1
 447 254 l 2,50,51
 447 294 447 294 435 327.5 c 128,-1,52
 423 361 423 361 401.5 385 c 128,-1,53
 380 409 380 409 350.5 422.5 c 128,-1,54
 321 436 321 436 287 436 c 0,55,56
 252 436 252 436 223 423 c 128,-1,57
 194 410 194 410 172.5 386.5 c 128,-1,58
 151 363 151 363 139 329.5 c 128,-1,59
 127 296 127 296 127 256 c 2,60,-1
 127 240 l 2,61,62
 127 155 127 155 171.5 107.5 c 128,-1,63
 216 60 216 60 287 60 c 0,44,45
EndSplineSet
Substitution2: "'ss02' Style Set 2 in Latin lookup 3 subtable" aogonek.alt
Substitution2: "'aalt' Access All Alternates in Latin lookup 0 subtable" aogonek.alt
EndChar

StartChar: dcaron
Encoding: 271 271 209
Width: 612
GlyphClass: 2
Flags: W
LayerCount: 2
Fore
SplineSet
340 58 m 1,0,-1
 328 58 l 1,1,2
 317 26 317 26 289 6 c 128,-1,3
 261 -14 261 -14 210 -14 c 0,4,5
 170 -14 170 -14 136 2.5 c 128,-1,6
 102 19 102 19 77 51 c 128,-1,7
 52 83 52 83 38 130.5 c 128,-1,8
 24 178 24 178 24 240 c 2,9,-1
 24 256 l 2,10,11
 24 320 24 320 38.5 367.5 c 128,-1,12
 53 415 53 415 78.5 446.5 c 128,-1,13
 104 478 104 478 138 494 c 128,-1,14
 172 510 172 510 210 510 c 0,15,16
 257 510 257 510 285.5 491 c 128,-1,17
 314 472 314 472 328 442 c 1,18,-1
 340 442 l 1,19,-1
 340 700 l 1,20,-1
 418 700 l 1,21,-1
 418 0 l 1,22,-1
 340 0 l 1,23,-1
 340 58 l 1,0,-1
220 60 m 0,24,25
 254 60 254 60 277 74 c 128,-1,26
 300 88 300 88 314 112 c 128,-1,27
 328 136 328 136 334 169.5 c 128,-1,28
 340 203 340 203 340 242 c 2,29,-1
 340 254 l 2,30,31
 340 291 340 291 334.5 324.5 c 128,-1,32
 329 358 329 358 315.5 382.5 c 128,-1,33
 302 407 302 407 279 421.5 c 128,-1,34
 256 436 256 436 222 436 c 0,35,36
 167 436 167 436 135.5 390.5 c 128,-1,37
 104 345 104 345 104 256 c 2,38,-1
 104 240 l 2,39,40
 104 152 104 152 134.5 106 c 128,-1,41
 165 60 165 60 220 60 c 0,24,25
454 630 m 256,42,43
 454 659 454 659 474.5 679.5 c 128,-1,44
 495 700 495 700 524 700 c 256,45,46
 553 700 553 700 573.5 679.5 c 128,-1,47
 594 659 594 659 594 630 c 2,48,-1
 594 532 l 2,49,50
 594 498 594 498 572.5 476 c 128,-1,51
 551 454 551 454 517 454 c 2,52,-1
 466 454 l 1,53,-1
 466 508 l 1,54,-1
 513 508 l 2,55,56
 540 508 540 508 540 538 c 2,57,-1
 540 563 l 1,58,59
 532 560 532 560 523 560 c 0,60,61
 495 560 495 560 474.5 580.5 c 128,-1,62
 454 601 454 601 454 630 c 256,42,43
EndSplineSet
EndChar

StartChar: dcroat
Encoding: 273 273 211
Width: 612
GlyphClass: 2
Flags: W
LayerCount: 2
Fore
SplineSet
295 634 m 1,0,-1
 471 634 l 1,1,-1
 471 700 l 1,2,-1
 549 700 l 1,3,-1
 549 634 l 1,4,-1
 609 634 l 1,5,-1
 609 562 l 1,6,-1
 549 562 l 1,7,-1
 549 0 l 1,8,-1
 471 0 l 1,9,-1
 471 76 l 1,10,-1
 459 76 l 1,11,12
 447 53 447 53 428.5 36 c 128,-1,13
 410 19 410 19 388.5 8 c 128,-1,14
 367 -3 367 -3 343 -8.5 c 128,-1,15
 319 -14 319 -14 297 -14 c 0,16,17
 247 -14 247 -14 204 3 c 128,-1,18
 161 20 161 20 128.5 52 c 128,-1,19
 96 84 96 84 77.5 131.5 c 128,-1,20
 59 179 59 179 59 240 c 2,21,-1
 59 256 l 2,22,23
 59 316 59 316 78 363.5 c 128,-1,24
 97 411 97 411 129 443.5 c 128,-1,25
 161 476 161 476 204 493 c 128,-1,26
 247 510 247 510 295 510 c 0,27,28
 346 510 346 510 390.5 487.5 c 128,-1,29
 435 465 435 465 459 418 c 1,30,-1
 471 418 l 1,31,-1
 471 562 l 1,32,-1
 295 562 l 1,33,-1
 295 634 l 1,0,-1
305 60 m 0,34,35
 340 60 340 60 370 73 c 128,-1,36
 400 86 400 86 422.5 110 c 128,-1,37
 445 134 445 134 458 167.5 c 128,-1,38
 471 201 471 201 471 242 c 2,39,-1
 471 254 l 2,40,41
 471 294 471 294 458 327.5 c 128,-1,42
 445 361 445 361 422.5 385 c 128,-1,43
 400 409 400 409 369.5 422.5 c 128,-1,44
 339 436 339 436 305 436 c 0,45,46
 270 436 270 436 239.5 423 c 128,-1,47
 209 410 209 410 186.5 386 c 128,-1,48
 164 362 164 362 151.5 329 c 128,-1,49
 139 296 139 296 139 256 c 2,50,-1
 139 240 l 2,51,52
 139 198 139 198 151.5 165 c 128,-1,53
 164 132 164 132 186.5 108.5 c 128,-1,54
 209 85 209 85 239 72.5 c 128,-1,55
 269 60 269 60 305 60 c 0,34,35
EndSplineSet
EndChar

StartChar: Eogonek
Encoding: 280 280 218
Width: 612
GlyphClass: 2
Flags: W
LayerCount: 2
Fore
SplineSet
94 700 m 1,0,-1
 518 700 l 1,1,-1
 518 622 l 1,2,-1
 178 622 l 1,3,-1
 178 390 l 1,4,-1
 512 390 l 1,5,-1
 512 312 l 1,6,-1
 178 312 l 1,7,-1
 178 78 l 1,8,-1
 524 78 l 1,9,-1
 524 0 l 1,10,-1
 508 -68 l 2,11,12
 507 -73 507 -73 507 -76 c 0,13,14
 507 -98 507 -98 530 -98 c 2,15,-1
 572 -98 l 1,16,-1
 572 -164 l 1,17,-1
 516 -164 l 2,18,19
 486 -164 486 -164 462 -145.5 c 128,-1,20
 438 -127 438 -127 438 -90 c 0,21,22
 438 -81 438 -81 441 -66 c 2,23,-1
 455 0 l 1,24,-1
 94 0 l 1,25,-1
 94 700 l 1,0,-1
EndSplineSet
EndChar

StartChar: eogonek
Encoding: 281 281 219
Width: 612
GlyphClass: 2
Flags: W
LayerCount: 2
Fore
SplineSet
143 224 m 1,0,1
 146 150 146 150 189 105 c 128,-1,2
 232 60 232 60 309 60 c 0,3,4
 344 60 344 60 370 68 c 128,-1,5
 396 76 396 76 414.5 90 c 128,-1,6
 433 104 433 104 444.5 122.5 c 128,-1,7
 456 141 456 141 463 162 c 1,8,-1
 537 142 l 1,9,10
 517 79 517 79 468.5 37.5 c 128,-1,11
 420 -4 420 -4 339 -12 c 1,12,-1
 326 -68 l 2,13,14
 325 -73 325 -73 325 -76 c 0,15,16
 325 -98 325 -98 348 -98 c 2,17,-1
 390 -98 l 1,18,-1
 390 -164 l 1,19,-1
 334 -164 l 2,20,21
 305 -164 305 -164 280.5 -145.5 c 128,-1,22
 256 -127 256 -127 256 -90 c 0,23,24
 256 -81 256 -81 259 -66 c 2,25,-1
 271 -12 l 1,26,27
 225 -6 225 -6 187 15 c 128,-1,28
 149 36 149 36 122 69 c 128,-1,29
 95 102 95 102 80 146 c 128,-1,30
 65 190 65 190 65 242 c 2,31,-1
 65 266 l 2,32,33
 65 318 65 318 83.5 363 c 128,-1,34
 102 408 102 408 135 440.5 c 128,-1,35
 168 473 168 473 212.5 491.5 c 128,-1,36
 257 510 257 510 309 510 c 0,37,38
 370 510 370 510 414.5 487.5 c 128,-1,39
 459 465 459 465 487.5 432 c 128,-1,40
 516 399 516 399 529.5 360 c 128,-1,41
 543 321 543 321 543 288 c 2,42,-1
 543 224 l 1,43,-1
 143 224 l 1,0,1
309 436 m 0,44,45
 276 436 276 436 247.5 425.5 c 128,-1,46
 219 415 219 415 197.5 396 c 128,-1,47
 176 377 176 377 162.5 351.5 c 128,-1,48
 149 326 149 326 145 296 c 1,49,-1
 465 296 l 1,50,51
 463 328 463 328 449.5 354 c 128,-1,52
 436 380 436 380 414.5 398 c 128,-1,53
 393 416 393 416 365.5 426 c 128,-1,54
 338 436 338 436 309 436 c 0,44,45
EndSplineSet
EndChar

StartChar: Hbar
Encoding: 294 294 232
Width: 612
GlyphClass: 2
Flags: W
LayerCount: 2
Fore
SplineSet
73 496 m 1,0,-1
 13 496 l 1,1,-1
 13 574 l 1,2,-1
 73 574 l 1,3,-1
 73 700 l 1,4,-1
 157 700 l 1,5,-1
 157 574 l 1,6,-1
 455 574 l 1,7,-1
 455 700 l 1,8,-1
 539 700 l 1,9,-1
 539 574 l 1,10,-1
 599 574 l 1,11,-1
 599 496 l 1,12,-1
 539 496 l 1,13,-1
 539 0 l 1,14,-1
 455 0 l 1,15,-1
 455 312 l 1,16,-1
 157 312 l 1,17,-1
 157 0 l 1,18,-1
 73 0 l 1,19,-1
 73 496 l 1,0,-1
455 390 m 1,20,-1
 455 496 l 1,21,-1
 157 496 l 1,22,-1
 157 390 l 1,23,-1
 455 390 l 1,20,-1
EndSplineSet
EndChar

StartChar: hbar
Encoding: 295 295 233
Width: 612
GlyphClass: 2
Flags: W
LayerCount: 2
Fore
SplineSet
27 634 m 1,0,-1
 87 634 l 1,1,-1
 87 700 l 1,2,-1
 165 700 l 1,3,-1
 165 634 l 1,4,-1
 343 634 l 1,5,-1
 343 562 l 1,6,-1
 165 562 l 1,7,-1
 165 406 l 1,8,-1
 177 406 l 1,9,10
 200 454 200 454 241.5 482 c 128,-1,11
 283 510 283 510 343 510 c 0,12,13
 424 510 424 510 474.5 456.5 c 128,-1,14
 525 403 525 403 525 296 c 2,15,-1
 525 0 l 1,16,-1
 447 0 l 1,17,-1
 447 280 l 2,18,19
 447 358 447 358 412 397 c 128,-1,20
 377 436 377 436 317 436 c 0,21,22
 246 436 246 436 205.5 387.5 c 128,-1,23
 165 339 165 339 165 258 c 2,24,-1
 165 0 l 1,25,-1
 87 0 l 1,26,-1
 87 562 l 1,27,-1
 27 562 l 1,28,-1
 27 634 l 1,0,-1
EndSplineSet
EndChar

StartChar: imacron
Encoding: 299 299 237
Width: 612
GlyphClass: 2
Flags: W
LayerCount: 2
Fore
SplineSet
351 570 m 1,0,-1
 117 570 l 1,1,-1
 117 636 l 1,2,-1
 351 636 l 1,3,-1
 351 570 l 1,0,-1
99 72 m 1,4,-1
 273 72 l 1,5,-1
 273 424 l 1,6,-1
 117 424 l 1,7,-1
 117 496 l 1,8,-1
 351 496 l 1,9,-1
 351 72 l 1,10,-1
 513 72 l 1,11,-1
 513 0 l 1,12,-1
 99 0 l 1,13,-1
 99 72 l 1,4,-1
EndSplineSet
Substitution2: "'ss02' Style Set 2 in Latin lookup 3 subtable" imacron.alt
Substitution2: "'aalt' Access All Alternates in Latin lookup 0 subtable" imacron.alt
EndChar

StartChar: Iogonek
Encoding: 302 302 240
Width: 612
GlyphClass: 2
Flags: W
LayerCount: 2
Fore
SplineSet
84 700 m 1,0,-1
 528 700 l 1,1,-1
 528 622 l 1,2,-1
 348 622 l 1,3,-1
 348 78 l 1,4,-1
 528 78 l 1,5,-1
 528 0 l 1,6,-1
 512 -68 l 2,7,8
 511 -73 511 -73 511 -76 c 0,9,10
 511 -98 511 -98 534 -98 c 2,11,-1
 576 -98 l 1,12,-1
 576 -164 l 1,13,-1
 520 -164 l 2,14,15
 490 -164 490 -164 466 -145.5 c 128,-1,16
 442 -127 442 -127 442 -90 c 0,17,18
 442 -81 442 -81 445 -66 c 2,19,-1
 459 0 l 1,20,-1
 84 0 l 1,21,-1
 84 78 l 1,22,-1
 264 78 l 1,23,-1
 264 622 l 1,24,-1
 84 622 l 1,25,-1
 84 700 l 1,0,-1
EndSplineSet
EndChar

StartChar: iogonek
Encoding: 303 303 241
Width: 612
GlyphClass: 2
Flags: W
LayerCount: 2
Fore
SplineSet
99 72 m 1,0,-1
 273 72 l 1,1,-1
 273 424 l 1,2,-1
 117 424 l 1,3,-1
 117 496 l 1,4,-1
 351 496 l 1,5,-1
 351 72 l 1,6,-1
 513 72 l 1,7,-1
 513 0 l 1,8,-1
 497 -68 l 2,9,10
 496 -73 496 -73 496 -76 c 0,11,12
 496 -98 496 -98 519 -98 c 2,13,-1
 561 -98 l 1,14,-1
 561 -164 l 1,15,-1
 505 -164 l 2,16,17
 475 -164 475 -164 451 -145.5 c 128,-1,18
 427 -127 427 -127 427 -90 c 0,19,20
 427 -81 427 -81 430 -66 c 2,21,-1
 444 0 l 1,22,-1
 99 0 l 1,23,-1
 99 72 l 1,0,-1
241 644 m 256,24,25
 241 673 241 673 261.5 693.5 c 128,-1,26
 282 714 282 714 311 714 c 256,27,28
 340 714 340 714 360.5 693.5 c 128,-1,29
 381 673 381 673 381 644 c 256,30,31
 381 615 381 615 360.5 594.5 c 128,-1,32
 340 574 340 574 311 574 c 256,33,34
 282 574 282 574 261.5 594.5 c 128,-1,35
 241 615 241 615 241 644 c 256,24,25
EndSplineSet
Substitution2: "'ss02' Style Set 2 in Latin lookup 3 subtable" iogonek.alt
Substitution2: "'aalt' Access All Alternates in Latin lookup 0 subtable" iogonek.alt
EndChar

StartChar: dotlessi
Encoding: 305 305 243
Width: 612
GlyphClass: 2
Flags: W
LayerCount: 2
Fore
SplineSet
99 72 m 1,0,-1
 273 72 l 1,1,-1
 273 424 l 1,2,-1
 117 424 l 1,3,-1
 117 496 l 1,4,-1
 351 496 l 1,5,-1
 351 72 l 1,6,-1
 513 72 l 1,7,-1
 513 0 l 1,8,-1
 99 0 l 1,9,-1
 99 72 l 1,0,-1
EndSplineSet
Substitution2: "'ss02' Style Set 2 in Latin lookup 3 subtable" dotlessi.alt
Substitution2: "'aalt' Access All Alternates in Latin lookup 0 subtable" dotlessi.alt
EndChar

StartChar: IJ
Encoding: 306 306 244
Width: 612
GlyphClass: 2
Flags: W
LayerCount: 2
Fore
SplineSet
73 700 m 1,0,-1
 157 700 l 1,1,-1
 157 342 l 1,2,-1
 73 342 l 1,3,-1
 73 700 l 1,0,-1
505 210 m 2,4,5
 505 101 505 101 451.5 43.5 c 128,-1,6
 398 -14 398 -14 295 -14 c 256,7,8
 192 -14 192 -14 132.5 43.5 c 128,-1,9
 73 101 73 101 73 210 c 2,10,-1
 73 264 l 1,11,-1
 157 264 l 1,12,-1
 157 210 l 2,13,14
 157 144 157 144 191 104 c 128,-1,15
 225 64 225 64 295 64 c 256,16,17
 365 64 365 64 393 104 c 128,-1,18
 421 144 421 144 421 210 c 2,19,-1
 421 622 l 1,20,-1
 349 622 l 1,21,-1
 349 700 l 1,22,-1
 565 700 l 1,23,-1
 565 622 l 1,24,-1
 505 622 l 1,25,-1
 505 210 l 2,4,5
EndSplineSet
Substitution2: "'ss01' Style Set 1 in Latin lookup 2 subtable" IJ.alt
Substitution2: "'aalt' Access All Alternates in Latin lookup 0 subtable" IJ.alt
EndChar

StartChar: ij
Encoding: 307 307 245
Width: 612
GlyphClass: 2
Flags: W
LayerCount: 2
Fore
SplineSet
416 644 m 256,0,1
 416 673 416 673 436.5 693.5 c 128,-1,2
 457 714 457 714 486 714 c 256,3,4
 515 714 515 714 535.5 693.5 c 128,-1,5
 556 673 556 673 556 644 c 256,6,7
 556 615 556 615 535.5 594.5 c 128,-1,8
 515 574 515 574 486 574 c 256,9,10
 457 574 457 574 436.5 594.5 c 128,-1,11
 416 615 416 615 416 644 c 256,0,1
56 644 m 256,12,13
 56 673 56 673 76.5 693.5 c 128,-1,14
 97 714 97 714 126 714 c 256,15,16
 155 714 155 714 175.5 693.5 c 128,-1,17
 196 673 196 673 196 644 c 256,18,19
 196 615 196 615 175.5 594.5 c 128,-1,20
 155 574 155 574 126 574 c 256,21,22
 97 574 97 574 76.5 594.5 c 128,-1,23
 56 615 56 615 56 644 c 256,12,13
447 90 m 1,24,-1
 435 90 l 1,25,26
 411 42 411 42 372 14 c 128,-1,27
 333 -14 333 -14 273 -14 c 0,28,29
 232 -14 232 -14 197.5 -0.5 c 128,-1,30
 163 13 163 13 138.5 40 c 128,-1,31
 114 67 114 67 100.5 107 c 128,-1,32
 87 147 87 147 87 200 c 2,33,-1
 87 496 l 1,34,-1
 165 496 l 1,35,-1
 165 210 l 2,36,37
 165 132 165 132 197 96 c 128,-1,38
 229 60 229 60 295 60 c 0,39,40
 366 60 366 60 406.5 108.5 c 128,-1,41
 447 157 447 157 447 238 c 2,42,-1
 447 496 l 1,43,-1
 525 496 l 1,44,-1
 525 -122 l 2,45,46
 525 -156 525 -156 503.5 -178 c 128,-1,47
 482 -200 482 -200 448 -200 c 2,48,-1
 225 -200 l 1,49,-1
 225 -128 l 1,50,-1
 420 -128 l 2,51,52
 447 -128 447 -128 447 -98 c 2,53,-1
 447 90 l 1,24,-1
EndSplineSet
EndChar

StartChar: jcircumflex
Encoding: 309 309 247
Width: 612
GlyphClass: 2
Flags: W
LayerCount: 2
Fore
SplineSet
158 496 m 1,0,-1
 434 496 l 1,1,-1
 434 -122 l 2,2,3
 434 -156 434 -156 412.5 -178 c 128,-1,4
 391 -200 391 -200 357 -200 c 2,5,-1
 134 -200 l 1,6,-1
 134 -128 l 1,7,-1
 329 -128 l 2,8,9
 356 -128 356 -128 356 -98 c 2,10,-1
 356 424 l 1,11,-1
 158 424 l 1,12,-1
 158 496 l 1,0,-1
354 570 m 1,13,-1
 302 658 l 1,14,-1
 290 658 l 1,15,-1
 238 570 l 1,16,-1
 154 570 l 1,17,-1
 234 688 l 1,18,-1
 358 688 l 1,19,-1
 438 570 l 1,20,-1
 354 570 l 1,13,-1
EndSplineSet
Substitution2: "'ss02' Style Set 2 in Latin lookup 3 subtable" jcircumflex.alt
Substitution2: "'aalt' Access All Alternates in Latin lookup 0 subtable" jcircumflex.alt
EndChar

StartChar: kgreenlandic
Encoding: 312 312 250
Width: 612
GlyphClass: 2
Flags: W
LayerCount: 2
Fore
SplineSet
215 290 m 1,0,-1
 232 290 l 1,1,-1
 421 496 l 1,2,-1
 517 496 l 1,3,-1
 517 490 l 1,4,-1
 311 263 l 1,5,-1
 311 245 l 1,6,-1
 541 6 l 1,7,-1
 541 0 l 1,8,-1
 445 0 l 1,9,-1
 234 218 l 1,10,-1
 215 218 l 1,11,-1
 215 0 l 1,12,-1
 137 0 l 1,13,-1
 137 496 l 1,14,-1
 215 496 l 1,15,-1
 215 290 l 1,0,-1
EndSplineSet
EndChar

StartChar: Lslash
Encoding: 321 321 259
Width: 612
GlyphClass: 2
Flags: W
LayerCount: 2
Fore
SplineSet
120 359 m 1,0,-1
 120 700 l 1,1,-1
 204 700 l 1,2,-1
 204 402 l 1,3,-1
 265 433 l 1,4,-1
 299 366 l 1,5,-1
 204 317 l 1,6,-1
 204 78 l 1,7,-1
 552 78 l 1,8,-1
 552 0 l 1,9,-1
 120 0 l 1,10,-1
 120 274 l 1,11,-1
 59 243 l 1,12,-1
 24 311 l 1,13,-1
 120 359 l 1,0,-1
EndSplineSet
EndChar

StartChar: lslash
Encoding: 322 322 260
Width: 612
GlyphClass: 2
Flags: W
LayerCount: 2
Fore
SplineSet
87 72 m 1,0,-1
 267 72 l 1,1,-1
 267 275 l 1,2,-1
 204 243 l 1,3,-1
 169 311 l 1,4,-1
 267 360 l 1,5,-1
 267 628 l 1,6,-1
 93 628 l 1,7,-1
 93 700 l 1,8,-1
 345 700 l 1,9,-1
 345 400 l 1,10,-1
 410 433 l 1,11,-1
 444 366 l 1,12,-1
 345 315 l 1,13,-1
 345 72 l 1,14,-1
 525 72 l 1,15,-1
 525 0 l 1,16,-1
 87 0 l 1,17,-1
 87 72 l 1,0,-1
EndSplineSet
Substitution2: "'ss02' Style Set 2 in Latin lookup 3 subtable" lslash.alt
Substitution2: "'aalt' Access All Alternates in Latin lookup 0 subtable" lslash.alt
EndChar

StartChar: uni0146
Encoding: 326 326 264
Width: 612
GlyphClass: 2
Flags: W
LayerCount: 2
Fore
SplineSet
165 0 m 1,0,-1
 87 0 l 1,1,-1
 87 496 l 1,2,-1
 165 496 l 1,3,-1
 165 412 l 1,4,-1
 177 412 l 1,5,6
 223 510 223 510 337 510 c 0,7,8
 423 510 423 510 474 456.5 c 128,-1,9
 525 403 525 403 525 296 c 2,10,-1
 525 0 l 1,11,-1
 447 0 l 1,12,-1
 447 280 l 2,13,14
 447 358 447 358 412 397 c 128,-1,15
 377 436 377 436 317 436 c 0,16,17
 246 436 246 436 205.5 387.5 c 128,-1,18
 165 339 165 339 165 258 c 2,19,-1
 165 0 l 1,0,-1
247 -114 m 256,20,21
 247 -85 247 -85 267.5 -64.5 c 128,-1,22
 288 -44 288 -44 317 -44 c 256,23,24
 346 -44 346 -44 366.5 -64.5 c 128,-1,25
 387 -85 387 -85 387 -114 c 2,26,-1
 387 -212 l 2,27,28
 387 -246 387 -246 365.5 -268 c 128,-1,29
 344 -290 344 -290 310 -290 c 2,30,-1
 259 -290 l 1,31,-1
 259 -236 l 1,32,-1
 306 -236 l 2,33,34
 333 -236 333 -236 333 -206 c 2,35,-1
 333 -181 l 1,36,37
 325 -184 325 -184 316 -184 c 0,38,39
 288 -184 288 -184 267.5 -163.5 c 128,-1,40
 247 -143 247 -143 247 -114 c 256,20,21
EndSplineSet
EndChar

StartChar: napostrophe
Encoding: 329 329 267
Width: 612
GlyphClass: 2
Flags: W
LayerCount: 2
Fore
SplineSet
75 750 m 256,0,1
 75 779 75 779 95.5 799.5 c 128,-1,2
 116 820 116 820 145 820 c 256,3,4
 174 820 174 820 194.5 799.5 c 128,-1,5
 215 779 215 779 215 750 c 2,6,-1
 215 652 l 2,7,8
 215 618 215 618 193.5 596 c 128,-1,9
 172 574 172 574 138 574 c 2,10,-1
 87 574 l 1,11,-1
 87 628 l 1,12,-1
 134 628 l 2,13,14
 161 628 161 628 161 658 c 2,15,-1
 161 683 l 1,16,17
 153 680 153 680 144 680 c 0,18,19
 116 680 116 680 95.5 700.5 c 128,-1,20
 75 721 75 721 75 750 c 256,0,1
165 0 m 1,21,-1
 87 0 l 1,22,-1
 87 496 l 1,23,-1
 165 496 l 1,24,-1
 165 412 l 1,25,-1
 177 412 l 1,26,27
 223 510 223 510 337 510 c 0,28,29
 423 510 423 510 474 456.5 c 128,-1,30
 525 403 525 403 525 296 c 2,31,-1
 525 0 l 1,32,-1
 447 0 l 1,33,-1
 447 280 l 2,34,35
 447 358 447 358 412 397 c 128,-1,36
 377 436 377 436 317 436 c 0,37,38
 246 436 246 436 205.5 387.5 c 128,-1,39
 165 339 165 339 165 258 c 2,40,-1
 165 0 l 1,21,-1
EndSplineSet
EndChar

StartChar: Eng
Encoding: 330 330 268
Width: 612
GlyphClass: 2
Flags: W
LayerCount: 2
Fore
SplineSet
443 36 m 1,0,-1
 455 36 l 1,1,-1
 455 700 l 1,2,-1
 539 700 l 1,3,-1
 539 -80 l 2,4,5
 539 -139 539 -139 508.5 -169.5 c 128,-1,6
 478 -200 478 -200 419 -200 c 2,7,-1
 241 -200 l 1,8,-1
 241 -122 l 1,9,-1
 401 -122 l 2,10,11
 431 -122 431 -122 443 -108 c 128,-1,12
 455 -94 455 -94 455 -68 c 2,13,-1
 455 0 l 1,14,-1
 371 0 l 1,15,-1
 169 664 l 1,16,-1
 157 664 l 1,17,-1
 157 0 l 1,18,-1
 73 0 l 1,19,-1
 73 700 l 1,20,-1
 241 700 l 1,21,-1
 443 36 l 1,0,-1
EndSplineSet
EndChar

StartChar: eng
Encoding: 331 331 269
Width: 612
GlyphClass: 2
Flags: W
LayerCount: 2
Fore
SplineSet
165 0 m 1,0,-1
 87 0 l 1,1,-1
 87 496 l 1,2,-1
 165 496 l 1,3,-1
 165 412 l 1,4,-1
 177 412 l 1,5,6
 223 510 223 510 337 510 c 0,7,8
 423 510 423 510 474 456.5 c 128,-1,9
 525 403 525 403 525 296 c 2,10,-1
 525 -122 l 2,11,12
 525 -156 525 -156 503.5 -178 c 128,-1,13
 482 -200 482 -200 448 -200 c 2,14,-1
 317 -200 l 1,15,-1
 317 -128 l 1,16,-1
 420 -128 l 2,17,18
 447 -128 447 -128 447 -98 c 2,19,-1
 447 280 l 2,20,21
 447 358 447 358 412 397 c 128,-1,22
 377 436 377 436 317 436 c 0,23,24
 246 436 246 436 205.5 387.5 c 128,-1,25
 165 339 165 339 165 258 c 2,26,-1
 165 0 l 1,0,-1
EndSplineSet
EndChar

StartChar: OE
Encoding: 338 338 276
Width: 612
GlyphClass: 2
Flags: W
LayerCount: 2
Fore
SplineSet
300 0 m 2,0,1
 184 0 184 0 119 73 c 128,-1,2
 54 146 54 146 54 286 c 2,3,-1
 54 414 l 2,4,5
 54 550 54 550 119 625 c 128,-1,6
 184 700 184 700 300 700 c 2,7,-1
 540 700 l 1,8,-1
 540 622 l 1,9,-1
 384 622 l 1,10,-1
 384 390 l 1,11,-1
 534 390 l 1,12,-1
 534 312 l 1,13,-1
 384 312 l 1,14,-1
 384 78 l 1,15,-1
 546 78 l 1,16,-1
 546 0 l 1,17,-1
 300 0 l 2,0,1
300 622 m 1,18,19
 219 622 219 622 178.5 563 c 128,-1,20
 138 504 138 504 138 408 c 2,21,-1
 138 292 l 2,22,23
 138 189 138 189 178.5 133.5 c 128,-1,24
 219 78 219 78 300 78 c 1,25,-1
 300 622 l 1,18,19
EndSplineSet
EndChar

StartChar: oe
Encoding: 339 339 277
Width: 612
GlyphClass: 2
Flags: W
LayerCount: 2
Fore
SplineSet
317 -14 m 0,0,1
 267 -14 267 -14 222 3 c 128,-1,2
 177 20 177 20 143 52.5 c 128,-1,3
 109 85 109 85 88.5 132.5 c 128,-1,4
 68 180 68 180 68 242 c 2,5,-1
 68 254 l 2,6,7
 68 315 68 315 88.5 362.5 c 128,-1,8
 109 410 109 410 143.5 443 c 128,-1,9
 178 476 178 476 223 493 c 128,-1,10
 268 510 268 510 317 510 c 0,11,12
 378 510 378 510 422.5 487.5 c 128,-1,13
 467 465 467 465 495.5 432 c 128,-1,14
 524 399 524 399 537.5 360 c 128,-1,15
 551 321 551 321 551 288 c 2,16,-1
 551 224 l 1,17,-1
 352 224 l 1,18,-1
 352 62 l 1,19,20
 405 70 405 70 432 97.5 c 128,-1,21
 459 125 459 125 471 162 c 1,22,-1
 545 142 l 1,23,24
 524 73 524 73 468 29.5 c 128,-1,25
 412 -14 412 -14 317 -14 c 0,0,1
148 242 m 2,26,27
 148 170 148 170 183 124.5 c 128,-1,28
 218 79 218 79 274 65 c 1,29,-1
 274 430 l 1,30,31
 219 416 219 416 183.5 369.5 c 128,-1,32
 148 323 148 323 148 254 c 2,33,-1
 148 242 l 2,26,27
473 296 m 1,34,35
 470 351 470 351 435 386.5 c 128,-1,36
 400 422 400 422 352 432 c 1,37,-1
 352 296 l 1,38,-1
 473 296 l 1,34,35
EndSplineSet
EndChar

StartChar: Racute
Encoding: 340 340 278
Width: 612
GlyphClass: 2
Flags: W
LayerCount: 2
Fore
SplineSet
525 0 m 1,0,-1
 441 0 l 1,1,-1
 441 234 l 2,2,3
 441 260 441 260 429 274 c 128,-1,4
 417 288 417 288 387 288 c 2,5,-1
 169 288 l 1,6,-1
 169 0 l 1,7,-1
 85 0 l 1,8,-1
 85 700 l 1,9,-1
 335 700 l 2,10,11
 389 700 389 700 429 684.5 c 128,-1,12
 469 669 469 669 495.5 643 c 128,-1,13
 522 617 522 617 535.5 582.5 c 128,-1,14
 549 548 549 548 549 510 c 2,15,-1
 549 480 l 2,16,17
 549 441 549 441 527.5 402 c 128,-1,18
 506 363 506 363 461 342 c 1,19,-1
 461 330 l 1,20,21
 491 325 491 325 508 306 c 128,-1,22
 525 287 525 287 525 252 c 2,23,-1
 525 0 l 1,0,-1
169 366 m 1,24,-1
 325 366 l 2,25,26
 396 366 396 366 430.5 396.5 c 128,-1,27
 465 427 465 427 465 486 c 2,28,-1
 465 504 l 2,29,30
 465 557 465 557 430.5 589.5 c 128,-1,31
 396 622 396 622 325 622 c 2,32,-1
 169 622 l 1,33,-1
 169 366 l 1,24,-1
408 892 m 1,34,-1
 324 774 l 1,35,-1
 252 774 l 1,36,-1
 318 892 l 1,37,-1
 408 892 l 1,34,-1
EndSplineSet
EndChar

StartChar: Sacute
Encoding: 346 346 284
Width: 612
GlyphClass: 2
Flags: W
LayerCount: 2
Fore
SplineSet
471 498 m 2,0,1
 471 532 471 532 457.5 558 c 128,-1,2
 444 584 444 584 421 601 c 128,-1,3
 398 618 398 618 368 627 c 128,-1,4
 338 636 338 636 305 636 c 0,5,6
 276 636 276 636 250 628.5 c 128,-1,7
 224 621 224 621 203.5 607 c 128,-1,8
 183 593 183 593 171 572.5 c 128,-1,9
 159 552 159 552 159 525 c 2,10,-1
 159 519 l 2,11,12
 159 490 159 490 171 469.5 c 128,-1,13
 183 449 183 449 206.5 434.5 c 128,-1,14
 230 420 230 420 265 410.5 c 128,-1,15
 300 401 300 401 347 394 c 0,16,17
 457 377 457 377 509 329.5 c 128,-1,18
 561 282 561 282 561 202 c 2,19,-1
 561 190 l 2,20,21
 561 145 561 145 545.5 107.5 c 128,-1,22
 530 70 530 70 499.5 43 c 128,-1,23
 469 16 469 16 424 1 c 128,-1,24
 379 -14 379 -14 320 -14 c 0,25,26
 253 -14 253 -14 201.5 5.5 c 128,-1,27
 150 25 150 25 115.5 59.5 c 128,-1,28
 81 94 81 94 63 140.5 c 128,-1,29
 45 187 45 187 45 242 c 2,30,-1
 45 272 l 1,31,-1
 129 272 l 1,32,-1
 129 248 l 2,33,34
 129 156 129 156 179.5 110 c 128,-1,35
 230 64 230 64 320 64 c 0,36,37
 398 64 398 64 437.5 98.5 c 128,-1,38
 477 133 477 133 477 190 c 2,39,-1
 477 196 l 2,40,41
 477 251 477 251 436.5 280 c 128,-1,42
 396 309 396 309 305 322 c 0,43,44
 252 329 252 329 209.5 343.5 c 128,-1,45
 167 358 167 358 137 381.5 c 128,-1,46
 107 405 107 405 91 438 c 128,-1,47
 75 471 75 471 75 516 c 2,48,-1
 75 528 l 2,49,50
 75 569 75 569 92 603 c 128,-1,51
 109 637 109 637 139.5 662 c 128,-1,52
 170 687 170 687 212.5 700.5 c 128,-1,53
 255 714 255 714 306 714 c 0,54,55
 365 714 365 714 411.5 697 c 128,-1,56
 458 680 458 680 490 651.5 c 128,-1,57
 522 623 522 623 538.5 584.5 c 128,-1,58
 555 546 555 546 555 504 c 2,59,-1
 555 462 l 1,60,-1
 471 462 l 1,61,-1
 471 498 l 2,0,1
414 892 m 1,62,-1
 330 774 l 1,63,-1
 258 774 l 1,64,-1
 324 892 l 1,65,-1
 414 892 l 1,62,-1
EndSplineSet
EndChar

StartChar: Scedilla
Encoding: 350 350 288
Width: 612
GlyphClass: 2
Flags: W
LayerCount: 2
Fore
SplineSet
471 498 m 2,0,1
 471 532 471 532 457.5 558 c 128,-1,2
 444 584 444 584 421 601 c 128,-1,3
 398 618 398 618 368 627 c 128,-1,4
 338 636 338 636 305 636 c 0,5,6
 276 636 276 636 250 628.5 c 128,-1,7
 224 621 224 621 203.5 607 c 128,-1,8
 183 593 183 593 171 572.5 c 128,-1,9
 159 552 159 552 159 525 c 2,10,-1
 159 519 l 2,11,12
 159 490 159 490 171 469.5 c 128,-1,13
 183 449 183 449 206.5 434.5 c 128,-1,14
 230 420 230 420 265 410.5 c 128,-1,15
 300 401 300 401 347 394 c 0,16,17
 457 377 457 377 509 329.5 c 128,-1,18
 561 282 561 282 561 202 c 2,19,-1
 561 190 l 2,20,21
 561 145 561 145 545.5 107.5 c 128,-1,22
 530 70 530 70 499.5 43 c 128,-1,23
 469 16 469 16 424 1 c 128,-1,24
 379 -14 379 -14 320 -14 c 2,25,-1
 312 -14 l 1,26,-1
 300 -68 l 1,27,-1
 306 -68 l 1,28,29
 319 -36 319 -36 360 -36 c 0,30,31
 395 -36 395 -36 415.5 -61 c 128,-1,32
 436 -86 436 -86 436 -121 c 0,33,34
 436 -163 436 -163 409 -187.5 c 128,-1,35
 382 -212 382 -212 343 -212 c 0,36,37
 300 -212 300 -212 277 -192 c 128,-1,38
 254 -172 254 -172 246 -142 c 1,39,-1
 294 -124 l 1,40,41
 297 -139 297 -139 308.5 -151.5 c 128,-1,42
 320 -164 320 -164 342 -164 c 0,43,44
 357 -164 357 -164 369.5 -154 c 128,-1,45
 382 -144 382 -144 382 -122 c 0,46,47
 382 -104 382 -104 371.5 -94 c 128,-1,48
 361 -84 361 -84 347 -84 c 0,49,50
 329 -84 329 -84 322 -98 c 1,51,-1
 246 -98 l 1,52,-1
 246 -92 l 1,53,-1
 264 -10 l 1,54,55
 210 -2 210 -2 169.5 20 c 128,-1,56
 129 42 129 42 101 75 c 128,-1,57
 73 108 73 108 59 150.5 c 128,-1,58
 45 193 45 193 45 242 c 2,59,-1
 45 272 l 1,60,-1
 129 272 l 1,61,-1
 129 248 l 2,62,63
 129 156 129 156 179.5 110 c 128,-1,64
 230 64 230 64 320 64 c 0,65,66
 398 64 398 64 437.5 98.5 c 128,-1,67
 477 133 477 133 477 190 c 2,68,-1
 477 196 l 2,69,70
 477 251 477 251 436.5 280 c 128,-1,71
 396 309 396 309 305 322 c 0,72,73
 252 329 252 329 209.5 343.5 c 128,-1,74
 167 358 167 358 137 381.5 c 128,-1,75
 107 405 107 405 91 438 c 128,-1,76
 75 471 75 471 75 516 c 2,77,-1
 75 528 l 2,78,79
 75 569 75 569 92 603 c 128,-1,80
 109 637 109 637 139.5 662 c 128,-1,81
 170 687 170 687 212.5 700.5 c 128,-1,82
 255 714 255 714 306 714 c 0,83,84
 365 714 365 714 411.5 697 c 128,-1,85
 458 680 458 680 490 651.5 c 128,-1,86
 522 623 522 623 538.5 584.5 c 128,-1,87
 555 546 555 546 555 504 c 2,88,-1
 555 462 l 1,89,-1
 471 462 l 1,90,-1
 471 498 l 2,0,1
EndSplineSet
Substitution2: "'locl' Localized Forms in Latin lookup 12 subtable" uni0218
Substitution2: "'locl' Localized Forms in Latin lookup 11 subtable" uni0218
Substitution2: "'aalt' Access All Alternates in Latin lookup 0 subtable" uni0218
EndChar

StartChar: scedilla
Encoding: 351 351 289
Width: 612
GlyphClass: 2
Flags: W
LayerCount: 2
Fore
SplineSet
190 368 m 0,0,1
 190 332 190 332 220.5 313 c 128,-1,2
 251 294 251 294 332 288 c 0,3,4
 419 281 419 281 464.5 246.5 c 128,-1,5
 510 212 510 212 510 146 c 2,6,-1
 510 140 l 2,7,8
 510 104 510 104 495.5 75.5 c 128,-1,9
 481 47 481 47 455.5 27 c 128,-1,10
 430 7 430 7 393.5 -3.5 c 128,-1,11
 357 -14 357 -14 314 -14 c 2,12,-1
 306 -14 l 1,13,-1
 294 -68 l 1,14,-1
 300 -68 l 1,15,16
 313 -36 313 -36 354 -36 c 0,17,18
 389 -36 389 -36 409.5 -61 c 128,-1,19
 430 -86 430 -86 430 -121 c 0,20,21
 430 -163 430 -163 403 -187.5 c 128,-1,22
 376 -212 376 -212 337 -212 c 0,23,24
 294 -212 294 -212 271 -192 c 128,-1,25
 248 -172 248 -172 240 -142 c 1,26,-1
 288 -124 l 1,27,28
 291 -139 291 -139 302.5 -151.5 c 128,-1,29
 314 -164 314 -164 336 -164 c 0,30,31
 351 -164 351 -164 363.5 -154 c 128,-1,32
 376 -144 376 -144 376 -122 c 0,33,34
 376 -104 376 -104 365.5 -94 c 128,-1,35
 355 -84 355 -84 341 -84 c 0,36,37
 323 -84 323 -84 316 -98 c 1,38,-1
 240 -98 l 1,39,-1
 240 -92 l 1,40,-1
 258 -9 l 1,41,42
 215 -2 215 -2 184 15.5 c 128,-1,43
 153 33 153 33 132 57 c 128,-1,44
 111 81 111 81 100.5 109 c 128,-1,45
 90 137 90 137 88 166 c 1,46,-1
 162 184 l 1,47,48
 167 127 167 127 206 92.5 c 128,-1,49
 245 58 245 58 310 58 c 0,50,51
 365 58 365 58 398.5 79.5 c 128,-1,52
 432 101 432 101 432 140 c 0,53,54
 432 182 432 182 399 200 c 128,-1,55
 366 218 366 218 292 223 c 0,56,57
 206 229 206 229 160 263 c 128,-1,58
 114 297 114 297 114 362 c 2,59,-1
 114 368 l 2,60,61
 114 403 114 403 129 429.5 c 128,-1,62
 144 456 144 456 169.5 474 c 128,-1,63
 195 492 195 492 227 501 c 128,-1,64
 259 510 259 510 294 510 c 0,65,66
 343 510 343 510 380 496.5 c 128,-1,67
 417 483 417 483 442 461.5 c 128,-1,68
 467 440 467 440 480.5 412 c 128,-1,69
 494 384 494 384 498 356 c 1,70,-1
 424 338 l 1,71,72
 419 386 419 386 385.5 413 c 128,-1,73
 352 440 352 440 298 440 c 0,74,75
 277 440 277 440 257.5 435.5 c 128,-1,76
 238 431 238 431 223 422 c 128,-1,77
 208 413 208 413 199 399.5 c 128,-1,78
 190 386 190 386 190 368 c 0,0,1
EndSplineSet
Substitution2: "'locl' Localized Forms in Latin lookup 12 subtable" uni0219
Substitution2: "'locl' Localized Forms in Latin lookup 11 subtable" uni0219
Substitution2: "'aalt' Access All Alternates in Latin lookup 0 subtable" uni0219
EndChar

StartChar: uni0162
Encoding: 354 354 292
Width: 612
GlyphClass: 2
Flags: W
LayerCount: 2
Fore
SplineSet
264 0 m 1,0,-1
 264 622 l 1,1,-1
 60 622 l 1,2,-1
 60 700 l 1,3,-1
 552 700 l 1,4,-1
 552 622 l 1,5,-1
 348 622 l 1,6,-1
 348 0 l 1,7,-1
 331 0 l 1,8,-1
 316 -68 l 1,9,-1
 322 -68 l 1,10,11
 335 -36 335 -36 376 -36 c 0,12,13
 411 -36 411 -36 431.5 -61 c 128,-1,14
 452 -86 452 -86 452 -121 c 0,15,16
 452 -163 452 -163 425 -187.5 c 128,-1,17
 398 -212 398 -212 359 -212 c 0,18,19
 316 -212 316 -212 293 -192 c 128,-1,20
 270 -172 270 -172 262 -142 c 1,21,-1
 310 -124 l 1,22,23
 313 -139 313 -139 324.5 -151.5 c 128,-1,24
 336 -164 336 -164 358 -164 c 0,25,26
 373 -164 373 -164 385.5 -154 c 128,-1,27
 398 -144 398 -144 398 -122 c 0,28,29
 398 -104 398 -104 387.5 -94 c 128,-1,30
 377 -84 377 -84 363 -84 c 0,31,32
 345 -84 345 -84 338 -98 c 1,33,-1
 262 -98 l 1,34,-1
 262 -92 l 1,35,-1
 282 0 l 1,36,-1
 264 0 l 1,0,-1
EndSplineSet
Substitution2: "'locl' Localized Forms in Latin lookup 12 subtable" uni021A
Substitution2: "'locl' Localized Forms in Latin lookup 11 subtable" uni021A
Substitution2: "'aalt' Access All Alternates in Latin lookup 0 subtable" uni021A
EndChar

StartChar: uni0163
Encoding: 355 355 293
Width: 612
GlyphClass: 2
Flags: W
LayerCount: 2
Fore
SplineSet
303 0 m 1,0,1
 269 0 269 0 247.5 22 c 128,-1,2
 226 44 226 44 226 78 c 2,3,-1
 226 424 l 1,4,-1
 70 424 l 1,5,-1
 70 496 l 1,6,-1
 226 496 l 1,7,-1
 226 700 l 1,8,-1
 304 700 l 1,9,-1
 304 496 l 1,10,-1
 496 496 l 1,11,-1
 496 424 l 1,12,-1
 304 424 l 1,13,-1
 304 102 l 2,14,15
 304 72 304 72 331 72 c 2,16,-1
 472 72 l 1,17,-1
 472 0 l 1,18,-1
 352 0 l 1,19,-1
 337 -68 l 1,20,-1
 343 -68 l 1,21,22
 356 -36 356 -36 397 -36 c 0,23,24
 432 -36 432 -36 452.5 -61 c 128,-1,25
 473 -86 473 -86 473 -121 c 0,26,27
 473 -163 473 -163 446 -187.5 c 128,-1,28
 419 -212 419 -212 380 -212 c 0,29,30
 337 -212 337 -212 314 -192 c 128,-1,31
 291 -172 291 -172 283 -142 c 1,32,-1
 331 -124 l 1,33,34
 334 -139 334 -139 345.5 -151.5 c 128,-1,35
 357 -164 357 -164 379 -164 c 0,36,37
 394 -164 394 -164 406.5 -154 c 128,-1,38
 419 -144 419 -144 419 -122 c 0,39,40
 419 -104 419 -104 408.5 -94 c 128,-1,41
 398 -84 398 -84 384 -84 c 0,42,43
 366 -84 366 -84 359 -98 c 1,44,-1
 283 -98 l 1,45,-1
 283 -92 l 1,46,-1
 303 0 l 1,0,1
EndSplineSet
Substitution2: "'locl' Localized Forms in Latin lookup 12 subtable" uni021B
Substitution2: "'locl' Localized Forms in Latin lookup 11 subtable" uni021B
Substitution2: "'aalt' Access All Alternates in Latin lookup 0 subtable" uni021B
EndChar

StartChar: tcaron
Encoding: 357 357 295
Width: 612
GlyphClass: 2
Flags: W
LayerCount: 2
Fore
SplineSet
70 496 m 1,0,-1
 226 496 l 1,1,-1
 226 700 l 1,2,-1
 304 700 l 1,3,-1
 304 496 l 1,4,-1
 376 496 l 1,5,-1
 376 424 l 1,6,-1
 304 424 l 1,7,-1
 304 102 l 2,8,9
 304 72 304 72 331 72 c 2,10,-1
 472 72 l 1,11,-1
 472 0 l 1,12,-1
 303 0 l 2,13,14
 269 0 269 0 247.5 22 c 128,-1,15
 226 44 226 44 226 78 c 2,16,-1
 226 424 l 1,17,-1
 70 424 l 1,18,-1
 70 496 l 1,0,-1
394 630 m 256,19,20
 394 659 394 659 414.5 679.5 c 128,-1,21
 435 700 435 700 464 700 c 256,22,23
 493 700 493 700 513.5 679.5 c 128,-1,24
 534 659 534 659 534 630 c 2,25,-1
 534 502 l 2,26,27
 534 468 534 468 512.5 446 c 128,-1,28
 491 424 491 424 457 424 c 2,29,-1
 406 424 l 1,30,-1
 406 478 l 1,31,-1
 453 478 l 2,32,33
 480 478 480 478 480 508 c 2,34,-1
 480 563 l 1,35,36
 472 560 472 560 463 560 c 0,37,38
 435 560 435 560 414.5 580.5 c 128,-1,39
 394 601 394 601 394 630 c 256,19,20
EndSplineSet
EndChar

StartChar: Tbar
Encoding: 358 358 296
Width: 612
GlyphClass: 2
Flags: W
LayerCount: 2
Fore
SplineSet
60 700 m 1,0,-1
 552 700 l 1,1,-1
 552 622 l 1,2,-1
 348 622 l 1,3,-1
 348 428 l 1,4,-1
 504 428 l 1,5,-1
 504 350 l 1,6,-1
 348 350 l 1,7,-1
 348 0 l 1,8,-1
 264 0 l 1,9,-1
 264 350 l 1,10,-1
 108 350 l 1,11,-1
 108 428 l 1,12,-1
 264 428 l 1,13,-1
 264 622 l 1,14,-1
 60 622 l 1,15,-1
 60 700 l 1,0,-1
EndSplineSet
EndChar

StartChar: tbar
Encoding: 359 359 297
Width: 612
GlyphClass: 2
Flags: W
LayerCount: 2
Fore
SplineSet
70 496 m 1,0,-1
 226 496 l 1,1,-1
 226 700 l 1,2,-1
 304 700 l 1,3,-1
 304 496 l 1,4,-1
 496 496 l 1,5,-1
 496 424 l 1,6,-1
 304 424 l 1,7,-1
 304 350 l 1,8,-1
 460 350 l 1,9,-1
 460 278 l 1,10,-1
 304 278 l 1,11,-1
 304 102 l 2,12,13
 304 72 304 72 331 72 c 2,14,-1
 472 72 l 1,15,-1
 472 0 l 1,16,-1
 303 0 l 2,17,18
 269 0 269 0 247.5 22 c 128,-1,19
 226 44 226 44 226 78 c 2,20,-1
 226 278 l 1,21,-1
 106 278 l 1,22,-1
 106 350 l 1,23,-1
 226 350 l 1,24,-1
 226 424 l 1,25,-1
 70 424 l 1,26,-1
 70 496 l 1,0,-1
EndSplineSet
EndChar

StartChar: Uogonek
Encoding: 370 370 308
Width: 612
GlyphClass: 2
Flags: W
LayerCount: 2
Fore
SplineSet
150 700 m 1,0,-1
 150 236 l 2,1,2
 150 151 150 151 189.5 107.5 c 128,-1,3
 229 64 229 64 306 64 c 256,4,5
 383 64 383 64 422.5 107.5 c 128,-1,6
 462 151 462 151 462 236 c 2,7,-1
 462 700 l 1,8,-1
 546 700 l 1,9,-1
 546 236 l 2,10,11
 546 123 546 123 490.5 60 c 128,-1,12
 435 -3 435 -3 338 -12 c 1,13,-1
 325 -68 l 2,14,15
 324 -73 324 -73 324 -76 c 0,16,17
 324 -98 324 -98 347 -98 c 2,18,-1
 389 -98 l 1,19,-1
 389 -164 l 1,20,-1
 333 -164 l 2,21,22
 304 -164 304 -164 279.5 -145.5 c 128,-1,23
 255 -127 255 -127 255 -90 c 0,24,25
 255 -81 255 -81 258 -66 c 2,26,-1
 270 -12 l 1,27,28
 174 -2 174 -2 120 61 c 128,-1,29
 66 124 66 124 66 236 c 2,30,-1
 66 700 l 1,31,-1
 150 700 l 1,0,-1
EndSplineSet
EndChar

StartChar: uogonek
Encoding: 371 371 309
Width: 612
GlyphClass: 2
Flags: W
LayerCount: 2
Fore
SplineSet
441 496 m 1,0,-1
 519 496 l 1,1,-1
 519 0 l 1,2,-1
 490 0 l 1,3,-1
 474 -68 l 2,4,5
 473 -73 473 -73 473 -76 c 0,6,7
 473 -98 473 -98 496 -98 c 2,8,-1
 538 -98 l 1,9,-1
 538 -164 l 1,10,-1
 482 -164 l 2,11,12
 453 -164 453 -164 428.5 -145.5 c 128,-1,13
 404 -127 404 -127 404 -90 c 0,14,15
 404 -81 404 -81 407 -66 c 2,16,-1
 441 90 l 1,17,-1
 429 90 l 1,18,19
 405 42 405 42 366 14 c 128,-1,20
 327 -14 327 -14 267 -14 c 0,21,22
 226 -14 226 -14 191.5 -0.5 c 128,-1,23
 157 13 157 13 132.5 40 c 128,-1,24
 108 67 108 67 94.5 107 c 128,-1,25
 81 147 81 147 81 200 c 2,26,-1
 81 496 l 1,27,-1
 159 496 l 1,28,-1
 159 210 l 2,29,30
 159 132 159 132 191 96 c 128,-1,31
 223 60 223 60 289 60 c 0,32,33
 360 60 360 60 400.5 108.5 c 128,-1,34
 441 157 441 157 441 238 c 2,35,-1
 441 496 l 1,0,-1
EndSplineSet
EndChar

StartChar: longs
Encoding: 383 383 321
Width: 612
GlyphClass: 2
Flags: W
LayerCount: 2
Fore
SplineSet
180 496 m 1,0,-1
 240 496 l 1,1,-1
 240 622 l 2,2,3
 240 656 240 656 261.5 678 c 128,-1,4
 283 700 283 700 317 700 c 2,5,-1
 513 700 l 1,6,-1
 513 628 l 1,7,-1
 345 628 l 2,8,9
 318 628 318 628 318 598 c 2,10,-1
 318 0 l 1,11,-1
 240 0 l 1,12,-1
 240 424 l 1,13,-1
 180 424 l 1,14,-1
 180 496 l 1,0,-1
EndSplineSet
EndChar

StartChar: uni0180
Encoding: 384 384 322
Width: 612
GlyphClass: 2
Flags: W
LayerCount: 2
Fore
SplineSet
9 634 m 1,0,-1
 69 634 l 1,1,-1
 69 700 l 1,2,-1
 147 700 l 1,3,-1
 147 634 l 1,4,-1
 325 634 l 1,5,-1
 325 562 l 1,6,-1
 147 562 l 1,7,-1
 147 418 l 1,8,-1
 159 418 l 1,9,10
 185 463 185 463 231 486.5 c 128,-1,11
 277 510 277 510 331 510 c 0,12,13
 377 510 377 510 418 493 c 128,-1,14
 459 476 459 476 490.5 444 c 128,-1,15
 522 412 522 412 540.5 365 c 128,-1,16
 559 318 559 318 559 258 c 2,17,-1
 559 238 l 2,18,19
 559 177 559 177 541 130 c 128,-1,20
 523 83 523 83 491.5 51 c 128,-1,21
 460 19 460 19 418 2.5 c 128,-1,22
 376 -14 376 -14 329 -14 c 0,23,24
 305 -14 305 -14 280 -8.5 c 128,-1,25
 255 -3 255 -3 232.5 8.5 c 128,-1,26
 210 20 210 20 191 36.5 c 128,-1,27
 172 53 172 53 159 76 c 1,28,-1
 147 76 l 1,29,-1
 147 0 l 1,30,-1
 69 0 l 1,31,-1
 69 562 l 1,32,-1
 9 562 l 1,33,-1
 9 634 l 1,0,-1
313 60 m 0,34,35
 349 60 349 60 379 72.5 c 128,-1,36
 409 85 409 85 431.5 108 c 128,-1,37
 454 131 454 131 466.5 164 c 128,-1,38
 479 197 479 197 479 238 c 2,39,-1
 479 258 l 2,40,41
 479 298 479 298 466.5 330.5 c 128,-1,42
 454 363 454 363 431.5 386.5 c 128,-1,43
 409 410 409 410 378.5 423 c 128,-1,44
 348 436 348 436 313 436 c 256,45,46
 278 436 278 436 248 422.5 c 128,-1,47
 218 409 218 409 195.5 385 c 128,-1,48
 173 361 173 361 160 327.5 c 128,-1,49
 147 294 147 294 147 254 c 2,50,-1
 147 242 l 2,51,52
 147 201 147 201 160 167.5 c 128,-1,53
 173 134 173 134 195.5 110 c 128,-1,54
 218 86 218 86 248 73 c 128,-1,55
 278 60 278 60 313 60 c 0,34,35
EndSplineSet
EndChar

StartChar: uni018F
Encoding: 399 399 323
Width: 612
GlyphClass: 2
Flags: W
LayerCount: 2
Fore
SplineSet
60 362 m 1,0,-1
 468 362 l 1,1,-1
 468 422 l 2,2,3
 468 470 468 470 458 509.5 c 128,-1,4
 448 549 448 549 427.5 577.5 c 128,-1,5
 407 606 407 606 376.5 622 c 128,-1,6
 346 638 346 638 306 638 c 0,7,8
 263 638 263 638 232.5 623 c 128,-1,9
 202 608 202 608 182.5 583.5 c 128,-1,10
 163 559 163 559 154 526.5 c 128,-1,11
 145 494 145 494 144 460 c 2,12,-1
 144 448 l 1,13,-1
 60 448 l 1,14,-1
 60 460 l 2,15,16
 60 513 60 513 76 559.5 c 128,-1,17
 92 606 92 606 123 640.5 c 128,-1,18
 154 675 154 675 200 694.5 c 128,-1,19
 246 714 246 714 306 714 c 0,20,21
 422 714 422 714 487 639 c 128,-1,22
 552 564 552 564 552 428 c 2,23,-1
 552 272 l 2,24,25
 552 132 552 132 487 59 c 128,-1,26
 422 -14 422 -14 306 -14 c 0,27,28
 246 -14 246 -14 200 5.5 c 128,-1,29
 154 25 154 25 123 59.5 c 128,-1,30
 92 94 92 94 76 140.5 c 128,-1,31
 60 187 60 187 60 240 c 2,32,-1
 60 362 l 1,0,-1
306 62 m 0,33,34
 387 62 387 62 427.5 118.5 c 128,-1,35
 468 175 468 175 468 278 c 2,36,-1
 468 284 l 1,37,-1
 144 284 l 1,38,-1
 144 240 l 2,39,40
 144 205 144 205 153.5 173 c 128,-1,41
 163 141 163 141 182.5 116.5 c 128,-1,42
 202 92 202 92 232.5 77 c 128,-1,43
 263 62 263 62 306 62 c 0,33,34
EndSplineSet
EndChar

StartChar: florin
Encoding: 402 402 324
Width: 612
GlyphClass: 2
Flags: W
LayerCount: 2
Fore
SplineSet
267 438 m 1,0,-1
 267 520 l 2,1,2
 267 554 267 554 288.5 576 c 128,-1,3
 310 598 310 598 344 598 c 2,4,-1
 486 598 l 1,5,-1
 486 526 l 1,6,-1
 372 526 l 2,7,8
 345 526 345 526 345 496 c 2,9,-1
 345 438 l 1,10,-1
 435 438 l 1,11,-1
 435 366 l 1,12,-1
 345 366 l 1,13,-1
 345 180 l 2,14,15
 345 146 345 146 323.5 124 c 128,-1,16
 302 102 302 102 268 102 c 2,17,-1
 126 102 l 1,18,-1
 126 174 l 1,19,-1
 240 174 l 2,20,21
 267 174 267 174 267 204 c 2,22,-1
 267 366 l 1,23,-1
 177 366 l 1,24,-1
 177 438 l 1,25,-1
 267 438 l 1,0,-1
EndSplineSet
Substitution2: "'case' Case-Sensitive Forms in Latin lookup 31 subtable" florin.cap
Substitution2: "'case' Case-Sensitive Forms in Latin lookup 30 subtable" florin.cap
Substitution2: "'aalt' Access All Alternates in Latin lookup 0 subtable" florin.cap
EndChar

StartChar: uni01A0
Encoding: 416 416 325
Width: 612
GlyphClass: 2
Flags: W
LayerCount: 2
Fore
SplineSet
38 476 m 2,0,1
 38 589 38 589 91 651.5 c 128,-1,2
 144 714 144 714 242 714 c 0,3,4
 333 714 333 714 385 660 c 128,-1,5
 437 606 437 606 445 508 c 1,6,-1
 512 508 l 2,7,8
 539 508 539 508 539 538 c 2,9,-1
 539 563 l 1,10,11
 531 560 531 560 522 560 c 0,12,13
 494 560 494 560 473.5 580.5 c 128,-1,14
 453 601 453 601 453 630 c 256,15,16
 453 659 453 659 473.5 679.5 c 128,-1,17
 494 700 494 700 523 700 c 256,18,19
 552 700 552 700 572.5 679.5 c 128,-1,20
 593 659 593 659 593 630 c 2,21,-1
 593 532 l 2,22,23
 593 498 593 498 571.5 476 c 128,-1,24
 550 454 550 454 516 454 c 2,25,-1
 446 454 l 1,26,-1
 446 218 l 2,27,28
 446 102 446 102 392.5 44 c 128,-1,29
 339 -14 339 -14 242 -14 c 256,30,31
 145 -14 145 -14 91.5 44 c 128,-1,32
 38 102 38 102 38 218 c 2,33,-1
 38 476 l 2,0,1
242 62 m 256,34,35
 304 62 304 62 333 101.5 c 128,-1,36
 362 141 362 141 362 224 c 2,37,-1
 362 476 l 2,38,39
 362 553 362 553 333.5 595.5 c 128,-1,40
 305 638 305 638 242 638 c 256,41,42
 179 638 179 638 150.5 595.5 c 128,-1,43
 122 553 122 553 122 476 c 2,44,-1
 122 224 l 2,45,46
 122 141 122 141 151 101.5 c 128,-1,47
 180 62 180 62 242 62 c 256,34,35
EndSplineSet
EndChar

StartChar: uni01A1
Encoding: 417 417 326
Width: 612
GlyphClass: 2
Flags: W
LayerCount: 2
Fore
SplineSet
466 426 m 256,0,1
 466 455 466 455 486.5 475.5 c 128,-1,2
 507 496 507 496 536 496 c 256,3,4
 565 496 565 496 585.5 475.5 c 128,-1,5
 606 455 606 455 606 426 c 2,6,-1
 606 328 l 2,7,8
 606 294 606 294 584.5 272 c 128,-1,9
 563 250 563 250 529 250 c 2,10,-1
 466 250 l 1,11,-1
 466 242 l 2,12,13
 466 181 466 181 450.5 133.5 c 128,-1,14
 435 86 435 86 407.5 53 c 128,-1,15
 380 20 380 20 340.5 3 c 128,-1,16
 301 -14 301 -14 253 -14 c 256,17,18
 205 -14 205 -14 165.5 3 c 128,-1,19
 126 20 126 20 98.5 53 c 128,-1,20
 71 86 71 86 55.5 133.5 c 128,-1,21
 40 181 40 181 40 242 c 2,22,-1
 40 254 l 2,23,24
 40 314 40 314 55.5 361.5 c 128,-1,25
 71 409 71 409 99 442 c 128,-1,26
 127 475 127 475 166 492.5 c 128,-1,27
 205 510 205 510 253 510 c 0,28,29
 338 510 338 510 394.5 456 c 128,-1,30
 451 402 451 402 463 304 c 1,31,-1
 525 304 l 2,32,33
 552 304 552 304 552 334 c 2,34,-1
 552 359 l 1,35,36
 544 356 544 356 535 356 c 0,37,38
 507 356 507 356 486.5 376.5 c 128,-1,39
 466 397 466 397 466 426 c 256,0,1
253 60 m 256,40,41
 320 60 320 60 353 108.5 c 128,-1,42
 386 157 386 157 386 242 c 2,43,-1
 386 254 l 2,44,45
 386 335 386 335 352.5 385.5 c 128,-1,46
 319 436 319 436 253 436 c 256,47,48
 187 436 187 436 153.5 385.5 c 128,-1,49
 120 335 120 335 120 254 c 2,50,-1
 120 242 l 2,51,52
 120 157 120 157 153 108.5 c 128,-1,53
 186 60 186 60 253 60 c 256,40,41
EndSplineSet
EndChar

StartChar: uni01AF
Encoding: 431 431 327
Width: 612
GlyphClass: 2
Flags: W
LayerCount: 2
Fore
SplineSet
124 700 m 1,0,-1
 124 206 l 2,1,2
 124 129 124 129 153 95.5 c 128,-1,3
 182 62 182 62 238 62 c 256,4,5
 294 62 294 62 323 95.5 c 128,-1,6
 352 129 352 129 352 206 c 2,7,-1
 352 700 l 1,8,-1
 436 700 l 1,9,-1
 436 508 l 1,10,-1
 531 508 l 2,11,12
 558 508 558 508 558 538 c 2,13,-1
 558 563 l 1,14,15
 550 560 550 560 541 560 c 0,16,17
 513 560 513 560 492.5 580.5 c 128,-1,18
 472 601 472 601 472 630 c 256,19,20
 472 659 472 659 492.5 679.5 c 128,-1,21
 513 700 513 700 542 700 c 256,22,23
 571 700 571 700 591.5 679.5 c 128,-1,24
 612 659 612 659 612 630 c 2,25,-1
 612 532 l 2,26,27
 612 498 612 498 590.5 476 c 128,-1,28
 569 454 569 454 535 454 c 2,29,-1
 436 454 l 1,30,-1
 436 202 l 2,31,32
 436 92 436 92 384.5 39 c 128,-1,33
 333 -14 333 -14 238 -14 c 256,34,35
 143 -14 143 -14 91.5 39 c 128,-1,36
 40 92 40 92 40 202 c 2,37,-1
 40 700 l 1,38,-1
 124 700 l 1,0,-1
EndSplineSet
EndChar

StartChar: uni01B0
Encoding: 432 432 328
Width: 612
GlyphClass: 2
Flags: W
LayerCount: 2
Fore
SplineSet
352 496 m 1,0,-1
 430 496 l 1,1,-1
 430 304 l 1,2,-1
 525 304 l 2,3,4
 552 304 552 304 552 334 c 2,5,-1
 552 359 l 1,6,7
 544 356 544 356 535 356 c 0,8,9
 507 356 507 356 486.5 376.5 c 128,-1,10
 466 397 466 397 466 426 c 256,11,12
 466 455 466 455 486.5 475.5 c 128,-1,13
 507 496 507 496 536 496 c 256,14,15
 565 496 565 496 585.5 475.5 c 128,-1,16
 606 455 606 455 606 426 c 2,17,-1
 606 328 l 2,18,19
 606 294 606 294 584.5 272 c 128,-1,20
 563 250 563 250 529 250 c 2,21,-1
 430 250 l 1,22,-1
 430 0 l 1,23,-1
 352 0 l 1,24,-1
 352 68 l 1,25,-1
 340 68 l 1,26,27
 323 32 323 32 293.5 9 c 128,-1,28
 264 -14 264 -14 208 -14 c 0,29,30
 130 -14 130 -14 85 32 c 128,-1,31
 40 78 40 78 40 166 c 2,32,-1
 40 496 l 1,33,-1
 118 496 l 1,34,-1
 118 180 l 2,35,36
 118 117 118 117 145.5 88.5 c 128,-1,37
 173 60 173 60 226 60 c 0,38,39
 291 60 291 60 321.5 100 c 128,-1,40
 352 140 352 140 352 208 c 2,41,-1
 352 496 l 1,0,-1
EndSplineSet
EndChar

StartChar: uni01D5
Encoding: 469 469 337
Width: 612
GlyphClass: 2
Flags: W
LayerCount: 2
Fore
SplineSet
476 900 m 1,0,-1
 136 900 l 1,1,-1
 136 966 l 1,2,-1
 476 966 l 1,3,-1
 476 900 l 1,0,-1
150 700 m 1,4,-1
 150 236 l 2,5,6
 150 151 150 151 189.5 107.5 c 128,-1,7
 229 64 229 64 306 64 c 256,8,9
 383 64 383 64 422.5 107.5 c 128,-1,10
 462 151 462 151 462 236 c 2,11,-1
 462 700 l 1,12,-1
 546 700 l 1,13,-1
 546 236 l 2,14,15
 546 114 546 114 482 50 c 128,-1,16
 418 -14 418 -14 306 -14 c 256,17,18
 194 -14 194 -14 130 50 c 128,-1,19
 66 114 66 114 66 236 c 2,20,-1
 66 700 l 1,21,-1
 150 700 l 1,4,-1
136 800 m 256,22,23
 136 829 136 829 156.5 849.5 c 128,-1,24
 177 870 177 870 206 870 c 256,25,26
 235 870 235 870 255.5 849.5 c 128,-1,27
 276 829 276 829 276 800 c 256,28,29
 276 771 276 771 255.5 750.5 c 128,-1,30
 235 730 235 730 206 730 c 256,31,32
 177 730 177 730 156.5 750.5 c 128,-1,33
 136 771 136 771 136 800 c 256,22,23
336 800 m 256,34,35
 336 829 336 829 356.5 849.5 c 128,-1,36
 377 870 377 870 406 870 c 256,37,38
 435 870 435 870 455.5 849.5 c 128,-1,39
 476 829 476 829 476 800 c 256,40,41
 476 771 476 771 455.5 750.5 c 128,-1,42
 435 730 435 730 406 730 c 256,43,44
 377 730 377 730 356.5 750.5 c 128,-1,45
 336 771 336 771 336 800 c 256,34,35
EndSplineSet
EndChar

StartChar: uni01D6
Encoding: 470 470 338
Width: 612
GlyphClass: 2
Flags: W
LayerCount: 2
Fore
SplineSet
470 744 m 1,0,-1
 130 744 l 1,1,-1
 130 810 l 1,2,-1
 470 810 l 1,3,-1
 470 744 l 1,0,-1
441 496 m 1,4,-1
 519 496 l 1,5,-1
 519 0 l 1,6,-1
 441 0 l 1,7,-1
 441 90 l 1,8,-1
 429 90 l 1,9,10
 405 42 405 42 366 14 c 128,-1,11
 327 -14 327 -14 267 -14 c 0,12,13
 226 -14 226 -14 191.5 -0.5 c 128,-1,14
 157 13 157 13 132.5 40 c 128,-1,15
 108 67 108 67 94.5 107 c 128,-1,16
 81 147 81 147 81 200 c 2,17,-1
 81 496 l 1,18,-1
 159 496 l 1,19,-1
 159 210 l 2,20,21
 159 132 159 132 191 96 c 128,-1,22
 223 60 223 60 289 60 c 0,23,24
 360 60 360 60 400.5 108.5 c 128,-1,25
 441 157 441 157 441 238 c 2,26,-1
 441 496 l 1,4,-1
130 644 m 256,27,28
 130 673 130 673 150.5 693.5 c 128,-1,29
 171 714 171 714 200 714 c 256,30,31
 229 714 229 714 249.5 693.5 c 128,-1,32
 270 673 270 673 270 644 c 256,33,34
 270 615 270 615 249.5 594.5 c 128,-1,35
 229 574 229 574 200 574 c 256,36,37
 171 574 171 574 150.5 594.5 c 128,-1,38
 130 615 130 615 130 644 c 256,27,28
330 644 m 256,39,40
 330 673 330 673 350.5 693.5 c 128,-1,41
 371 714 371 714 400 714 c 256,42,43
 429 714 429 714 449.5 693.5 c 128,-1,44
 470 673 470 673 470 644 c 256,45,46
 470 615 470 615 449.5 594.5 c 128,-1,47
 429 574 429 574 400 574 c 256,48,49
 371 574 371 574 350.5 594.5 c 128,-1,50
 330 615 330 615 330 644 c 256,39,40
EndSplineSet
EndChar

StartChar: uni01E7
Encoding: 487 487 346
Width: 612
GlyphClass: 2
Flags: W
LayerCount: 2
Fore
SplineSet
464 76 m 1,0,-1
 452 76 l 1,1,2
 428 31 428 31 386.5 8.5 c 128,-1,3
 345 -14 345 -14 296 -14 c 0,4,5
 246 -14 246 -14 202 3 c 128,-1,6
 158 20 158 20 124.5 52 c 128,-1,7
 91 84 91 84 71.5 131.5 c 128,-1,8
 52 179 52 179 52 240 c 2,9,-1
 52 256 l 2,10,11
 52 316 52 316 72 363.5 c 128,-1,12
 92 411 92 411 125 443.5 c 128,-1,13
 158 476 158 476 202 493 c 128,-1,14
 246 510 246 510 294 510 c 0,15,16
 348 510 348 510 388.5 486.5 c 128,-1,17
 429 463 429 463 452 418 c 1,18,-1
 464 418 l 1,19,-1
 464 496 l 1,20,-1
 542 496 l 1,21,-1
 542 -122 l 2,22,23
 542 -156 542 -156 520.5 -178 c 128,-1,24
 499 -200 499 -200 465 -200 c 2,25,-1
 142 -200 l 1,26,-1
 142 -128 l 1,27,-1
 437 -128 l 2,28,29
 464 -128 464 -128 464 -98 c 2,30,-1
 464 76 l 1,0,-1
298 60 m 0,31,32
 333 60 333 60 363 73 c 128,-1,33
 393 86 393 86 415.5 110 c 128,-1,34
 438 134 438 134 451 167.5 c 128,-1,35
 464 201 464 201 464 242 c 2,36,-1
 464 254 l 2,37,38
 464 294 464 294 451 327.5 c 128,-1,39
 438 361 438 361 415.5 385 c 128,-1,40
 393 409 393 409 362.5 422.5 c 128,-1,41
 332 436 332 436 298 436 c 0,42,43
 263 436 263 436 232.5 423 c 128,-1,44
 202 410 202 410 179.5 386 c 128,-1,45
 157 362 157 362 144.5 329 c 128,-1,46
 132 296 132 296 132 256 c 2,47,-1
 132 240 l 2,48,49
 132 198 132 198 144.5 165 c 128,-1,50
 157 132 157 132 179.5 108.5 c 128,-1,51
 202 85 202 85 232 72.5 c 128,-1,52
 262 60 262 60 298 60 c 0,31,32
436 688 m 1,53,-1
 356 570 l 1,54,-1
 232 570 l 1,55,-1
 152 688 l 1,56,-1
 236 688 l 1,57,-1
 288 600 l 1,58,-1
 300 600 l 1,59,-1
 352 688 l 1,60,-1
 436 688 l 1,53,-1
EndSplineSet
Substitution2: "'ss02' Style Set 2 in Latin lookup 3 subtable" uni01E7.alt
Substitution2: "'aalt' Access All Alternates in Latin lookup 0 subtable" uni01E7.alt
EndChar

StartChar: uni01EA
Encoding: 490 490 347
Width: 612
GlyphClass: 2
Flags: W
LayerCount: 2
Fore
SplineSet
60 428 m 2,0,1
 60 564 60 564 125 639 c 128,-1,2
 190 714 190 714 306 714 c 256,3,4
 422 714 422 714 487 639 c 128,-1,5
 552 564 552 564 552 428 c 2,6,-1
 552 272 l 2,7,8
 552 141 552 141 495.5 69 c 128,-1,9
 439 -3 439 -3 338 -12 c 1,10,-1
 325 -68 l 2,11,12
 324 -73 324 -73 324 -76 c 0,13,14
 324 -98 324 -98 347 -98 c 2,15,-1
 389 -98 l 1,16,-1
 389 -164 l 1,17,-1
 333 -164 l 2,18,19
 304 -164 304 -164 279.5 -145.5 c 128,-1,20
 255 -127 255 -127 255 -90 c 0,21,22
 255 -81 255 -81 258 -66 c 2,23,-1
 270 -12 l 1,24,25
 170 -1 170 -1 115 71 c 128,-1,26
 60 143 60 143 60 272 c 2,27,-1
 60 428 l 2,0,1
306 64 m 256,28,29
 387 64 387 64 427.5 119.5 c 128,-1,30
 468 175 468 175 468 278 c 2,31,-1
 468 422 l 2,32,33
 468 518 468 518 427.5 577 c 128,-1,34
 387 636 387 636 306 636 c 256,35,36
 225 636 225 636 184.5 577 c 128,-1,37
 144 518 144 518 144 422 c 2,38,-1
 144 278 l 2,39,40
 144 175 144 175 184.5 119.5 c 128,-1,41
 225 64 225 64 306 64 c 256,28,29
EndSplineSet
EndChar

StartChar: uni01EB
Encoding: 491 491 348
Width: 612
GlyphClass: 2
Flags: W
LayerCount: 2
Fore
SplineSet
555 242 m 2,0,1
 555 186 555 186 538 141 c 128,-1,2
 521 96 521 96 491.5 64 c 128,-1,3
 462 32 462 32 422.5 12.5 c 128,-1,4
 383 -7 383 -7 339 -12 c 1,5,-1
 326 -68 l 2,6,7
 325 -73 325 -73 325 -76 c 0,8,9
 325 -98 325 -98 348 -98 c 2,10,-1
 390 -98 l 1,11,-1
 390 -164 l 1,12,-1
 334 -164 l 2,13,14
 305 -164 305 -164 280.5 -145.5 c 128,-1,15
 256 -127 256 -127 256 -90 c 0,16,17
 256 -81 256 -81 259 -66 c 2,18,-1
 271 -12 l 1,19,20
 227 -6 227 -6 188 13 c 128,-1,21
 149 32 149 32 120 64.5 c 128,-1,22
 91 97 91 97 74 141.5 c 128,-1,23
 57 186 57 186 57 242 c 2,24,-1
 57 254 l 2,25,26
 57 315 57 315 77.5 362.5 c 128,-1,27
 98 410 98 410 132.5 443 c 128,-1,28
 167 476 167 476 212 493 c 128,-1,29
 257 510 257 510 306 510 c 256,30,31
 355 510 355 510 400 493 c 128,-1,32
 445 476 445 476 479.5 443 c 128,-1,33
 514 410 514 410 534.5 362.5 c 128,-1,34
 555 315 555 315 555 254 c 2,35,-1
 555 242 l 2,0,1
306 60 m 256,36,37
 342 60 342 60 372.5 72.5 c 128,-1,38
 403 85 403 85 426 109 c 128,-1,39
 449 133 449 133 462 166.5 c 128,-1,40
 475 200 475 200 475 242 c 2,41,-1
 475 254 l 2,42,43
 475 294 475 294 462 327.5 c 128,-1,44
 449 361 449 361 426 385 c 128,-1,45
 403 409 403 409 372 422.5 c 128,-1,46
 341 436 341 436 306 436 c 256,47,48
 271 436 271 436 240 422.5 c 128,-1,49
 209 409 209 409 186 385 c 128,-1,50
 163 361 163 361 150 327.5 c 128,-1,51
 137 294 137 294 137 254 c 2,52,-1
 137 242 l 2,53,54
 137 200 137 200 150 166.5 c 128,-1,55
 163 133 163 133 186 109 c 128,-1,56
 209 85 209 85 239.5 72.5 c 128,-1,57
 270 60 270 60 306 60 c 256,36,37
EndSplineSet
EndChar

StartChar: uni0237
Encoding: 567 567 353
Width: 612
GlyphClass: 2
Flags: W
LayerCount: 2
Fore
SplineSet
141 496 m 1,0,-1
 417 496 l 1,1,-1
 417 -122 l 2,2,3
 417 -156 417 -156 395.5 -178 c 128,-1,4
 374 -200 374 -200 340 -200 c 2,5,-1
 117 -200 l 1,6,-1
 117 -128 l 1,7,-1
 312 -128 l 2,8,9
 339 -128 339 -128 339 -98 c 2,10,-1
 339 424 l 1,11,-1
 141 424 l 1,12,-1
 141 496 l 1,0,-1
EndSplineSet
EndChar

StartChar: uni0243
Encoding: 579 579 354
Width: 612
GlyphClass: 2
Flags: W
LayerCount: 2
Fore
SplineSet
57 234 m 1,0,-1
 117 234 l 1,1,-1
 117 622 l 1,2,-1
 57 622 l 1,3,-1
 57 700 l 1,4,-1
 340 700 l 2,5,6
 390 700 390 700 428.5 686 c 128,-1,7
 467 672 467 672 493.5 648 c 128,-1,8
 520 624 520 624 533.5 590.5 c 128,-1,9
 547 557 547 557 547 518 c 2,10,-1
 547 506 l 2,11,12
 547 477 547 477 538 453 c 128,-1,13
 529 429 529 429 513 410 c 128,-1,14
 497 391 497 391 475.5 377.5 c 128,-1,15
 454 364 454 364 429 357 c 1,16,-1
 429 345 l 1,17,18
 479 331 479 331 513 291.5 c 128,-1,19
 547 252 547 252 547 195 c 2,20,-1
 547 183 l 2,21,22
 547 144 547 144 533.5 110.5 c 128,-1,23
 520 77 520 77 493.5 52.5 c 128,-1,24
 467 28 467 28 428.5 14 c 128,-1,25
 390 0 390 0 340 0 c 2,26,-1
 57 0 l 1,27,-1
 57 78 l 1,28,-1
 117 78 l 1,29,-1
 117 156 l 1,30,-1
 57 156 l 1,31,-1
 57 234 l 1,0,-1
201 390 m 1,32,-1
 337 390 l 2,33,34
 397 390 397 390 432 421 c 128,-1,35
 467 452 467 452 467 506 c 2,36,-1
 467 512 l 2,37,38
 467 563 467 563 430 592.5 c 128,-1,39
 393 622 393 622 334 622 c 2,40,-1
 201 622 l 1,41,-1
 201 390 l 1,32,-1
201 234 m 1,42,-1
 309 234 l 1,43,-1
 309 156 l 1,44,-1
 201 156 l 1,45,-1
 201 78 l 1,46,-1
 334 78 l 2,47,48
 393 78 393 78 430 107.5 c 128,-1,49
 467 137 467 137 467 189 c 2,50,-1
 467 195 l 2,51,52
 467 249 467 249 432 280.5 c 128,-1,53
 397 312 397 312 337 312 c 2,54,-1
 201 312 l 1,55,-1
 201 234 l 1,42,-1
EndSplineSet
Substitution2: "'ss01' Style Set 1 in Latin lookup 2 subtable" uni0243.alt
Substitution2: "'aalt' Access All Alternates in Latin lookup 0 subtable" uni0243.alt
EndChar

StartChar: uni0259
Encoding: 601 601 360
Width: 612
GlyphClass: 2
Flags: W
LayerCount: 2
Fore
SplineSet
466 272 m 1,0,1
 463 346 463 346 418.5 391 c 128,-1,2
 374 436 374 436 299 436 c 0,3,4
 266 436 266 436 241 427 c 128,-1,5
 216 418 216 418 198 403.5 c 128,-1,6
 180 389 180 389 167.5 370 c 128,-1,7
 155 351 155 351 147 332 c 1,8,-1
 77 362 l 1,9,10
 107 431 107 431 162.5 470.5 c 128,-1,11
 218 510 218 510 300 510 c 0,12,13
 352 510 352 510 397 492 c 128,-1,14
 442 474 442 474 474.5 441 c 128,-1,15
 507 408 507 408 525.5 361 c 128,-1,16
 544 314 544 314 544 256 c 2,17,-1
 544 232 l 2,18,19
 544 179 544 179 525.5 134 c 128,-1,20
 507 89 507 89 474.5 56 c 128,-1,21
 442 23 442 23 397.5 4.5 c 128,-1,22
 353 -14 353 -14 300 -14 c 0,23,24
 238 -14 238 -14 194 8.5 c 128,-1,25
 150 31 150 31 121.5 65 c 128,-1,26
 93 99 93 99 79.5 139 c 128,-1,27
 66 179 66 179 66 214 c 2,28,-1
 66 272 l 1,29,-1
 466 272 l 1,0,1
300 60 m 0,30,31
 333 60 333 60 361.5 70.5 c 128,-1,32
 390 81 390 81 411.5 100 c 128,-1,33
 433 119 433 119 446.5 144.5 c 128,-1,34
 460 170 460 170 464 200 c 1,35,-1
 144 200 l 1,36,37
 145 168 145 168 159 142 c 128,-1,38
 173 116 173 116 194.5 98 c 128,-1,39
 216 80 216 80 243.5 70 c 128,-1,40
 271 60 271 60 300 60 c 0,30,31
EndSplineSet
EndChar

StartChar: uni0265
Encoding: 613 613 362
Width: 612
GlyphClass: 2
Flags: W
LayerCount: 2
Fore
SplineSet
446 496 m 1,0,-1
 524 496 l 1,1,-1
 524 -200 l 1,2,-1
 446 -200 l 1,3,-1
 446 90 l 1,4,-1
 434 90 l 1,5,6
 411 42 411 42 369.5 14 c 128,-1,7
 328 -14 328 -14 268 -14 c 0,8,9
 187 -14 187 -14 136.5 39.5 c 128,-1,10
 86 93 86 93 86 200 c 2,11,-1
 86 496 l 1,12,-1
 164 496 l 1,13,-1
 164 216 l 2,14,15
 164 138 164 138 199 99 c 128,-1,16
 234 60 234 60 294 60 c 0,17,18
 365 60 365 60 405.5 108.5 c 128,-1,19
 446 157 446 157 446 238 c 2,20,-1
 446 496 l 1,0,-1
EndSplineSet
EndChar

StartChar: uni0287
Encoding: 647 647 365
Width: 612
GlyphClass: 2
Flags: W
LayerCount: 2
Fore
SplineSet
528 0 m 1,0,-1
 372 0 l 1,1,-1
 372 -200 l 1,2,-1
 294 -200 l 1,3,-1
 294 0 l 1,4,-1
 102 0 l 1,5,-1
 102 72 l 1,6,-1
 294 72 l 1,7,-1
 294 394 l 2,8,9
 294 424 294 424 267 424 c 2,10,-1
 126 424 l 1,11,-1
 126 496 l 1,12,-1
 295 496 l 2,13,14
 329 496 329 496 350.5 474 c 128,-1,15
 372 452 372 452 372 418 c 2,16,-1
 372 72 l 1,17,-1
 528 72 l 1,18,-1
 528 0 l 1,0,-1
EndSplineSet
EndChar

StartChar: uni028E
Encoding: 654 654 368
Width: 612
GlyphClass: 2
Flags: W
LayerCount: 2
Fore
SplineSet
237 496 m 1,0,-1
 267 496 l 1,1,-1
 267 622 l 2,2,3
 267 656 267 656 288.5 678 c 128,-1,4
 310 700 310 700 344 700 c 2,5,-1
 538 700 l 1,6,-1
 538 628 l 1,7,-1
 372 628 l 2,8,9
 345 628 345 628 345 598 c 2,10,-1
 345 496 l 1,11,-1
 375 496 l 1,12,-1
 556 0 l 1,13,-1
 464 0 l 1,14,-1
 312 436 l 1,15,-1
 300 436 l 1,16,-1
 148 0 l 1,17,-1
 56 0 l 1,18,-1
 237 496 l 1,0,-1
EndSplineSet
EndChar

StartChar: uni029E
Encoding: 670 670 369
Width: 612
GlyphClass: 2
Flags: W
LayerCount: 2
Fore
SplineSet
397 206 m 1,0,-1
 380 206 l 1,1,-1
 191 0 l 1,2,-1
 95 0 l 1,3,-1
 95 6 l 1,4,-1
 301 233 l 1,5,-1
 301 251 l 1,6,-1
 71 490 l 1,7,-1
 71 496 l 1,8,-1
 167 496 l 1,9,-1
 378 278 l 1,10,-1
 397 278 l 1,11,-1
 397 496 l 1,12,-1
 475 496 l 1,13,-1
 475 -200 l 1,14,-1
 397 -200 l 1,15,-1
 397 206 l 1,0,-1
EndSplineSet
EndChar

StartChar: circumflex
Encoding: 710 710 370
Width: 612
GlyphClass: 2
Flags: W
LayerCount: 2
Fore
SplineSet
364 570 m 1,0,-1
 312 658 l 1,1,-1
 300 658 l 1,2,-1
 248 570 l 1,3,-1
 164 570 l 1,4,-1
 244 688 l 1,5,-1
 368 688 l 1,6,-1
 448 570 l 1,7,-1
 364 570 l 1,0,-1
EndSplineSet
EndChar

StartChar: caron
Encoding: 711 711 371
Width: 612
GlyphClass: 2
Flags: W
LayerCount: 2
Fore
SplineSet
448 688 m 1,0,-1
 368 570 l 1,1,-1
 244 570 l 1,2,-1
 164 688 l 1,3,-1
 248 688 l 1,4,-1
 300 600 l 1,5,-1
 312 600 l 1,6,-1
 364 688 l 1,7,-1
 448 688 l 1,0,-1
EndSplineSet
EndChar

StartChar: uni02C9
Encoding: 713 713 372
Width: 612
GlyphClass: 2
Flags: W
LayerCount: 2
Fore
SplineSet
447 570 m 1,0,-1
 165 570 l 1,1,-1
 165 636 l 1,2,-1
 447 636 l 1,3,-1
 447 570 l 1,0,-1
EndSplineSet
EndChar

StartChar: breve
Encoding: 728 728 373
Width: 612
GlyphClass: 2
Flags: W
LayerCount: 2
Fore
SplineSet
414 688 m 1,0,-1
 414 678 l 2,1,2
 414 630 414 630 385 600 c 128,-1,3
 356 570 356 570 306 570 c 256,4,5
 256 570 256 570 227 600 c 128,-1,6
 198 630 198 630 198 678 c 2,7,-1
 198 688 l 1,8,-1
 267 688 l 1,9,-1
 267 676 l 2,10,11
 267 660 267 660 277 648.5 c 128,-1,12
 287 637 287 637 306 637 c 256,13,14
 325 637 325 637 335 648.5 c 128,-1,15
 345 660 345 660 345 676 c 2,16,-1
 345 688 l 1,17,-1
 414 688 l 1,0,-1
EndSplineSet
EndChar

StartChar: dotaccent
Encoding: 729 729 374
Width: 612
GlyphClass: 2
Flags: W
LayerCount: 2
Fore
SplineSet
236 644 m 256,0,1
 236 673 236 673 256.5 693.5 c 128,-1,2
 277 714 277 714 306 714 c 256,3,4
 335 714 335 714 355.5 693.5 c 128,-1,5
 376 673 376 673 376 644 c 256,6,7
 376 615 376 615 355.5 594.5 c 128,-1,8
 335 574 335 574 306 574 c 256,9,10
 277 574 277 574 256.5 594.5 c 128,-1,11
 236 615 236 615 236 644 c 256,0,1
EndSplineSet
EndChar

StartChar: ring
Encoding: 730 730 375
Width: 612
GlyphClass: 2
Flags: W
LayerCount: 2
Fore
SplineSet
204 672 m 256,0,1
 204 715 204 715 233.5 744.5 c 128,-1,2
 263 774 263 774 306 774 c 256,3,4
 349 774 349 774 378.5 744.5 c 128,-1,5
 408 715 408 715 408 672 c 256,6,7
 408 629 408 629 378.5 599.5 c 128,-1,8
 349 570 349 570 306 570 c 256,9,10
 263 570 263 570 233.5 599.5 c 128,-1,11
 204 629 204 629 204 672 c 256,0,1
264 672 m 256,12,13
 264 654 264 654 276 642 c 128,-1,14
 288 630 288 630 306 630 c 256,15,16
 324 630 324 630 336 642 c 128,-1,17
 348 654 348 654 348 672 c 256,18,19
 348 690 348 690 336 702 c 128,-1,20
 324 714 324 714 306 714 c 256,21,22
 288 714 288 714 276 702 c 128,-1,23
 264 690 264 690 264 672 c 256,12,13
EndSplineSet
EndChar

StartChar: ogonek
Encoding: 731 731 376
Width: 612
GlyphClass: 2
Flags: W
LayerCount: 2
Fore
SplineSet
349 30 m 1,0,-1
 326 -68 l 2,1,2
 325 -73 325 -73 325 -76 c 0,3,4
 325 -98 325 -98 348 -98 c 2,5,-1
 390 -98 l 1,6,-1
 390 -164 l 1,7,-1
 334 -164 l 2,8,9
 305 -164 305 -164 280.5 -145.5 c 128,-1,10
 256 -127 256 -127 256 -90 c 0,11,12
 256 -81 256 -81 259 -66 c 2,13,-1
 280 30 l 1,14,-1
 349 30 l 1,0,-1
EndSplineSet
EndChar

StartChar: tilde
Encoding: 732 732 377
Width: 612
GlyphClass: 2
Flags: W
LayerCount: 2
Fore
SplineSet
337 639 m 0,0,1
 342 629 342 629 347 624 c 128,-1,2
 352 619 352 619 361 619 c 0,3,4
 371 619 371 619 380 629 c 2,5,-1
 428 684 l 1,6,-1
 477 642 l 1,7,-1
 436 593 l 2,8,9
 422 576 422 576 403 563.5 c 128,-1,10
 384 551 384 551 358 551 c 0,11,12
 327 551 327 551 310.5 565 c 128,-1,13
 294 579 294 579 277 610 c 0,14,15
 270 622 270 622 265.5 627 c 128,-1,16
 261 632 261 632 253 632 c 0,17,18
 242 632 242 632 231 620 c 2,19,-1
 185 567 l 1,20,-1
 136 609 l 1,21,-1
 177 658 l 2,22,23
 191 675 191 675 210 687.5 c 128,-1,24
 229 700 229 700 256 700 c 0,25,26
 285 700 285 700 302 685.5 c 128,-1,27
 319 671 319 671 337 639 c 0,0,1
EndSplineSet
EndChar

StartChar: hungarumlaut
Encoding: 733 733 378
Width: 612
GlyphClass: 2
Flags: W
LayerCount: 2
Fore
SplineSet
314 688 m 1,0,-1
 230 570 l 1,1,-1
 158 570 l 1,2,-1
 224 688 l 1,3,-1
 314 688 l 1,0,-1
458 688 m 1,4,-1
 374 570 l 1,5,-1
 302 570 l 1,6,-1
 368 688 l 1,7,-1
 458 688 l 1,4,-1
EndSplineSet
EndChar

StartChar: acutecomb
Encoding: 769 769 379
Width: 612
GlyphClass: 2
Flags: W
LayerCount: 2
Fore
SplineSet
384 818 m 1,0,-1
 300 700 l 1,1,-1
 228 700 l 1,2,-1
 294 818 l 1,3,-1
 384 818 l 1,0,-1
EndSplineSet
EndChar

StartChar: uni0309
Encoding: 777 777 380
Width: 612
GlyphClass: 2
Flags: W
LayerCount: 2
Fore
SplineSet
231 546 m 1,0,-1
 211 638 l 1,1,-1
 211 644 l 1,2,-1
 287 644 l 1,3,4
 294 630 294 630 312 630 c 0,5,6
 326 630 326 630 336.5 640 c 128,-1,7
 347 650 347 650 347 668 c 0,8,9
 347 690 347 690 334.5 700 c 128,-1,10
 322 710 322 710 307 710 c 0,11,12
 285 710 285 710 273.5 697.5 c 128,-1,13
 262 685 262 685 259 670 c 1,14,-1
 211 688 l 1,15,16
 219 718 219 718 242 738 c 128,-1,17
 265 758 265 758 308 758 c 0,18,19
 347 758 347 758 374 733.5 c 128,-1,20
 401 709 401 709 401 667 c 0,21,22
 401 632 401 632 380.5 607 c 128,-1,23
 360 582 360 582 325 582 c 0,24,25
 284 582 284 582 271 614 c 1,26,-1
 265 614 l 1,27,-1
 280 546 l 1,28,-1
 231 546 l 1,0,-1
EndSplineSet
EndChar

StartChar: uni031B
Encoding: 795 795 381
Width: 612
GlyphClass: 2
Flags: W
LayerCount: 2
Fore
SplineSet
254 630 m 256,0,1
 254 659 254 659 274.5 679.5 c 128,-1,2
 295 700 295 700 324 700 c 256,3,4
 353 700 353 700 373.5 679.5 c 128,-1,5
 394 659 394 659 394 630 c 2,6,-1
 394 532 l 2,7,8
 394 498 394 498 372.5 476 c 128,-1,9
 351 454 351 454 317 454 c 2,10,-1
 218 454 l 1,11,-1
 218 508 l 1,12,-1
 313 508 l 2,13,14
 340 508 340 508 340 538 c 2,15,-1
 340 563 l 1,16,17
 332 560 332 560 323 560 c 0,18,19
 295 560 295 560 274.5 580.5 c 128,-1,20
 254 601 254 601 254 630 c 256,0,1
EndSplineSet
EndChar

StartChar: uni0323
Encoding: 803 803 382
Width: 612
GlyphClass: 2
Flags: W
LayerCount: 2
Fore
SplineSet
236 -134 m 256,0,1
 236 -105 236 -105 256.5 -84.5 c 128,-1,2
 277 -64 277 -64 306 -64 c 256,3,4
 335 -64 335 -64 355.5 -84.5 c 128,-1,5
 376 -105 376 -105 376 -134 c 256,6,7
 376 -163 376 -163 355.5 -183.5 c 128,-1,8
 335 -204 335 -204 306 -204 c 256,9,10
 277 -204 277 -204 256.5 -183.5 c 128,-1,11
 236 -163 236 -163 236 -134 c 256,0,1
EndSplineSet
EndChar

StartChar: pi
Encoding: 960 960 385
Width: 612
GlyphClass: 2
Flags: W
LayerCount: 2
Fore
SplineSet
140 0 m 1,0,-1
 140 424 l 1,1,-1
 68 424 l 1,2,-1
 68 496 l 1,3,-1
 546 496 l 1,4,-1
 546 424 l 1,5,-1
 474 424 l 1,6,-1
 474 102 l 2,7,8
 474 72 474 72 501 72 c 2,9,-1
 546 72 l 1,10,-1
 546 0 l 1,11,-1
 473 0 l 2,12,13
 439 0 439 0 417.5 22 c 128,-1,14
 396 44 396 44 396 78 c 2,15,-1
 396 424 l 1,16,-1
 218 424 l 1,17,-1
 218 0 l 1,18,-1
 140 0 l 1,0,-1
EndSplineSet
EndChar

StartChar: uni1E39
Encoding: 7737 7737 399
Width: 612
GlyphClass: 2
Flags: W
LayerCount: 2
Fore
SplineSet
345 774 m 1,0,-1
 93 774 l 1,1,-1
 93 840 l 1,2,-1
 345 840 l 1,3,-1
 345 774 l 1,0,-1
87 72 m 1,4,-1
 267 72 l 1,5,-1
 267 628 l 1,6,-1
 93 628 l 1,7,-1
 93 700 l 1,8,-1
 345 700 l 1,9,-1
 345 72 l 1,10,-1
 525 72 l 1,11,-1
 525 0 l 1,12,-1
 87 0 l 1,13,-1
 87 72 l 1,4,-1
236 -134 m 256,14,15
 236 -105 236 -105 256.5 -84.5 c 128,-1,16
 277 -64 277 -64 306 -64 c 256,17,18
 335 -64 335 -64 355.5 -84.5 c 128,-1,19
 376 -105 376 -105 376 -134 c 256,20,21
 376 -163 376 -163 355.5 -183.5 c 128,-1,22
 335 -204 335 -204 306 -204 c 256,23,24
 277 -204 277 -204 256.5 -183.5 c 128,-1,25
 236 -163 236 -163 236 -134 c 256,14,15
EndSplineSet
Substitution2: "'ss02' Style Set 2 in Latin lookup 3 subtable" uni1E39.alt
Substitution2: "'aalt' Access All Alternates in Latin lookup 0 subtable" uni1E39.alt
EndChar

StartChar: uni1E5F
Encoding: 7775 7775 415
Width: 612
GlyphClass: 2
Flags: W
LayerCount: 2
Fore
SplineSet
365 -130 m 1,0,-1
 47 -130 l 1,1,-1
 47 -64 l 1,2,-1
 365 -64 l 1,3,-1
 365 -130 l 1,0,-1
59 496 m 1,4,-1
 239 496 l 1,5,-1
 239 430 l 1,6,-1
 251 430 l 1,7,8
 270 471 270 471 305 490.5 c 128,-1,9
 340 510 340 510 385 510 c 0,10,11
 460 510 460 510 506 461 c 128,-1,12
 552 412 552 412 555 318 c 1,13,-1
 473 306 l 1,14,15
 473 375 473 375 440 405.5 c 128,-1,16
 407 436 407 436 359 436 c 0,17,18
 328 436 328 436 305.5 424 c 128,-1,19
 283 412 283 412 268 391 c 128,-1,20
 253 370 253 370 246 342 c 128,-1,21
 239 314 239 314 239 282 c 2,22,-1
 239 72 l 1,23,-1
 365 72 l 1,24,-1
 365 0 l 1,25,-1
 47 0 l 1,26,-1
 47 72 l 1,27,-1
 161 72 l 1,28,-1
 161 424 l 1,29,-1
 59 424 l 1,30,-1
 59 496 l 1,4,-1
EndSplineSet
Substitution2: "'ss02' Style Set 2 in Latin lookup 3 subtable" uni1E5F.alt
Substitution2: "'aalt' Access All Alternates in Latin lookup 0 subtable" uni1E5F.alt
EndChar

StartChar: uni1E6F
Encoding: 7791 7791 423
Width: 612
GlyphClass: 2
Flags: W
LayerCount: 2
Fore
SplineSet
472 -130 m 1,0,-1
 226 -130 l 1,1,-1
 226 -64 l 1,2,-1
 472 -64 l 1,3,-1
 472 -130 l 1,0,-1
70 496 m 1,4,-1
 226 496 l 1,5,-1
 226 700 l 1,6,-1
 304 700 l 1,7,-1
 304 496 l 1,8,-1
 496 496 l 1,9,-1
 496 424 l 1,10,-1
 304 424 l 1,11,-1
 304 102 l 2,12,13
 304 72 304 72 331 72 c 2,14,-1
 472 72 l 1,15,-1
 472 0 l 1,16,-1
 303 0 l 2,17,18
 269 0 269 0 247.5 22 c 128,-1,19
 226 44 226 44 226 78 c 2,20,-1
 226 424 l 1,21,-1
 70 424 l 1,22,-1
 70 496 l 1,4,-1
EndSplineSet
EndChar

StartChar: uni1E9E
Encoding: 7838 7838 435
Width: 612
GlyphClass: 2
Flags: W
LayerCount: 2
Fore
SplineSet
249 348 m 1,0,-1
 249 466 l 1,1,-1
 441 610 l 1,2,-1
 441 622 l 1,3,-1
 303 622 l 2,4,5
 248 622 248 622 214 591.5 c 128,-1,6
 180 561 180 561 180 496 c 2,7,-1
 180 0 l 1,8,-1
 96 0 l 1,9,-1
 96 418 l 1,10,-1
 36 418 l 1,11,-1
 36 496 l 1,12,-1
 96 496 l 1,13,14
 96 545 96 545 110.5 583.5 c 128,-1,15
 125 622 125 622 151.5 647.5 c 128,-1,16
 178 673 178 673 215 686.5 c 128,-1,17
 252 700 252 700 297 700 c 2,18,-1
 513 700 l 1,19,-1
 513 570 l 1,20,-1
 321 426 l 1,21,-1
 321 414 l 1,22,-1
 361 414 l 2,23,24
 402 414 402 414 439 401.5 c 128,-1,25
 476 389 476 389 504.5 364.5 c 128,-1,26
 533 340 533 340 550 304 c 128,-1,27
 567 268 567 268 567 222 c 2,28,-1
 567 210 l 2,29,30
 567 166 567 166 549 128 c 128,-1,31
 531 90 531 90 499 61.5 c 128,-1,32
 467 33 467 33 423.5 16.5 c 128,-1,33
 380 0 380 0 329 0 c 2,34,-1
 249 0 l 1,35,-1
 249 78 l 1,36,-1
 327 78 l 2,37,38
 360 78 360 78 388.5 88.5 c 128,-1,39
 417 99 417 99 438 117 c 128,-1,40
 459 135 459 135 471 160 c 128,-1,41
 483 185 483 185 483 215 c 2,42,-1
 483 221 l 2,43,44
 483 251 483 251 472.5 274.5 c 128,-1,45
 462 298 462 298 443 314.5 c 128,-1,46
 424 331 424 331 398.5 339.5 c 128,-1,47
 373 348 373 348 343 348 c 2,48,-1
 249 348 l 1,0,-1
EndSplineSet
EndChar

